solid Original
   facet normal 1.000000e+00 0.000000e+00 0.000000e+00
      outer loop
         vertex 7.620000e+01 3.810000e+01 2.540000e+01
         vertex 7.620000e+01 -3.810000e+01 2.540000e+01
         vertex 7.620000e+01 3.810000e+01 0.000000e+00
      endloop
   endfacet
   facet normal 1.000000e+00 0.000000e+00 0.000000e+00
      outer loop
         vertex 7.620000e+01 3.810000e+01 0.000000e+00
         vertex 7.620000e+01 -3.810000e+01 2.540000e+01
         vertex 7.620000e+01 -3.810000e+01 0.000000e+00
      endloop
   endfacet
   facet normal -0.000000e+00 1.000000e+00 0.000000e+00
      outer loop
         vertex -7.620000e+01 3.810000e+01 2.540000e+01
         vertex 7.620000e+01 3.810000e+01 2.540000e+01
         vertex -7.620000e+01 3.810000e+01 0.000000e+00
      endloop
   endfacet
   facet normal 0.000000e+00 1.000000e+00 0.000000e+00
      outer loop
         vertex -7.620000e+01 3.810000e+01 0.000000e+00
         vertex 7.620000e+01 3.810000e+01 2.540000e+01
         vertex 7.620000e+01 3.810000e+01 0.000000e+00
      endloop
   endfacet
   facet normal -1.000000e+00 0.000000e+00 0.000000e+00
      outer loop
         vertex -7.620000e+01 -3.810000e+01 2.540000e+01
         vertex -7.620000e+01 3.810000e+01 2.540000e+01
         vertex -7.620000e+01 -3.810000e+01 0.000000e+00
      endloop
   endfacet
   facet normal -1.000000e+00 0.000000e+00 0.000000e+00
      outer loop
         vertex -7.620000e+01 -3.810000e+01 0.000000e+00
         vertex -7.620000e+01 3.810000e+01 2.540000e+01
         vertex -7.620000e+01 3.810000e+01 0.000000e+00
      endloop
   endfacet
   facet normal -0.000000e+00 -1.000000e+00 -0.000000e+00
      outer loop
         vertex 7.620000e+01 -3.810000e+01 2.540000e+01
         vertex -7.620000e+01 -3.810000e+01 2.540000e+01
         vertex 7.620000e+01 -3.810000e+01 0.000000e+00
      endloop
   endfacet
   facet normal 0.000000e+00 -1.000000e+00 0.000000e+00
      outer loop
         vertex 7.620000e+01 -3.810000e+01 0.000000e+00
         vertex -7.620000e+01 -3.810000e+01 2.540000e+01
         vertex -7.620000e+01 -3.810000e+01 0.000000e+00
      endloop
   endfacet
   facet normal 0.000000e+00 0.000000e+00 1.000000e+00
      outer loop
         vertex 7.620000e+01 3.810000e+01 2.540000e+01
         vertex -3.397555e+01 -2.301875e+01 2.540000e+01
         vertex 7.620000e+01 -3.810000e+01 2.540000e+01
      endloop
   endfacet
   facet normal 0.000000e+00 0.000000e+00 1.000000e+00
      outer loop
         vertex 7.620000e+01 -3.810000e+01 2.540000e+01
         vertex -3.397555e+01 -2.301875e+01 2.540000e+01
         vertex -3.333750e+01 -2.540000e+01 2.540000e+01
      endloop
   endfacet
   facet normal 0.000000e+00 0.000000e+00 1.000000e+00
      outer loop
         vertex 7.620000e+01 -3.810000e+01 2.540000e+01
         vertex -3.333750e+01 -2.540000e+01 2.540000e+01
         vertex -3.397555e+01 -2.778125e+01 2.540000e+01
      endloop
   endfacet
   facet normal 0.000000e+00 0.000000e+00 1.000000e+00
      outer loop
         vertex -3.397555e+01 -2.778125e+01 2.540000e+01
         vertex -3.571875e+01 -2.952445e+01 2.540000e+01
         vertex 7.620000e+01 -3.810000e+01 2.540000e+01
      endloop
   endfacet
   facet normal 0.000000e+00 0.000000e+00 1.000000e+00
      outer loop
         vertex 7.620000e+01 -3.810000e+01 2.540000e+01
         vertex -3.571875e+01 -2.952445e+01 2.540000e+01
         vertex -3.810000e+01 -3.016250e+01 2.540000e+01
      endloop
   endfacet
   facet normal 0.000000e+00 0.000000e+00 1.000000e+00
      outer loop
         vertex 7.620000e+01 -3.810000e+01 2.540000e+01
         vertex -3.810000e+01 -3.016250e+01 2.540000e+01
         vertex -7.620000e+01 -3.810000e+01 2.540000e+01
      endloop
   endfacet
   facet normal 0.000000e+00 0.000000e+00 1.000000e+00
      outer loop
         vertex -7.620000e+01 -3.810000e+01 2.540000e+01
         vertex -3.810000e+01 -3.016250e+01 2.540000e+01
         vertex -4.048125e+01 -2.952445e+01 2.540000e+01
      endloop
   endfacet
   facet normal 0.000000e+00 0.000000e+00 1.000000e+00
      outer loop
         vertex -4.048125e+01 -2.952445e+01 2.540000e+01
         vertex -4.222444e+01 -2.778125e+01 2.540000e+01
         vertex -7.620000e+01 -3.810000e+01 2.540000e+01
      endloop
   endfacet
   facet normal 0.000000e+00 0.000000e+00 1.000000e+00
      outer loop
         vertex -7.620000e+01 -3.810000e+01 2.540000e+01
         vertex -4.222444e+01 -2.778125e+01 2.540000e+01
         vertex -4.286250e+01 -2.540000e+01 2.540000e+01
      endloop
   endfacet
   facet normal 0.000000e+00 0.000000e+00 1.000000e+00
      outer loop
         vertex -7.620000e+01 -3.810000e+01 2.540000e+01
         vertex -4.286250e+01 -2.540000e+01 2.540000e+01
         vertex -7.620000e+01 3.810000e+01 2.540000e+01
      endloop
   endfacet
   facet normal 0.000000e+00 0.000000e+00 1.000000e+00
      outer loop
         vertex -7.620000e+01 3.810000e+01 2.540000e+01
         vertex -4.286250e+01 -2.540000e+01 2.540000e+01
         vertex -4.222444e+01 -2.301875e+01 2.540000e+01
      endloop
   endfacet
   facet normal 0.000000e+00 -0.000000e+00 1.000000e+00
      outer loop
         vertex -4.222444e+01 -2.301875e+01 2.540000e+01
         vertex -4.048125e+01 -2.127555e+01 2.540000e+01
         vertex -7.620000e+01 3.810000e+01 2.540000e+01
      endloop
   endfacet
   facet normal 0.000000e+00 0.000000e+00 1.000000e+00
      outer loop
         vertex -7.620000e+01 3.810000e+01 2.540000e+01
         vertex -4.048125e+01 -2.127555e+01 2.540000e+01
         vertex -3.810000e+01 -2.063750e+01 2.540000e+01
      endloop
   endfacet
   facet normal -0.000000e+00 0.000000e+00 1.000000e+00
      outer loop
         vertex -7.620000e+01 3.810000e+01 2.540000e+01
         vertex -3.810000e+01 -2.063750e+01 2.540000e+01
         vertex 7.620000e+01 3.810000e+01 2.540000e+01
      endloop
   endfacet
   facet normal 0.000000e+00 0.000000e+00 1.000000e+00
      outer loop
         vertex 7.620000e+01 3.810000e+01 2.540000e+01
         vertex -3.810000e+01 -2.063750e+01 2.540000e+01
         vertex -3.571875e+01 -2.127555e+01 2.540000e+01
      endloop
   endfacet
   facet normal 0.000000e+00 0.000000e+00 1.000000e+00
      outer loop
         vertex 7.620000e+01 3.810000e+01 2.540000e+01
         vertex -3.571875e+01 -2.127555e+01 2.540000e+01
         vertex -3.397555e+01 -2.301875e+01 2.540000e+01
      endloop
   endfacet
   facet normal -0.000000e+00 0.000000e+00 -1.000000e+00
      outer loop
         vertex -6.762444e+01 2.778125e+01 0.000000e+00
         vertex -6.826250e+01 2.540000e+01 0.000000e+00
         vertex -7.620000e+01 3.810000e+01 0.000000e+00
      endloop
   endfacet
   facet normal 0.000000e+00 0.000000e+00 -1.000000e+00
      outer loop
         vertex -7.620000e+01 3.810000e+01 0.000000e+00
         vertex -6.826250e+01 2.540000e+01 0.000000e+00
         vertex -7.620000e+01 -3.810000e+01 0.000000e+00
      endloop
   endfacet
   facet normal 0.000000e+00 0.000000e+00 -1.000000e+00
      outer loop
         vertex -5.937555e+01 2.778125e+01 0.000000e+00
         vertex -6.111875e+01 2.952445e+01 0.000000e+00
         vertex 7.620000e+01 3.810000e+01 0.000000e+00
      endloop
   endfacet
   facet normal 0.000000e+00 0.000000e+00 -1.000000e+00
      outer loop
         vertex 7.620000e+01 3.810000e+01 0.000000e+00
         vertex -6.111875e+01 2.952445e+01 0.000000e+00
         vertex -6.350000e+01 3.016250e+01 0.000000e+00
      endloop
   endfacet
   facet normal -0.000000e+00 0.000000e+00 -1.000000e+00
      outer loop
         vertex 7.620000e+01 3.810000e+01 0.000000e+00
         vertex -6.350000e+01 3.016250e+01 0.000000e+00
         vertex -7.620000e+01 3.810000e+01 0.000000e+00
      endloop
   endfacet
   facet normal 0.000000e+00 0.000000e+00 -1.000000e+00
      outer loop
         vertex -7.620000e+01 3.810000e+01 0.000000e+00
         vertex -6.350000e+01 3.016250e+01 0.000000e+00
         vertex -6.588125e+01 2.952445e+01 0.000000e+00
      endloop
   endfacet
   facet normal 0.000000e+00 0.000000e+00 -1.000000e+00
      outer loop
         vertex -7.620000e+01 3.810000e+01 0.000000e+00
         vertex -6.588125e+01 2.952445e+01 0.000000e+00
         vertex -6.762444e+01 2.778125e+01 0.000000e+00
      endloop
   endfacet
   facet normal 0.000000e+00 -0.000000e+00 -1.000000e+00
      outer loop
         vertex -6.826250e+01 2.540000e+01 0.000000e+00
         vertex -6.762444e+01 2.301875e+01 0.000000e+00
         vertex -7.620000e+01 -3.810000e+01 0.000000e+00
      endloop
   endfacet
   facet normal 0.000000e+00 0.000000e+00 -1.000000e+00
      outer loop
         vertex -7.620000e+01 -3.810000e+01 0.000000e+00
         vertex -6.762444e+01 2.301875e+01 0.000000e+00
         vertex -6.588125e+01 2.127555e+01 0.000000e+00
      endloop
   endfacet
   facet normal 0.000000e+00 0.000000e+00 -1.000000e+00
      outer loop
         vertex -7.620000e+01 -3.810000e+01 0.000000e+00
         vertex -6.588125e+01 2.127555e+01 0.000000e+00
         vertex -6.350000e+01 2.063750e+01 0.000000e+00
      endloop
   endfacet
   facet normal 0.000000e+00 0.000000e+00 -1.000000e+00
      outer loop
         vertex 6.588125e+01 2.127555e+01 0.000000e+00
         vertex 6.762444e+01 2.301875e+01 0.000000e+00
         vertex 7.620000e+01 -3.810000e+01 0.000000e+00
      endloop
   endfacet
   facet normal 0.000000e+00 0.000000e+00 -1.000000e+00
      outer loop
         vertex 7.620000e+01 -3.810000e+01 0.000000e+00
         vertex 6.762444e+01 2.301875e+01 0.000000e+00
         vertex 6.826250e+01 2.540000e+01 0.000000e+00
      endloop
   endfacet
   facet normal 0.000000e+00 0.000000e+00 -1.000000e+00
      outer loop
         vertex 7.620000e+01 -3.810000e+01 0.000000e+00
         vertex 6.826250e+01 2.540000e+01 0.000000e+00
         vertex 7.620000e+01 3.810000e+01 0.000000e+00
      endloop
   endfacet
   facet normal 0.000000e+00 0.000000e+00 -1.000000e+00
      outer loop
         vertex 7.620000e+01 3.810000e+01 0.000000e+00
         vertex 6.826250e+01 2.540000e+01 0.000000e+00
         vertex 6.762444e+01 2.778125e+01 0.000000e+00
      endloop
   endfacet
   facet normal 0.000000e+00 0.000000e+00 -1.000000e+00
      outer loop
         vertex 7.620000e+01 3.810000e+01 0.000000e+00
         vertex 6.762444e+01 2.778125e+01 0.000000e+00
         vertex 6.588125e+01 2.952445e+01 0.000000e+00
      endloop
   endfacet
   facet normal 0.000000e+00 -0.000000e+00 -1.000000e+00
      outer loop
         vertex -6.111875e+01 2.127555e+01 0.000000e+00
         vertex 5.873750e+01 2.540000e+01 0.000000e+00
         vertex -6.350000e+01 2.063750e+01 0.000000e+00
      endloop
   endfacet
   facet normal 0.000000e+00 0.000000e+00 -1.000000e+00
      outer loop
         vertex -6.350000e+01 2.063750e+01 0.000000e+00
         vertex 5.873750e+01 2.540000e+01 0.000000e+00
         vertex 5.937555e+01 2.301875e+01 0.000000e+00
      endloop
   endfacet
   facet normal 0.000000e+00 -0.000000e+00 -1.000000e+00
      outer loop
         vertex -6.350000e+01 2.063750e+01 0.000000e+00
         vertex 5.937555e+01 2.301875e+01 0.000000e+00
         vertex -7.620000e+01 -3.810000e+01 0.000000e+00
      endloop
   endfacet
   facet normal 0.000000e+00 0.000000e+00 -1.000000e+00
      outer loop
         vertex -7.620000e+01 -3.810000e+01 0.000000e+00
         vertex 5.937555e+01 2.301875e+01 0.000000e+00
         vertex 6.111875e+01 2.127555e+01 0.000000e+00
      endloop
   endfacet
   facet normal 0.000000e+00 0.000000e+00 -1.000000e+00
      outer loop
         vertex -7.620000e+01 -3.810000e+01 0.000000e+00
         vertex 6.111875e+01 2.127555e+01 0.000000e+00
         vertex 7.620000e+01 -3.810000e+01 0.000000e+00
      endloop
   endfacet
   facet normal 0.000000e+00 0.000000e+00 -1.000000e+00
      outer loop
         vertex 7.620000e+01 -3.810000e+01 0.000000e+00
         vertex 6.111875e+01 2.127555e+01 0.000000e+00
         vertex 6.350000e+01 2.063750e+01 0.000000e+00
      endloop
   endfacet
   facet normal 0.000000e+00 0.000000e+00 -1.000000e+00
      outer loop
         vertex 7.620000e+01 -3.810000e+01 0.000000e+00
         vertex 6.350000e+01 2.063750e+01 0.000000e+00
         vertex 6.588125e+01 2.127555e+01 0.000000e+00
      endloop
   endfacet
   facet normal 0.000000e+00 0.000000e+00 -1.000000e+00
      outer loop
         vertex 6.588125e+01 2.952445e+01 0.000000e+00
         vertex 6.350000e+01 3.016250e+01 0.000000e+00
         vertex 7.620000e+01 3.810000e+01 0.000000e+00
      endloop
   endfacet
   facet normal 0.000000e+00 0.000000e+00 -1.000000e+00
      outer loop
         vertex 7.620000e+01 3.810000e+01 0.000000e+00
         vertex 6.350000e+01 3.016250e+01 0.000000e+00
         vertex 6.111875e+01 2.952445e+01 0.000000e+00
      endloop
   endfacet
   facet normal 0.000000e+00 0.000000e+00 -1.000000e+00
      outer loop
         vertex 7.620000e+01 3.810000e+01 0.000000e+00
         vertex 6.111875e+01 2.952445e+01 0.000000e+00
         vertex -5.937555e+01 2.778125e+01 0.000000e+00
      endloop
   endfacet
   facet normal 0.000000e+00 0.000000e+00 -1.000000e+00
      outer loop
         vertex -5.937555e+01 2.778125e+01 0.000000e+00
         vertex 6.111875e+01 2.952445e+01 0.000000e+00
         vertex 5.937555e+01 2.778125e+01 0.000000e+00
      endloop
   endfacet
   facet normal 0.000000e+00 0.000000e+00 -1.000000e+00
      outer loop
         vertex -5.937555e+01 2.778125e+01 0.000000e+00
         vertex 5.937555e+01 2.778125e+01 0.000000e+00
         vertex -5.873750e+01 2.540000e+01 0.000000e+00
      endloop
   endfacet
   facet normal 0.000000e+00 0.000000e+00 -1.000000e+00
      outer loop
         vertex -5.873750e+01 2.540000e+01 0.000000e+00
         vertex 5.937555e+01 2.778125e+01 0.000000e+00
         vertex 5.873750e+01 2.540000e+01 0.000000e+00
      endloop
   endfacet
   facet normal 0.000000e+00 -0.000000e+00 -1.000000e+00
      outer loop
         vertex -5.873750e+01 2.540000e+01 0.000000e+00
         vertex 5.873750e+01 2.540000e+01 0.000000e+00
         vertex -5.937555e+01 2.301875e+01 0.000000e+00
      endloop
   endfacet
   facet normal 0.000000e+00 -0.000000e+00 -1.000000e+00
      outer loop
         vertex -5.937555e+01 2.301875e+01 0.000000e+00
         vertex 5.873750e+01 2.540000e+01 0.000000e+00
         vertex -6.111875e+01 2.127555e+01 0.000000e+00
      endloop
   endfacet
   facet normal -9.659260e-01 -2.588186e-01 0.000000e+00
      outer loop
         vertex -3.333750e+01 -2.540000e+01 1.270000e+01
         vertex -3.333750e+01 -2.540000e+01 2.540000e+01
         vertex -3.397555e+01 -2.301875e+01 1.270000e+01
      endloop
   endfacet
   facet normal -9.659260e-01 -2.588186e-01 0.000000e+00
      outer loop
         vertex -3.397555e+01 -2.301875e+01 1.270000e+01
         vertex -3.333750e+01 -2.540000e+01 2.540000e+01
         vertex -3.397555e+01 -2.301875e+01 2.540000e+01
      endloop
   endfacet
   facet normal -7.071064e-01 -7.071072e-01 0.000000e+00
      outer loop
         vertex -3.397555e+01 -2.301875e+01 1.270000e+01
         vertex -3.397555e+01 -2.301875e+01 2.540000e+01
         vertex -3.571875e+01 -2.127555e+01 1.270000e+01
      endloop
   endfacet
   facet normal -7.071064e-01 -7.071072e-01 0.000000e+00
      outer loop
         vertex -3.571875e+01 -2.127555e+01 1.270000e+01
         vertex -3.397555e+01 -2.301875e+01 2.540000e+01
         vertex -3.571875e+01 -2.127555e+01 2.540000e+01
      endloop
   endfacet
   facet normal -2.588193e-01 -9.659258e-01 0.000000e+00
      outer loop
         vertex -3.571875e+01 -2.127555e+01 1.270000e+01
         vertex -3.571875e+01 -2.127555e+01 2.540000e+01
         vertex -3.810000e+01 -2.063750e+01 1.270000e+01
      endloop
   endfacet
   facet normal -2.588193e-01 -9.659258e-01 0.000000e+00
      outer loop
         vertex -3.810000e+01 -2.063750e+01 1.270000e+01
         vertex -3.571875e+01 -2.127555e+01 2.540000e+01
         vertex -3.810000e+01 -2.063750e+01 2.540000e+01
      endloop
   endfacet
   facet normal 2.588193e-01 -9.659258e-01 0.000000e+00
      outer loop
         vertex -3.810000e+01 -2.063750e+01 1.270000e+01
         vertex -3.810000e+01 -2.063750e+01 2.540000e+01
         vertex -4.048125e+01 -2.127555e+01 1.270000e+01
      endloop
   endfacet
   facet normal 2.588193e-01 -9.659258e-01 0.000000e+00
      outer loop
         vertex -4.048125e+01 -2.127555e+01 1.270000e+01
         vertex -3.810000e+01 -2.063750e+01 2.540000e+01
         vertex -4.048125e+01 -2.127555e+01 2.540000e+01
      endloop
   endfacet
   facet normal 7.071072e-01 -7.071064e-01 0.000000e+00
      outer loop
         vertex -4.048125e+01 -2.127555e+01 1.270000e+01
         vertex -4.048125e+01 -2.127555e+01 2.540000e+01
         vertex -4.222444e+01 -2.301875e+01 1.270000e+01
      endloop
   endfacet
   facet normal 7.071072e-01 -7.071064e-01 0.000000e+00
      outer loop
         vertex -4.222444e+01 -2.301875e+01 1.270000e+01
         vertex -4.048125e+01 -2.127555e+01 2.540000e+01
         vertex -4.222444e+01 -2.301875e+01 2.540000e+01
      endloop
   endfacet
   facet normal 9.659256e-01 -2.588200e-01 0.000000e+00
      outer loop
         vertex -4.222444e+01 -2.301875e+01 1.270000e+01
         vertex -4.222444e+01 -2.301875e+01 2.540000e+01
         vertex -4.286250e+01 -2.540000e+01 1.270000e+01
      endloop
   endfacet
   facet normal 9.659256e-01 -2.588200e-01 0.000000e+00
      outer loop
         vertex -4.286250e+01 -2.540000e+01 1.270000e+01
         vertex -4.222444e+01 -2.301875e+01 2.540000e+01
         vertex -4.286250e+01 -2.540000e+01 2.540000e+01
      endloop
   endfacet
   facet normal 9.659256e-01 2.588200e-01 -0.000000e+00
      outer loop
         vertex -4.286250e+01 -2.540000e+01 1.270000e+01
         vertex -4.286250e+01 -2.540000e+01 2.540000e+01
         vertex -4.222444e+01 -2.778125e+01 1.270000e+01
      endloop
   endfacet
   facet normal 9.659256e-01 2.588200e-01 -0.000000e+00
      outer loop
         vertex -4.222444e+01 -2.778125e+01 1.270000e+01
         vertex -4.286250e+01 -2.540000e+01 2.540000e+01
         vertex -4.222444e+01 -2.778125e+01 2.540000e+01
      endloop
   endfacet
   facet normal 7.071072e-01 7.071064e-01 -0.000000e+00
      outer loop
         vertex -4.222444e+01 -2.778125e+01 1.270000e+01
         vertex -4.222444e+01 -2.778125e+01 2.540000e+01
         vertex -4.048125e+01 -2.952445e+01 1.270000e+01
      endloop
   endfacet
   facet normal 7.071072e-01 7.071064e-01 -0.000000e+00
      outer loop
         vertex -4.048125e+01 -2.952445e+01 1.270000e+01
         vertex -4.222444e+01 -2.778125e+01 2.540000e+01
         vertex -4.048125e+01 -2.952445e+01 2.540000e+01
      endloop
   endfacet
   facet normal 2.588193e-01 9.659258e-01 -0.000000e+00
      outer loop
         vertex -4.048125e+01 -2.952445e+01 1.270000e+01
         vertex -4.048125e+01 -2.952445e+01 2.540000e+01
         vertex -3.810000e+01 -3.016250e+01 1.270000e+01
      endloop
   endfacet
   facet normal 2.588193e-01 9.659258e-01 -0.000000e+00
      outer loop
         vertex -3.810000e+01 -3.016250e+01 1.270000e+01
         vertex -4.048125e+01 -2.952445e+01 2.540000e+01
         vertex -3.810000e+01 -3.016250e+01 2.540000e+01
      endloop
   endfacet
   facet normal -2.588193e-01 9.659258e-01 0.000000e+00
      outer loop
         vertex -3.810000e+01 -3.016250e+01 1.270000e+01
         vertex -3.810000e+01 -3.016250e+01 2.540000e+01
         vertex -3.571875e+01 -2.952445e+01 1.270000e+01
      endloop
   endfacet
   facet normal -2.588193e-01 9.659258e-01 0.000000e+00
      outer loop
         vertex -3.571875e+01 -2.952445e+01 1.270000e+01
         vertex -3.810000e+01 -3.016250e+01 2.540000e+01
         vertex -3.571875e+01 -2.952445e+01 2.540000e+01
      endloop
   endfacet
   facet normal -7.071064e-01 7.071072e-01 0.000000e+00
      outer loop
         vertex -3.571875e+01 -2.952445e+01 1.270000e+01
         vertex -3.571875e+01 -2.952445e+01 2.540000e+01
         vertex -3.397555e+01 -2.778125e+01 1.270000e+01
      endloop
   endfacet
   facet normal -7.071064e-01 7.071072e-01 0.000000e+00
      outer loop
         vertex -3.397555e+01 -2.778125e+01 1.270000e+01
         vertex -3.571875e+01 -2.952445e+01 2.540000e+01
         vertex -3.397555e+01 -2.778125e+01 2.540000e+01
      endloop
   endfacet
   facet normal -9.659260e-01 2.588186e-01 0.000000e+00
      outer loop
         vertex -3.397555e+01 -2.778125e+01 1.270000e+01
         vertex -3.397555e+01 -2.778125e+01 2.540000e+01
         vertex -3.333750e+01 -2.540000e+01 1.270000e+01
      endloop
   endfacet
   facet normal -9.659260e-01 2.588186e-01 0.000000e+00
      outer loop
         vertex -3.333750e+01 -2.540000e+01 1.270000e+01
         vertex -3.397555e+01 -2.778125e+01 2.540000e+01
         vertex -3.333750e+01 -2.540000e+01 2.540000e+01
      endloop
   endfacet
   facet normal 0.000000e+00 -0.000000e+00 1.000000e+00
      outer loop
         vertex -3.571875e+01 -2.952445e+01 1.270000e+01
         vertex -3.397555e+01 -2.778125e+01 1.270000e+01
         vertex -3.810000e+01 -2.540000e+01 1.270000e+01
      endloop
   endfacet
   facet normal -0.000000e+00 0.000000e+00 1.000000e+00
      outer loop
         vertex -3.810000e+01 -2.540000e+01 1.270000e+01
         vertex -3.397555e+01 -2.778125e+01 1.270000e+01
         vertex -3.333750e+01 -2.540000e+01 1.270000e+01
      endloop
   endfacet
   facet normal 0.000000e+00 0.000000e+00 1.000000e+00
      outer loop
         vertex -3.810000e+01 -2.540000e+01 1.270000e+01
         vertex -3.333750e+01 -2.540000e+01 1.270000e+01
         vertex -3.397555e+01 -2.301875e+01 1.270000e+01
      endloop
   endfacet
   facet normal -0.000000e+00 0.000000e+00 1.000000e+00
      outer loop
         vertex -4.222444e+01 -2.778125e+01 1.270000e+01
         vertex -4.048125e+01 -2.952445e+01 1.270000e+01
         vertex -3.810000e+01 -2.540000e+01 1.270000e+01
      endloop
   endfacet
   facet normal 0.000000e+00 0.000000e+00 1.000000e+00
      outer loop
         vertex -3.810000e+01 -2.540000e+01 1.270000e+01
         vertex -4.048125e+01 -2.952445e+01 1.270000e+01
         vertex -3.810000e+01 -3.016250e+01 1.270000e+01
      endloop
   endfacet
   facet normal 0.000000e+00 0.000000e+00 1.000000e+00
      outer loop
         vertex -3.810000e+01 -2.540000e+01 1.270000e+01
         vertex -3.810000e+01 -3.016250e+01 1.270000e+01
         vertex -3.571875e+01 -2.952445e+01 1.270000e+01
      endloop
   endfacet
   facet normal 0.000000e+00 0.000000e+00 1.000000e+00
      outer loop
         vertex -4.048125e+01 -2.127555e+01 1.270000e+01
         vertex -4.222444e+01 -2.301875e+01 1.270000e+01
         vertex -3.810000e+01 -2.540000e+01 1.270000e+01
      endloop
   endfacet
   facet normal 0.000000e+00 0.000000e+00 1.000000e+00
      outer loop
         vertex -3.810000e+01 -2.540000e+01 1.270000e+01
         vertex -4.222444e+01 -2.301875e+01 1.270000e+01
         vertex -4.286250e+01 -2.540000e+01 1.270000e+01
      endloop
   endfacet
   facet normal 0.000000e+00 0.000000e+00 1.000000e+00
      outer loop
         vertex -3.810000e+01 -2.540000e+01 1.270000e+01
         vertex -4.286250e+01 -2.540000e+01 1.270000e+01
         vertex -4.222444e+01 -2.778125e+01 1.270000e+01
      endloop
   endfacet
   facet normal 0.000000e+00 0.000000e+00 1.000000e+00
      outer loop
         vertex -3.397555e+01 -2.301875e+01 1.270000e+01
         vertex -3.571875e+01 -2.127555e+01 1.270000e+01
         vertex -3.810000e+01 -2.540000e+01 1.270000e+01
      endloop
   endfacet
   facet normal 0.000000e+00 0.000000e+00 1.000000e+00
      outer loop
         vertex -3.810000e+01 -2.540000e+01 1.270000e+01
         vertex -3.571875e+01 -2.127555e+01 1.270000e+01
         vertex -3.810000e+01 -2.063750e+01 1.270000e+01
      endloop
   endfacet
   facet normal 0.000000e+00 -0.000000e+00 1.000000e+00
      outer loop
         vertex -3.810000e+01 -2.540000e+01 1.270000e+01
         vertex -3.810000e+01 -2.063750e+01 1.270000e+01
         vertex -4.048125e+01 -2.127555e+01 1.270000e+01
      endloop
   endfacet
   facet normal 9.659260e-01 -2.588186e-01 0.000000e+00
      outer loop
         vertex 5.873750e+01 2.540000e+01 1.270000e+01
         vertex 5.873750e+01 2.540000e+01 0.000000e+00
         vertex 5.937555e+01 2.778125e+01 1.270000e+01
      endloop
   endfacet
   facet normal 9.659260e-01 -2.588186e-01 0.000000e+00
      outer loop
         vertex 5.937555e+01 2.778125e+01 1.270000e+01
         vertex 5.873750e+01 2.540000e+01 0.000000e+00
         vertex 5.937555e+01 2.778125e+01 0.000000e+00
      endloop
   endfacet
   facet normal 7.071064e-01 -7.071072e-01 0.000000e+00
      outer loop
         vertex 5.937555e+01 2.778125e+01 1.270000e+01
         vertex 5.937555e+01 2.778125e+01 0.000000e+00
         vertex 6.111875e+01 2.952445e+01 1.270000e+01
      endloop
   endfacet
   facet normal 7.071064e-01 -7.071072e-01 0.000000e+00
      outer loop
         vertex 6.111875e+01 2.952445e+01 1.270000e+01
         vertex 5.937555e+01 2.778125e+01 0.000000e+00
         vertex 6.111875e+01 2.952445e+01 0.000000e+00
      endloop
   endfacet
   facet normal 2.588193e-01 -9.659258e-01 0.000000e+00
      outer loop
         vertex 6.111875e+01 2.952445e+01 1.270000e+01
         vertex 6.111875e+01 2.952445e+01 0.000000e+00
         vertex 6.350000e+01 3.016250e+01 1.270000e+01
      endloop
   endfacet
   facet normal 2.588193e-01 -9.659258e-01 0.000000e+00
      outer loop
         vertex 6.350000e+01 3.016250e+01 1.270000e+01
         vertex 6.111875e+01 2.952445e+01 0.000000e+00
         vertex 6.350000e+01 3.016250e+01 0.000000e+00
      endloop
   endfacet
   facet normal -2.588193e-01 -9.659258e-01 -0.000000e+00
      outer loop
         vertex 6.350000e+01 3.016250e+01 1.270000e+01
         vertex 6.350000e+01 3.016250e+01 0.000000e+00
         vertex 6.588125e+01 2.952445e+01 1.270000e+01
      endloop
   endfacet
   facet normal -2.588193e-01 -9.659258e-01 -0.000000e+00
      outer loop
         vertex 6.588125e+01 2.952445e+01 1.270000e+01
         vertex 6.350000e+01 3.016250e+01 0.000000e+00
         vertex 6.588125e+01 2.952445e+01 0.000000e+00
      endloop
   endfacet
   facet normal -7.071079e-01 -7.071056e-01 -0.000000e+00
      outer loop
         vertex 6.588125e+01 2.952445e+01 1.270000e+01
         vertex 6.588125e+01 2.952445e+01 0.000000e+00
         vertex 6.762444e+01 2.778125e+01 1.270000e+01
      endloop
   endfacet
   facet normal -7.071079e-01 -7.071056e-01 -0.000000e+00
      outer loop
         vertex 6.762444e+01 2.778125e+01 1.270000e+01
         vertex 6.588125e+01 2.952445e+01 0.000000e+00
         vertex 6.762444e+01 2.778125e+01 0.000000e+00
      endloop
   endfacet
   facet normal -9.659252e-01 -2.588214e-01 -0.000000e+00
      outer loop
         vertex 6.762444e+01 2.778125e+01 1.270000e+01
         vertex 6.762444e+01 2.778125e+01 0.000000e+00
         vertex 6.826250e+01 2.540000e+01 1.270000e+01
      endloop
   endfacet
   facet normal -9.659252e-01 -2.588214e-01 -0.000000e+00
      outer loop
         vertex 6.826250e+01 2.540000e+01 1.270000e+01
         vertex 6.762444e+01 2.778125e+01 0.000000e+00
         vertex 6.826250e+01 2.540000e+01 0.000000e+00
      endloop
   endfacet
   facet normal -9.659252e-01 2.588214e-01 0.000000e+00
      outer loop
         vertex 6.826250e+01 2.540000e+01 1.270000e+01
         vertex 6.826250e+01 2.540000e+01 0.000000e+00
         vertex 6.762444e+01 2.301875e+01 1.270000e+01
      endloop
   endfacet
   facet normal -9.659252e-01 2.588214e-01 0.000000e+00
      outer loop
         vertex 6.762444e+01 2.301875e+01 1.270000e+01
         vertex 6.826250e+01 2.540000e+01 0.000000e+00
         vertex 6.762444e+01 2.301875e+01 0.000000e+00
      endloop
   endfacet
   facet normal -7.071079e-01 7.071056e-01 0.000000e+00
      outer loop
         vertex 6.762444e+01 2.301875e+01 1.270000e+01
         vertex 6.762444e+01 2.301875e+01 0.000000e+00
         vertex 6.588125e+01 2.127555e+01 1.270000e+01
      endloop
   endfacet
   facet normal -7.071079e-01 7.071056e-01 0.000000e+00
      outer loop
         vertex 6.588125e+01 2.127555e+01 1.270000e+01
         vertex 6.762444e+01 2.301875e+01 0.000000e+00
         vertex 6.588125e+01 2.127555e+01 0.000000e+00
      endloop
   endfacet
   facet normal -2.588193e-01 9.659258e-01 0.000000e+00
      outer loop
         vertex 6.588125e+01 2.127555e+01 1.270000e+01
         vertex 6.588125e+01 2.127555e+01 0.000000e+00
         vertex 6.350000e+01 2.063750e+01 1.270000e+01
      endloop
   endfacet
   facet normal -2.588193e-01 9.659258e-01 0.000000e+00
      outer loop
         vertex 6.350000e+01 2.063750e+01 1.270000e+01
         vertex 6.588125e+01 2.127555e+01 0.000000e+00
         vertex 6.350000e+01 2.063750e+01 0.000000e+00
      endloop
   endfacet
   facet normal 2.588193e-01 9.659258e-01 0.000000e+00
      outer loop
         vertex 6.350000e+01 2.063750e+01 1.270000e+01
         vertex 6.350000e+01 2.063750e+01 0.000000e+00
         vertex 6.111875e+01 2.127555e+01 1.270000e+01
      endloop
   endfacet
   facet normal 2.588193e-01 9.659258e-01 0.000000e+00
      outer loop
         vertex 6.111875e+01 2.127555e+01 1.270000e+01
         vertex 6.350000e+01 2.063750e+01 0.000000e+00
         vertex 6.111875e+01 2.127555e+01 0.000000e+00
      endloop
   endfacet
   facet normal 7.071064e-01 7.071072e-01 0.000000e+00
      outer loop
         vertex 6.111875e+01 2.127555e+01 1.270000e+01
         vertex 6.111875e+01 2.127555e+01 0.000000e+00
         vertex 5.937555e+01 2.301875e+01 1.270000e+01
      endloop
   endfacet
   facet normal 7.071064e-01 7.071072e-01 0.000000e+00
      outer loop
         vertex 5.937555e+01 2.301875e+01 1.270000e+01
         vertex 6.111875e+01 2.127555e+01 0.000000e+00
         vertex 5.937555e+01 2.301875e+01 0.000000e+00
      endloop
   endfacet
   facet normal 9.659260e-01 2.588186e-01 0.000000e+00
      outer loop
         vertex 5.937555e+01 2.301875e+01 1.270000e+01
         vertex 5.937555e+01 2.301875e+01 0.000000e+00
         vertex 5.873750e+01 2.540000e+01 1.270000e+01
      endloop
   endfacet
   facet normal 9.659260e-01 2.588186e-01 0.000000e+00
      outer loop
         vertex 5.873750e+01 2.540000e+01 1.270000e+01
         vertex 5.937555e+01 2.301875e+01 0.000000e+00
         vertex 5.873750e+01 2.540000e+01 0.000000e+00
      endloop
   endfacet
   facet normal 0.000000e+00 0.000000e+00 -1.000000e+00
      outer loop
         vertex 6.111875e+01 2.127555e+01 1.270000e+01
         vertex 5.937555e+01 2.301875e+01 1.270000e+01
         vertex 6.350000e+01 2.540000e+01 1.270000e+01
      endloop
   endfacet
   facet normal -0.000000e+00 0.000000e+00 -1.000000e+00
      outer loop
         vertex 6.350000e+01 2.540000e+01 1.270000e+01
         vertex 5.937555e+01 2.301875e+01 1.270000e+01
         vertex 5.873750e+01 2.540000e+01 1.270000e+01
      endloop
   endfacet
   facet normal 0.000000e+00 0.000000e+00 -1.000000e+00
      outer loop
         vertex 6.350000e+01 2.540000e+01 1.270000e+01
         vertex 5.873750e+01 2.540000e+01 1.270000e+01
         vertex 5.937555e+01 2.778125e+01 1.270000e+01
      endloop
   endfacet
   facet normal -0.000000e+00 0.000000e+00 -1.000000e+00
      outer loop
         vertex 6.762444e+01 2.301875e+01 1.270000e+01
         vertex 6.588125e+01 2.127555e+01 1.270000e+01
         vertex 6.350000e+01 2.540000e+01 1.270000e+01
      endloop
   endfacet
   facet normal 0.000000e+00 0.000000e+00 -1.000000e+00
      outer loop
         vertex 6.350000e+01 2.540000e+01 1.270000e+01
         vertex 6.588125e+01 2.127555e+01 1.270000e+01
         vertex 6.350000e+01 2.063750e+01 1.270000e+01
      endloop
   endfacet
   facet normal 0.000000e+00 -0.000000e+00 -1.000000e+00
      outer loop
         vertex 6.350000e+01 2.540000e+01 1.270000e+01
         vertex 6.350000e+01 2.063750e+01 1.270000e+01
         vertex 6.111875e+01 2.127555e+01 1.270000e+01
      endloop
   endfacet
   facet normal 0.000000e+00 -0.000000e+00 -1.000000e+00
      outer loop
         vertex 6.588125e+01 2.952445e+01 1.270000e+01
         vertex 6.762444e+01 2.778125e+01 1.270000e+01
         vertex 6.350000e+01 2.540000e+01 1.270000e+01
      endloop
   endfacet
   facet normal 0.000000e+00 0.000000e+00 -1.000000e+00
      outer loop
         vertex 6.350000e+01 2.540000e+01 1.270000e+01
         vertex 6.762444e+01 2.778125e+01 1.270000e+01
         vertex 6.826250e+01 2.540000e+01 1.270000e+01
      endloop
   endfacet
   facet normal 0.000000e+00 0.000000e+00 -1.000000e+00
      outer loop
         vertex 6.350000e+01 2.540000e+01 1.270000e+01
         vertex 6.826250e+01 2.540000e+01 1.270000e+01
         vertex 6.762444e+01 2.301875e+01 1.270000e+01
      endloop
   endfacet
   facet normal 0.000000e+00 0.000000e+00 -1.000000e+00
      outer loop
         vertex 5.937555e+01 2.778125e+01 1.270000e+01
         vertex 6.111875e+01 2.952445e+01 1.270000e+01
         vertex 6.350000e+01 2.540000e+01 1.270000e+01
      endloop
   endfacet
   facet normal 0.000000e+00 0.000000e+00 -1.000000e+00
      outer loop
         vertex 6.350000e+01 2.540000e+01 1.270000e+01
         vertex 6.111875e+01 2.952445e+01 1.270000e+01
         vertex 6.350000e+01 3.016250e+01 1.270000e+01
      endloop
   endfacet
   facet normal 0.000000e+00 0.000000e+00 -1.000000e+00
      outer loop
         vertex 6.350000e+01 2.540000e+01 1.270000e+01
         vertex 6.350000e+01 3.016250e+01 1.270000e+01
         vertex 6.588125e+01 2.952445e+01 1.270000e+01
      endloop
   endfacet
   facet normal 9.659252e-01 -2.588214e-01 0.000000e+00
      outer loop
         vertex -6.826250e+01 2.540000e+01 1.270000e+01
         vertex -6.826250e+01 2.540000e+01 0.000000e+00
         vertex -6.762444e+01 2.778125e+01 1.270000e+01
      endloop
   endfacet
   facet normal 9.659252e-01 -2.588214e-01 0.000000e+00
      outer loop
         vertex -6.762444e+01 2.778125e+01 1.270000e+01
         vertex -6.826250e+01 2.540000e+01 0.000000e+00
         vertex -6.762444e+01 2.778125e+01 0.000000e+00
      endloop
   endfacet
   facet normal 7.071079e-01 -7.071056e-01 0.000000e+00
      outer loop
         vertex -6.762444e+01 2.778125e+01 1.270000e+01
         vertex -6.762444e+01 2.778125e+01 0.000000e+00
         vertex -6.588125e+01 2.952445e+01 1.270000e+01
      endloop
   endfacet
   facet normal 7.071079e-01 -7.071056e-01 0.000000e+00
      outer loop
         vertex -6.588125e+01 2.952445e+01 1.270000e+01
         vertex -6.762444e+01 2.778125e+01 0.000000e+00
         vertex -6.588125e+01 2.952445e+01 0.000000e+00
      endloop
   endfacet
   facet normal 2.588193e-01 -9.659258e-01 0.000000e+00
      outer loop
         vertex -6.588125e+01 2.952445e+01 1.270000e+01
         vertex -6.588125e+01 2.952445e+01 0.000000e+00
         vertex -6.350000e+01 3.016250e+01 1.270000e+01
      endloop
   endfacet
   facet normal 2.588193e-01 -9.659258e-01 0.000000e+00
      outer loop
         vertex -6.350000e+01 3.016250e+01 1.270000e+01
         vertex -6.588125e+01 2.952445e+01 0.000000e+00
         vertex -6.350000e+01 3.016250e+01 0.000000e+00
      endloop
   endfacet
   facet normal -2.588193e-01 -9.659258e-01 -0.000000e+00
      outer loop
         vertex -6.350000e+01 3.016250e+01 1.270000e+01
         vertex -6.350000e+01 3.016250e+01 0.000000e+00
         vertex -6.111875e+01 2.952445e+01 1.270000e+01
      endloop
   endfacet
   facet normal -2.588193e-01 -9.659258e-01 -0.000000e+00
      outer loop
         vertex -6.111875e+01 2.952445e+01 1.270000e+01
         vertex -6.350000e+01 3.016250e+01 0.000000e+00
         vertex -6.111875e+01 2.952445e+01 0.000000e+00
      endloop
   endfacet
   facet normal -7.071064e-01 -7.071072e-01 -0.000000e+00
      outer loop
         vertex -6.111875e+01 2.952445e+01 1.270000e+01
         vertex -6.111875e+01 2.952445e+01 0.000000e+00
         vertex -5.937555e+01 2.778125e+01 1.270000e+01
      endloop
   endfacet
   facet normal -7.071064e-01 -7.071072e-01 -0.000000e+00
      outer loop
         vertex -5.937555e+01 2.778125e+01 1.270000e+01
         vertex -6.111875e+01 2.952445e+01 0.000000e+00
         vertex -5.937555e+01 2.778125e+01 0.000000e+00
      endloop
   endfacet
   facet normal -9.659260e-01 -2.588186e-01 -0.000000e+00
      outer loop
         vertex -5.937555e+01 2.778125e+01 1.270000e+01
         vertex -5.937555e+01 2.778125e+01 0.000000e+00
         vertex -5.873750e+01 2.540000e+01 1.270000e+01
      endloop
   endfacet
   facet normal -9.659260e-01 -2.588186e-01 -0.000000e+00
      outer loop
         vertex -5.873750e+01 2.540000e+01 1.270000e+01
         vertex -5.937555e+01 2.778125e+01 0.000000e+00
         vertex -5.873750e+01 2.540000e+01 0.000000e+00
      endloop
   endfacet
   facet normal -9.659260e-01 2.588186e-01 0.000000e+00
      outer loop
         vertex -5.873750e+01 2.540000e+01 1.270000e+01
         vertex -5.873750e+01 2.540000e+01 0.000000e+00
         vertex -5.937555e+01 2.301875e+01 1.270000e+01
      endloop
   endfacet
   facet normal -9.659260e-01 2.588186e-01 0.000000e+00
      outer loop
         vertex -5.937555e+01 2.301875e+01 1.270000e+01
         vertex -5.873750e+01 2.540000e+01 0.000000e+00
         vertex -5.937555e+01 2.301875e+01 0.000000e+00
      endloop
   endfacet
   facet normal -7.071064e-01 7.071072e-01 0.000000e+00
      outer loop
         vertex -5.937555e+01 2.301875e+01 1.270000e+01
         vertex -5.937555e+01 2.301875e+01 0.000000e+00
         vertex -6.111875e+01 2.127555e+01 1.270000e+01
      endloop
   endfacet
   facet normal -7.071064e-01 7.071072e-01 0.000000e+00
      outer loop
         vertex -6.111875e+01 2.127555e+01 1.270000e+01
         vertex -5.937555e+01 2.301875e+01 0.000000e+00
         vertex -6.111875e+01 2.127555e+01 0.000000e+00
      endloop
   endfacet
   facet normal -2.588193e-01 9.659258e-01 0.000000e+00
      outer loop
         vertex -6.111875e+01 2.127555e+01 1.270000e+01
         vertex -6.111875e+01 2.127555e+01 0.000000e+00
         vertex -6.350000e+01 2.063750e+01 1.270000e+01
      endloop
   endfacet
   facet normal -2.588193e-01 9.659258e-01 0.000000e+00
      outer loop
         vertex -6.350000e+01 2.063750e+01 1.270000e+01
         vertex -6.111875e+01 2.127555e+01 0.000000e+00
         vertex -6.350000e+01 2.063750e+01 0.000000e+00
      endloop
   endfacet
   facet normal 2.588193e-01 9.659258e-01 0.000000e+00
      outer loop
         vertex -6.350000e+01 2.063750e+01 1.270000e+01
         vertex -6.350000e+01 2.063750e+01 0.000000e+00
         vertex -6.588125e+01 2.127555e+01 1.270000e+01
      endloop
   endfacet
   facet normal 2.588193e-01 9.659258e-01 0.000000e+00
      outer loop
         vertex -6.588125e+01 2.127555e+01 1.270000e+01
         vertex -6.350000e+01 2.063750e+01 0.000000e+00
         vertex -6.588125e+01 2.127555e+01 0.000000e+00
      endloop
   endfacet
   facet normal 7.071079e-01 7.071056e-01 0.000000e+00
      outer loop
         vertex -6.588125e+01 2.127555e+01 1.270000e+01
         vertex -6.588125e+01 2.127555e+01 0.000000e+00
         vertex -6.762444e+01 2.301875e+01 1.270000e+01
      endloop
   endfacet
   facet normal 7.071079e-01 7.071056e-01 0.000000e+00
      outer loop
         vertex -6.762444e+01 2.301875e+01 1.270000e+01
         vertex -6.588125e+01 2.127555e+01 0.000000e+00
         vertex -6.762444e+01 2.301875e+01 0.000000e+00
      endloop
   endfacet
   facet normal 9.659252e-01 2.588214e-01 0.000000e+00
      outer loop
         vertex -6.762444e+01 2.301875e+01 1.270000e+01
         vertex -6.762444e+01 2.301875e+01 0.000000e+00
         vertex -6.826250e+01 2.540000e+01 1.270000e+01
      endloop
   endfacet
   facet normal 9.659252e-01 2.588214e-01 0.000000e+00
      outer loop
         vertex -6.826250e+01 2.540000e+01 1.270000e+01
         vertex -6.762444e+01 2.301875e+01 0.000000e+00
         vertex -6.826250e+01 2.540000e+01 0.000000e+00
      endloop
   endfacet
   facet normal 0.000000e+00 0.000000e+00 -1.000000e+00
      outer loop
         vertex -6.588125e+01 2.127555e+01 1.270000e+01
         vertex -6.762444e+01 2.301875e+01 1.270000e+01
         vertex -6.350000e+01 2.540000e+01 1.270000e+01
      endloop
   endfacet
   facet normal -0.000000e+00 0.000000e+00 -1.000000e+00
      outer loop
         vertex -6.350000e+01 2.540000e+01 1.270000e+01
         vertex -6.762444e+01 2.301875e+01 1.270000e+01
         vertex -6.826250e+01 2.540000e+01 1.270000e+01
      endloop
   endfacet
   facet normal 0.000000e+00 0.000000e+00 -1.000000e+00
      outer loop
         vertex -6.350000e+01 2.540000e+01 1.270000e+01
         vertex -6.826250e+01 2.540000e+01 1.270000e+01
         vertex -6.762444e+01 2.778125e+01 1.270000e+01
      endloop
   endfacet
   facet normal -0.000000e+00 0.000000e+00 -1.000000e+00
      outer loop
         vertex -5.937555e+01 2.301875e+01 1.270000e+01
         vertex -6.111875e+01 2.127555e+01 1.270000e+01
         vertex -6.350000e+01 2.540000e+01 1.270000e+01
      endloop
   endfacet
   facet normal 0.000000e+00 0.000000e+00 -1.000000e+00
      outer loop
         vertex -6.350000e+01 2.540000e+01 1.270000e+01
         vertex -6.111875e+01 2.127555e+01 1.270000e+01
         vertex -6.350000e+01 2.063750e+01 1.270000e+01
      endloop
   endfacet
   facet normal 0.000000e+00 -0.000000e+00 -1.000000e+00
      outer loop
         vertex -6.350000e+01 2.540000e+01 1.270000e+01
         vertex -6.350000e+01 2.063750e+01 1.270000e+01
         vertex -6.588125e+01 2.127555e+01 1.270000e+01
      endloop
   endfacet
   facet normal 0.000000e+00 -0.000000e+00 -1.000000e+00
      outer loop
         vertex -6.111875e+01 2.952445e+01 1.270000e+01
         vertex -5.937555e+01 2.778125e+01 1.270000e+01
         vertex -6.350000e+01 2.540000e+01 1.270000e+01
      endloop
   endfacet
   facet normal 0.000000e+00 0.000000e+00 -1.000000e+00
      outer loop
         vertex -6.350000e+01 2.540000e+01 1.270000e+01
         vertex -5.937555e+01 2.778125e+01 1.270000e+01
         vertex -5.873750e+01 2.540000e+01 1.270000e+01
      endloop
   endfacet
   facet normal 0.000000e+00 0.000000e+00 -1.000000e+00
      outer loop
         vertex -6.350000e+01 2.540000e+01 1.270000e+01
         vertex -5.873750e+01 2.540000e+01 1.270000e+01
         vertex -5.937555e+01 2.301875e+01 1.270000e+01
      endloop
   endfacet
   facet normal 0.000000e+00 0.000000e+00 -1.000000e+00
      outer loop
         vertex -6.762444e+01 2.778125e+01 1.270000e+01
         vertex -6.588125e+01 2.952445e+01 1.270000e+01
         vertex -6.350000e+01 2.540000e+01 1.270000e+01
      endloop
   endfacet
   facet normal 0.000000e+00 0.000000e+00 -1.000000e+00
      outer loop
         vertex -6.350000e+01 2.540000e+01 1.270000e+01
         vertex -6.588125e+01 2.952445e+01 1.270000e+01
         vertex -6.350000e+01 3.016250e+01 1.270000e+01
      endloop
   endfacet
   facet normal 0.000000e+00 0.000000e+00 -1.000000e+00
      outer loop
         vertex -6.350000e+01 2.540000e+01 1.270000e+01
         vertex -6.350000e+01 3.016250e+01 1.270000e+01
         vertex -6.111875e+01 2.952445e+01 1.270000e+01
      endloop
   endfacet
endsolid