solid Anchor
   facet normal 0.000000e+00 9.226851e-02 9.957342e-01
      outer loop
         vertex 1.614591e+02 4.567528e+01 4.255000e+00
         vertex 1.714591e+02 4.645713e+01 4.182551e+00
         vertex 1.614591e+02 4.645713e+01 4.182551e+00
      endloop
   endfacet
   facet normal -0.000000e+00 2.736621e-01 9.618259e-01
      outer loop
         vertex 1.614591e+02 4.645713e+01 4.182551e+00
         vertex 1.714591e+02 4.645713e+01 4.182551e+00
         vertex 1.714591e+02 4.721237e+01 3.967669e+00
      endloop
   endfacet
   facet normal 0.000000e+00 2.736621e-01 9.618259e-01
      outer loop
         vertex 1.614591e+02 4.645713e+01 4.182551e+00
         vertex 1.714591e+02 4.721237e+01 3.967669e+00
         vertex 1.614591e+02 4.721237e+01 3.967669e+00
      endloop
   endfacet
   facet normal -0.000000e+00 4.457391e-01 8.951629e-01
      outer loop
         vertex 1.614591e+02 4.721237e+01 3.967669e+00
         vertex 1.714591e+02 4.721237e+01 3.967669e+00
         vertex 1.714591e+02 4.791525e+01 3.617674e+00
      endloop
   endfacet
   facet normal 0.000000e+00 4.457391e-01 8.951629e-01
      outer loop
         vertex 1.614591e+02 4.721237e+01 3.967669e+00
         vertex 1.714591e+02 4.791525e+01 3.617674e+00
         vertex 1.614591e+02 4.791525e+01 3.617674e+00
      endloop
   endfacet
   facet normal -0.000000e+00 6.026354e-01 7.980167e-01
      outer loop
         vertex 1.614591e+02 4.791525e+01 3.617674e+00
         vertex 1.714591e+02 4.791525e+01 3.617674e+00
         vertex 1.714591e+02 4.854186e+01 3.144483e+00
      endloop
   endfacet
   facet normal 0.000000e+00 6.026354e-01 7.980167e-01
      outer loop
         vertex 1.614591e+02 4.791525e+01 3.617674e+00
         vertex 1.714591e+02 4.854186e+01 3.144483e+00
         vertex 1.614591e+02 4.854186e+01 3.144483e+00
      endloop
   endfacet
   facet normal -0.000000e+00 7.390070e-01 6.736978e-01
      outer loop
         vertex 1.614591e+02 4.854186e+01 3.144483e+00
         vertex 1.714591e+02 4.854186e+01 3.144483e+00
         vertex 1.714591e+02 4.907085e+01 2.564210e+00
      endloop
   endfacet
   facet normal 0.000000e+00 7.390070e-01 6.736978e-01
      outer loop
         vertex 1.614591e+02 4.854186e+01 3.144483e+00
         vertex 1.714591e+02 4.907085e+01 2.564210e+00
         vertex 1.614591e+02 4.907085e+01 2.564210e+00
      endloop
   endfacet
   facet normal -0.000000e+00 8.502183e-01 5.264302e-01
      outer loop
         vertex 1.614591e+02 4.907085e+01 2.564210e+00
         vertex 1.714591e+02 4.907085e+01 2.564210e+00
         vertex 1.714591e+02 4.948420e+01 1.896617e+00
      endloop
   endfacet
   facet normal 0.000000e+00 8.502183e-01 5.264302e-01
      outer loop
         vertex 1.614591e+02 4.907085e+01 2.564210e+00
         vertex 1.714591e+02 4.948420e+01 1.896617e+00
         vertex 1.614591e+02 4.948420e+01 1.896617e+00
      endloop
   endfacet
   facet normal -0.000000e+00 9.324726e-01 3.612406e-01
      outer loop
         vertex 1.614591e+02 4.948420e+01 1.896617e+00
         vertex 1.714591e+02 4.948420e+01 1.896617e+00
         vertex 1.714591e+02 4.976785e+01 1.164436e+00
      endloop
   endfacet
   facet normal 0.000000e+00 9.324726e-01 3.612406e-01
      outer loop
         vertex 1.614591e+02 4.948420e+01 1.896617e+00
         vertex 1.714591e+02 4.976785e+01 1.164436e+00
         vertex 1.614591e+02 4.976785e+01 1.164436e+00
      endloop
   endfacet
   facet normal -0.000000e+00 9.829732e-01 1.837491e-01
      outer loop
         vertex 1.614591e+02 4.976785e+01 1.164436e+00
         vertex 1.714591e+02 4.976785e+01 1.164436e+00
         vertex 1.714591e+02 4.991213e+01 3.926019e-01
      endloop
   endfacet
   facet normal 0.000000e+00 9.829732e-01 1.837491e-01
      outer loop
         vertex 1.614591e+02 4.976785e+01 1.164436e+00
         vertex 1.714591e+02 4.991213e+01 3.926019e-01
         vertex 1.614591e+02 4.991213e+01 3.926019e-01
      endloop
   endfacet
   facet normal -0.000000e+00 1.000000e+00 0.000000e+00
      outer loop
         vertex 1.614591e+02 4.991213e+01 3.926019e-01
         vertex 1.714591e+02 4.991213e+01 3.926019e-01
         vertex 1.714591e+02 4.991213e+01 -3.926019e-01
      endloop
   endfacet
   facet normal 0.000000e+00 1.000000e+00 0.000000e+00
      outer loop
         vertex 1.614591e+02 4.991213e+01 3.926019e-01
         vertex 1.714591e+02 4.991213e+01 -3.926019e-01
         vertex 1.614591e+02 4.991213e+01 -3.926019e-01
      endloop
   endfacet
   facet normal 0.000000e+00 9.829732e-01 -1.837491e-01
      outer loop
         vertex 1.614591e+02 4.991213e+01 -3.926019e-01
         vertex 1.714591e+02 4.991213e+01 -3.926019e-01
         vertex 1.714591e+02 4.976785e+01 -1.164436e+00
      endloop
   endfacet
   facet normal 0.000000e+00 9.829732e-01 -1.837491e-01
      outer loop
         vertex 1.614591e+02 4.991213e+01 -3.926019e-01
         vertex 1.714591e+02 4.976785e+01 -1.164436e+00
         vertex 1.614591e+02 4.976785e+01 -1.164436e+00
      endloop
   endfacet
   facet normal 0.000000e+00 9.324726e-01 -3.612406e-01
      outer loop
         vertex 1.614591e+02 4.976785e+01 -1.164436e+00
         vertex 1.714591e+02 4.976785e+01 -1.164436e+00
         vertex 1.714591e+02 4.948420e+01 -1.896617e+00
      endloop
   endfacet
   facet normal 0.000000e+00 9.324726e-01 -3.612406e-01
      outer loop
         vertex 1.614591e+02 4.976785e+01 -1.164436e+00
         vertex 1.714591e+02 4.948420e+01 -1.896617e+00
         vertex 1.614591e+02 4.948420e+01 -1.896617e+00
      endloop
   endfacet
   facet normal 0.000000e+00 8.502183e-01 -5.264302e-01
      outer loop
         vertex 1.614591e+02 4.948420e+01 -1.896617e+00
         vertex 1.714591e+02 4.948420e+01 -1.896617e+00
         vertex 1.714591e+02 4.907085e+01 -2.564210e+00
      endloop
   endfacet
   facet normal 0.000000e+00 8.502183e-01 -5.264302e-01
      outer loop
         vertex 1.614591e+02 4.948420e+01 -1.896617e+00
         vertex 1.714591e+02 4.907085e+01 -2.564210e+00
         vertex 1.614591e+02 4.907085e+01 -2.564210e+00
      endloop
   endfacet
   facet normal 0.000000e+00 7.390070e-01 -6.736978e-01
      outer loop
         vertex 1.614591e+02 4.907085e+01 -2.564210e+00
         vertex 1.714591e+02 4.907085e+01 -2.564210e+00
         vertex 1.714591e+02 4.854186e+01 -3.144483e+00
      endloop
   endfacet
   facet normal 0.000000e+00 7.390070e-01 -6.736978e-01
      outer loop
         vertex 1.614591e+02 4.907085e+01 -2.564210e+00
         vertex 1.714591e+02 4.854186e+01 -3.144483e+00
         vertex 1.614591e+02 4.854186e+01 -3.144483e+00
      endloop
   endfacet
   facet normal 0.000000e+00 6.026354e-01 -7.980167e-01
      outer loop
         vertex 1.614591e+02 4.854186e+01 -3.144483e+00
         vertex 1.714591e+02 4.854186e+01 -3.144483e+00
         vertex 1.714591e+02 4.791525e+01 -3.617674e+00
      endloop
   endfacet
   facet normal 0.000000e+00 6.026354e-01 -7.980167e-01
      outer loop
         vertex 1.614591e+02 4.854186e+01 -3.144483e+00
         vertex 1.714591e+02 4.791525e+01 -3.617674e+00
         vertex 1.614591e+02 4.791525e+01 -3.617674e+00
      endloop
   endfacet
   facet normal 0.000000e+00 4.457391e-01 -8.951629e-01
      outer loop
         vertex 1.614591e+02 4.791525e+01 -3.617674e+00
         vertex 1.714591e+02 4.791525e+01 -3.617674e+00
         vertex 1.714591e+02 4.721237e+01 -3.967669e+00
      endloop
   endfacet
   facet normal 0.000000e+00 4.457391e-01 -8.951629e-01
      outer loop
         vertex 1.614591e+02 4.791525e+01 -3.617674e+00
         vertex 1.714591e+02 4.721237e+01 -3.967669e+00
         vertex 1.614591e+02 4.721237e+01 -3.967669e+00
      endloop
   endfacet
   facet normal 0.000000e+00 2.736621e-01 -9.618259e-01
      outer loop
         vertex 1.614591e+02 4.721237e+01 -3.967669e+00
         vertex 1.714591e+02 4.721237e+01 -3.967669e+00
         vertex 1.714591e+02 4.645713e+01 -4.182551e+00
      endloop
   endfacet
   facet normal 0.000000e+00 2.736621e-01 -9.618259e-01
      outer loop
         vertex 1.614591e+02 4.721237e+01 -3.967669e+00
         vertex 1.714591e+02 4.645713e+01 -4.182551e+00
         vertex 1.614591e+02 4.645713e+01 -4.182551e+00
      endloop
   endfacet
   facet normal 0.000000e+00 9.226851e-02 -9.957342e-01
      outer loop
         vertex 1.614591e+02 4.645713e+01 -4.182551e+00
         vertex 1.714591e+02 4.645713e+01 -4.182551e+00
         vertex 1.714591e+02 4.567528e+01 -4.255000e+00
      endloop
   endfacet
   facet normal 0.000000e+00 9.226851e-02 -9.957342e-01
      outer loop
         vertex 1.614591e+02 4.645713e+01 -4.182551e+00
         vertex 1.714591e+02 4.567528e+01 -4.255000e+00
         vertex 1.614591e+02 4.567528e+01 -4.255000e+00
      endloop
   endfacet
   facet normal 0.000000e+00 -9.226851e-02 -9.957342e-01
      outer loop
         vertex 1.614591e+02 4.567528e+01 -4.255000e+00
         vertex 1.714591e+02 4.567528e+01 -4.255000e+00
         vertex 1.714591e+02 4.489343e+01 -4.182551e+00
      endloop
   endfacet
   facet normal 0.000000e+00 -9.226851e-02 -9.957342e-01
      outer loop
         vertex 1.614591e+02 4.567528e+01 -4.255000e+00
         vertex 1.714591e+02 4.489343e+01 -4.182551e+00
         vertex 1.614591e+02 4.489343e+01 -4.182551e+00
      endloop
   endfacet
   facet normal 0.000000e+00 -2.736621e-01 -9.618259e-01
      outer loop
         vertex 1.614591e+02 4.489343e+01 -4.182551e+00
         vertex 1.714591e+02 4.489343e+01 -4.182551e+00
         vertex 1.714591e+02 4.413820e+01 -3.967669e+00
      endloop
   endfacet
   facet normal 0.000000e+00 -2.736621e-01 -9.618259e-01
      outer loop
         vertex 1.614591e+02 4.489343e+01 -4.182551e+00
         vertex 1.714591e+02 4.413820e+01 -3.967669e+00
         vertex 1.614591e+02 4.413820e+01 -3.967669e+00
      endloop
   endfacet
   facet normal 0.000000e+00 -4.457391e-01 -8.951629e-01
      outer loop
         vertex 1.614591e+02 4.413820e+01 -3.967669e+00
         vertex 1.714591e+02 4.413820e+01 -3.967669e+00
         vertex 1.714591e+02 4.343531e+01 -3.617674e+00
      endloop
   endfacet
   facet normal 0.000000e+00 -4.457391e-01 -8.951629e-01
      outer loop
         vertex 1.614591e+02 4.413820e+01 -3.967669e+00
         vertex 1.714591e+02 4.343531e+01 -3.617674e+00
         vertex 1.614591e+02 4.343531e+01 -3.617674e+00
      endloop
   endfacet
   facet normal 0.000000e+00 -6.026354e-01 -7.980167e-01
      outer loop
         vertex 1.614591e+02 4.343531e+01 -3.617674e+00
         vertex 1.714591e+02 4.343531e+01 -3.617674e+00
         vertex 1.714591e+02 4.280871e+01 -3.144483e+00
      endloop
   endfacet
   facet normal 0.000000e+00 -6.026354e-01 -7.980167e-01
      outer loop
         vertex 1.614591e+02 4.343531e+01 -3.617674e+00
         vertex 1.714591e+02 4.280871e+01 -3.144483e+00
         vertex 1.614591e+02 4.280871e+01 -3.144483e+00
      endloop
   endfacet
   facet normal 0.000000e+00 -7.390070e-01 -6.736978e-01
      outer loop
         vertex 1.614591e+02 4.280871e+01 -3.144483e+00
         vertex 1.714591e+02 4.280871e+01 -3.144483e+00
         vertex 1.714591e+02 4.227972e+01 -2.564210e+00
      endloop
   endfacet
   facet normal 0.000000e+00 -7.390070e-01 -6.736978e-01
      outer loop
         vertex 1.614591e+02 4.280871e+01 -3.144483e+00
         vertex 1.714591e+02 4.227972e+01 -2.564210e+00
         vertex 1.614591e+02 4.227972e+01 -2.564210e+00
      endloop
   endfacet
   facet normal 0.000000e+00 -8.502183e-01 -5.264302e-01
      outer loop
         vertex 1.614591e+02 4.227972e+01 -2.564210e+00
         vertex 1.714591e+02 4.227972e+01 -2.564210e+00
         vertex 1.714591e+02 4.186636e+01 -1.896617e+00
      endloop
   endfacet
   facet normal 0.000000e+00 -8.502183e-01 -5.264302e-01
      outer loop
         vertex 1.614591e+02 4.227972e+01 -2.564210e+00
         vertex 1.714591e+02 4.186636e+01 -1.896617e+00
         vertex 1.614591e+02 4.186636e+01 -1.896617e+00
      endloop
   endfacet
   facet normal 0.000000e+00 -9.324726e-01 -3.612406e-01
      outer loop
         vertex 1.614591e+02 4.186636e+01 -1.896617e+00
         vertex 1.714591e+02 4.186636e+01 -1.896617e+00
         vertex 1.714591e+02 4.158271e+01 -1.164436e+00
      endloop
   endfacet
   facet normal 0.000000e+00 -9.324726e-01 -3.612406e-01
      outer loop
         vertex 1.614591e+02 4.186636e+01 -1.896617e+00
         vertex 1.714591e+02 4.158271e+01 -1.164436e+00
         vertex 1.614591e+02 4.158271e+01 -1.164436e+00
      endloop
   endfacet
   facet normal 0.000000e+00 -9.829723e-01 -1.837537e-01
      outer loop
         vertex 1.614591e+02 4.158271e+01 -1.164436e+00
         vertex 1.714591e+02 4.158271e+01 -1.164436e+00
         vertex 1.714591e+02 4.143843e+01 -3.926019e-01
      endloop
   endfacet
   facet normal 0.000000e+00 -9.829723e-01 -1.837537e-01
      outer loop
         vertex 1.614591e+02 4.158271e+01 -1.164436e+00
         vertex 1.714591e+02 4.143843e+01 -3.926019e-01
         vertex 1.614591e+02 4.143843e+01 -3.926019e-01
      endloop
   endfacet
   facet normal 0.000000e+00 -1.000000e+00 0.000000e+00
      outer loop
         vertex 1.614591e+02 4.143843e+01 -3.926019e-01
         vertex 1.714591e+02 4.143843e+01 -3.926019e-01
         vertex 1.714591e+02 4.143843e+01 3.926019e-01
      endloop
   endfacet
   facet normal 0.000000e+00 -1.000000e+00 0.000000e+00
      outer loop
         vertex 1.614591e+02 4.143843e+01 -3.926019e-01
         vertex 1.714591e+02 4.143843e+01 3.926019e-01
         vertex 1.614591e+02 4.143843e+01 3.926019e-01
      endloop
   endfacet
   facet normal 0.000000e+00 -9.829723e-01 1.837537e-01
      outer loop
         vertex 1.614591e+02 4.143843e+01 3.926019e-01
         vertex 1.714591e+02 4.143843e+01 3.926019e-01
         vertex 1.714591e+02 4.158271e+01 1.164436e+00
      endloop
   endfacet
   facet normal 0.000000e+00 -9.829723e-01 1.837537e-01
      outer loop
         vertex 1.614591e+02 4.143843e+01 3.926019e-01
         vertex 1.714591e+02 4.158271e+01 1.164436e+00
         vertex 1.614591e+02 4.158271e+01 1.164436e+00
      endloop
   endfacet
   facet normal 0.000000e+00 -9.324726e-01 3.612406e-01
      outer loop
         vertex 1.614591e+02 4.158271e+01 1.164436e+00
         vertex 1.714591e+02 4.158271e+01 1.164436e+00
         vertex 1.714591e+02 4.186636e+01 1.896617e+00
      endloop
   endfacet
   facet normal 0.000000e+00 -9.324726e-01 3.612406e-01
      outer loop
         vertex 1.614591e+02 4.158271e+01 1.164436e+00
         vertex 1.714591e+02 4.186636e+01 1.896617e+00
         vertex 1.614591e+02 4.186636e+01 1.896617e+00
      endloop
   endfacet
   facet normal 0.000000e+00 -8.502183e-01 5.264302e-01
      outer loop
         vertex 1.614591e+02 4.186636e+01 1.896617e+00
         vertex 1.714591e+02 4.186636e+01 1.896617e+00
         vertex 1.714591e+02 4.227972e+01 2.564210e+00
      endloop
   endfacet
   facet normal 0.000000e+00 -8.502183e-01 5.264302e-01
      outer loop
         vertex 1.614591e+02 4.186636e+01 1.896617e+00
         vertex 1.714591e+02 4.227972e+01 2.564210e+00
         vertex 1.614591e+02 4.227972e+01 2.564210e+00
      endloop
   endfacet
   facet normal 0.000000e+00 -7.390070e-01 6.736978e-01
      outer loop
         vertex 1.614591e+02 4.227972e+01 2.564210e+00
         vertex 1.714591e+02 4.227972e+01 2.564210e+00
         vertex 1.714591e+02 4.280871e+01 3.144483e+00
      endloop
   endfacet
   facet normal 0.000000e+00 -7.390070e-01 6.736978e-01
      outer loop
         vertex 1.614591e+02 4.227972e+01 2.564210e+00
         vertex 1.714591e+02 4.280871e+01 3.144483e+00
         vertex 1.614591e+02 4.280871e+01 3.144483e+00
      endloop
   endfacet
   facet normal 0.000000e+00 -6.026354e-01 7.980167e-01
      outer loop
         vertex 1.614591e+02 4.280871e+01 3.144483e+00
         vertex 1.714591e+02 4.280871e+01 3.144483e+00
         vertex 1.714591e+02 4.343531e+01 3.617674e+00
      endloop
   endfacet
   facet normal 0.000000e+00 -6.026354e-01 7.980167e-01
      outer loop
         vertex 1.614591e+02 4.280871e+01 3.144483e+00
         vertex 1.714591e+02 4.343531e+01 3.617674e+00
         vertex 1.614591e+02 4.343531e+01 3.617674e+00
      endloop
   endfacet
   facet normal 0.000000e+00 -4.457391e-01 8.951629e-01
      outer loop
         vertex 1.614591e+02 4.343531e+01 3.617674e+00
         vertex 1.714591e+02 4.343531e+01 3.617674e+00
         vertex 1.714591e+02 4.413820e+01 3.967669e+00
      endloop
   endfacet
   facet normal 0.000000e+00 -4.457391e-01 8.951629e-01
      outer loop
         vertex 1.614591e+02 4.343531e+01 3.617674e+00
         vertex 1.714591e+02 4.413820e+01 3.967669e+00
         vertex 1.614591e+02 4.413820e+01 3.967669e+00
      endloop
   endfacet
   facet normal 0.000000e+00 -2.736621e-01 9.618259e-01
      outer loop
         vertex 1.614591e+02 4.413820e+01 3.967669e+00
         vertex 1.714591e+02 4.413820e+01 3.967669e+00
         vertex 1.714591e+02 4.489343e+01 4.182551e+00
      endloop
   endfacet
   facet normal 0.000000e+00 -2.736621e-01 9.618259e-01
      outer loop
         vertex 1.614591e+02 4.413820e+01 3.967669e+00
         vertex 1.714591e+02 4.489343e+01 4.182551e+00
         vertex 1.614591e+02 4.489343e+01 4.182551e+00
      endloop
   endfacet
   facet normal 0.000000e+00 -9.226851e-02 9.957342e-01
      outer loop
         vertex 1.614591e+02 4.489343e+01 4.182551e+00
         vertex 1.714591e+02 4.489343e+01 4.182551e+00
         vertex 1.714591e+02 4.567528e+01 4.255000e+00
      endloop
   endfacet
   facet normal 0.000000e+00 -9.226851e-02 9.957342e-01
      outer loop
         vertex 1.614591e+02 4.489343e+01 4.182551e+00
         vertex 1.714591e+02 4.567528e+01 4.255000e+00
         vertex 1.614591e+02 4.567528e+01 4.255000e+00
      endloop
   endfacet
   facet normal -0.000000e+00 9.226851e-02 9.957342e-01
      outer loop
         vertex 1.614591e+02 4.567528e+01 4.255000e+00
         vertex 1.714591e+02 4.567528e+01 4.255000e+00
         vertex 1.714591e+02 4.645713e+01 4.182551e+00
      endloop
   endfacet
   facet normal 1.000000e+00 0.000000e+00 0.000000e+00
      outer loop
         vertex 1.714591e+02 4.567528e+01 -4.255000e+00
         vertex 1.714591e+02 4.645713e+01 -4.182551e+00
         vertex 1.714591e+02 4.567528e+01 -1.974193e-13
      endloop
   endfacet
   facet normal 1.000000e+00 -0.000000e+00 0.000000e+00
      outer loop
         vertex 1.714591e+02 4.343531e+01 -3.617674e+00
         vertex 1.714591e+02 4.413820e+01 -3.967669e+00
         vertex 1.714591e+02 4.567528e+01 -1.974193e-13
      endloop
   endfacet
   facet normal 1.000000e+00 0.000000e+00 0.000000e+00
      outer loop
         vertex 1.714591e+02 4.567528e+01 -1.974193e-13
         vertex 1.714591e+02 4.413820e+01 -3.967669e+00
         vertex 1.714591e+02 4.489343e+01 -4.182551e+00
      endloop
   endfacet
   facet normal 1.000000e+00 0.000000e+00 0.000000e+00
      outer loop
         vertex 1.714591e+02 4.567528e+01 -1.974193e-13
         vertex 1.714591e+02 4.489343e+01 -4.182551e+00
         vertex 1.714591e+02 4.567528e+01 -4.255000e+00
      endloop
   endfacet
   facet normal 1.000000e+00 -0.000000e+00 0.000000e+00
      outer loop
         vertex 1.714591e+02 4.186636e+01 -1.896617e+00
         vertex 1.714591e+02 4.227972e+01 -2.564210e+00
         vertex 1.714591e+02 4.567528e+01 -1.974193e-13
      endloop
   endfacet
   facet normal 1.000000e+00 0.000000e+00 0.000000e+00
      outer loop
         vertex 1.714591e+02 4.567528e+01 -1.974193e-13
         vertex 1.714591e+02 4.227972e+01 -2.564210e+00
         vertex 1.714591e+02 4.280871e+01 -3.144483e+00
      endloop
   endfacet
   facet normal 1.000000e+00 0.000000e+00 0.000000e+00
      outer loop
         vertex 1.714591e+02 4.567528e+01 -1.974193e-13
         vertex 1.714591e+02 4.280871e+01 -3.144483e+00
         vertex 1.714591e+02 4.343531e+01 -3.617674e+00
      endloop
   endfacet
   facet normal 1.000000e+00 0.000000e+00 0.000000e+00
      outer loop
         vertex 1.714591e+02 4.143843e+01 3.926019e-01
         vertex 1.714591e+02 4.143843e+01 -3.926019e-01
         vertex 1.714591e+02 4.567528e+01 -1.974193e-13
      endloop
   endfacet
   facet normal 1.000000e+00 0.000000e+00 0.000000e+00
      outer loop
         vertex 1.714591e+02 4.567528e+01 -1.974193e-13
         vertex 1.714591e+02 4.143843e+01 -3.926019e-01
         vertex 1.714591e+02 4.158271e+01 -1.164436e+00
      endloop
   endfacet
   facet normal 1.000000e+00 0.000000e+00 0.000000e+00
      outer loop
         vertex 1.714591e+02 4.567528e+01 -1.974193e-13
         vertex 1.714591e+02 4.158271e+01 -1.164436e+00
         vertex 1.714591e+02 4.186636e+01 -1.896617e+00
      endloop
   endfacet
   facet normal 1.000000e+00 0.000000e+00 0.000000e+00
      outer loop
         vertex 1.714591e+02 4.227972e+01 2.564210e+00
         vertex 1.714591e+02 4.186636e+01 1.896617e+00
         vertex 1.714591e+02 4.567528e+01 -1.974193e-13
      endloop
   endfacet
   facet normal 1.000000e+00 0.000000e+00 0.000000e+00
      outer loop
         vertex 1.714591e+02 4.567528e+01 -1.974193e-13
         vertex 1.714591e+02 4.186636e+01 1.896617e+00
         vertex 1.714591e+02 4.158271e+01 1.164436e+00
      endloop
   endfacet
   facet normal 1.000000e+00 0.000000e+00 0.000000e+00
      outer loop
         vertex 1.714591e+02 4.567528e+01 -1.974193e-13
         vertex 1.714591e+02 4.158271e+01 1.164436e+00
         vertex 1.714591e+02 4.143843e+01 3.926019e-01
      endloop
   endfacet
   facet normal 1.000000e+00 0.000000e+00 0.000000e+00
      outer loop
         vertex 1.714591e+02 4.413820e+01 3.967669e+00
         vertex 1.714591e+02 4.343531e+01 3.617674e+00
         vertex 1.714591e+02 4.567528e+01 -1.974193e-13
      endloop
   endfacet
   facet normal 1.000000e+00 0.000000e+00 0.000000e+00
      outer loop
         vertex 1.714591e+02 4.567528e+01 -1.974193e-13
         vertex 1.714591e+02 4.343531e+01 3.617674e+00
         vertex 1.714591e+02 4.280871e+01 3.144483e+00
      endloop
   endfacet
   facet normal 1.000000e+00 0.000000e+00 0.000000e+00
      outer loop
         vertex 1.714591e+02 4.567528e+01 -1.974193e-13
         vertex 1.714591e+02 4.280871e+01 3.144483e+00
         vertex 1.714591e+02 4.227972e+01 2.564210e+00
      endloop
   endfacet
   facet normal 1.000000e+00 0.000000e+00 0.000000e+00
      outer loop
         vertex 1.714591e+02 4.645713e+01 4.182551e+00
         vertex 1.714591e+02 4.567528e+01 4.255000e+00
         vertex 1.714591e+02 4.567528e+01 -1.974193e-13
      endloop
   endfacet
   facet normal 1.000000e+00 0.000000e+00 -0.000000e+00
      outer loop
         vertex 1.714591e+02 4.567528e+01 -1.974193e-13
         vertex 1.714591e+02 4.567528e+01 4.255000e+00
         vertex 1.714591e+02 4.489343e+01 4.182551e+00
      endloop
   endfacet
   facet normal 1.000000e+00 0.000000e+00 0.000000e+00
      outer loop
         vertex 1.714591e+02 4.567528e+01 -1.974193e-13
         vertex 1.714591e+02 4.489343e+01 4.182551e+00
         vertex 1.714591e+02 4.413820e+01 3.967669e+00
      endloop
   endfacet
   facet normal 1.000000e+00 0.000000e+00 0.000000e+00
      outer loop
         vertex 1.714591e+02 4.854186e+01 3.144483e+00
         vertex 1.714591e+02 4.791525e+01 3.617674e+00
         vertex 1.714591e+02 4.567528e+01 -1.974193e-13
      endloop
   endfacet
   facet normal 1.000000e+00 0.000000e+00 0.000000e+00
      outer loop
         vertex 1.714591e+02 4.567528e+01 -1.974193e-13
         vertex 1.714591e+02 4.791525e+01 3.617674e+00
         vertex 1.714591e+02 4.721237e+01 3.967669e+00
      endloop
   endfacet
   facet normal 1.000000e+00 0.000000e+00 0.000000e+00
      outer loop
         vertex 1.714591e+02 4.567528e+01 -1.974193e-13
         vertex 1.714591e+02 4.721237e+01 3.967669e+00
         vertex 1.714591e+02 4.645713e+01 4.182551e+00
      endloop
   endfacet
   facet normal 1.000000e+00 0.000000e+00 0.000000e+00
      outer loop
         vertex 1.714591e+02 4.976785e+01 1.164436e+00
         vertex 1.714591e+02 4.948420e+01 1.896617e+00
         vertex 1.714591e+02 4.567528e+01 -1.974193e-13
      endloop
   endfacet
   facet normal 1.000000e+00 0.000000e+00 0.000000e+00
      outer loop
         vertex 1.714591e+02 4.567528e+01 -1.974193e-13
         vertex 1.714591e+02 4.948420e+01 1.896617e+00
         vertex 1.714591e+02 4.907085e+01 2.564210e+00
      endloop
   endfacet
   facet normal 1.000000e+00 0.000000e+00 0.000000e+00
      outer loop
         vertex 1.714591e+02 4.567528e+01 -1.974193e-13
         vertex 1.714591e+02 4.907085e+01 2.564210e+00
         vertex 1.714591e+02 4.854186e+01 3.144483e+00
      endloop
   endfacet
   facet normal 1.000000e+00 0.000000e+00 -0.000000e+00
      outer loop
         vertex 1.714591e+02 4.976785e+01 -1.164436e+00
         vertex 1.714591e+02 4.991213e+01 -3.926019e-01
         vertex 1.714591e+02 4.567528e+01 -1.974193e-13
      endloop
   endfacet
   facet normal 1.000000e+00 -0.000000e+00 0.000000e+00
      outer loop
         vertex 1.714591e+02 4.567528e+01 -1.974193e-13
         vertex 1.714591e+02 4.991213e+01 -3.926019e-01
         vertex 1.714591e+02 4.991213e+01 3.926019e-01
      endloop
   endfacet
   facet normal 1.000000e+00 0.000000e+00 0.000000e+00
      outer loop
         vertex 1.714591e+02 4.567528e+01 -1.974193e-13
         vertex 1.714591e+02 4.991213e+01 3.926019e-01
         vertex 1.714591e+02 4.976785e+01 1.164436e+00
      endloop
   endfacet
   facet normal 1.000000e+00 0.000000e+00 -0.000000e+00
      outer loop
         vertex 1.714591e+02 4.854186e+01 -3.144483e+00
         vertex 1.714591e+02 4.907085e+01 -2.564210e+00
         vertex 1.714591e+02 4.567528e+01 -1.974193e-13
      endloop
   endfacet
   facet normal 1.000000e+00 0.000000e+00 0.000000e+00
      outer loop
         vertex 1.714591e+02 4.567528e+01 -1.974193e-13
         vertex 1.714591e+02 4.907085e+01 -2.564210e+00
         vertex 1.714591e+02 4.948420e+01 -1.896617e+00
      endloop
   endfacet
   facet normal 1.000000e+00 0.000000e+00 0.000000e+00
      outer loop
         vertex 1.714591e+02 4.567528e+01 -1.974193e-13
         vertex 1.714591e+02 4.948420e+01 -1.896617e+00
         vertex 1.714591e+02 4.976785e+01 -1.164436e+00
      endloop
   endfacet
   facet normal 1.000000e+00 0.000000e+00 -0.000000e+00
      outer loop
         vertex 1.714591e+02 4.645713e+01 -4.182551e+00
         vertex 1.714591e+02 4.721237e+01 -3.967669e+00
         vertex 1.714591e+02 4.567528e+01 -1.974193e-13
      endloop
   endfacet
   facet normal 1.000000e+00 0.000000e+00 0.000000e+00
      outer loop
         vertex 1.714591e+02 4.567528e+01 -1.974193e-13
         vertex 1.714591e+02 4.721237e+01 -3.967669e+00
         vertex 1.714591e+02 4.791525e+01 -3.617674e+00
      endloop
   endfacet
   facet normal 1.000000e+00 0.000000e+00 0.000000e+00
      outer loop
         vertex 1.714591e+02 4.567528e+01 -1.974193e-13
         vertex 1.714591e+02 4.791525e+01 -3.617674e+00
         vertex 1.714591e+02 4.854186e+01 -3.144483e+00
      endloop
   endfacet
   facet normal -1.000000e+00 0.000000e+00 0.000000e+00
      outer loop
         vertex 1.614591e+02 4.567528e+01 -4.255000e+00
         vertex 1.614591e+02 4.489343e+01 -4.182551e+00
         vertex 1.614591e+02 4.567528e+01 -1.734723e-15
      endloop
   endfacet
   facet normal -1.000000e+00 -0.000000e+00 0.000000e+00
      outer loop
         vertex 1.614591e+02 4.791525e+01 -3.617674e+00
         vertex 1.614591e+02 4.721237e+01 -3.967669e+00
         vertex 1.614591e+02 4.567528e+01 -1.734723e-15
      endloop
   endfacet
   facet normal -1.000000e+00 0.000000e+00 0.000000e+00
      outer loop
         vertex 1.614591e+02 4.567528e+01 -1.734723e-15
         vertex 1.614591e+02 4.721237e+01 -3.967669e+00
         vertex 1.614591e+02 4.645713e+01 -4.182551e+00
      endloop
   endfacet
   facet normal -1.000000e+00 0.000000e+00 0.000000e+00
      outer loop
         vertex 1.614591e+02 4.567528e+01 -1.734723e-15
         vertex 1.614591e+02 4.645713e+01 -4.182551e+00
         vertex 1.614591e+02 4.567528e+01 -4.255000e+00
      endloop
   endfacet
   facet normal -1.000000e+00 -0.000000e+00 0.000000e+00
      outer loop
         vertex 1.614591e+02 4.948420e+01 -1.896617e+00
         vertex 1.614591e+02 4.907085e+01 -2.564210e+00
         vertex 1.614591e+02 4.567528e+01 -1.734723e-15
      endloop
   endfacet
   facet normal -1.000000e+00 0.000000e+00 0.000000e+00
      outer loop
         vertex 1.614591e+02 4.567528e+01 -1.734723e-15
         vertex 1.614591e+02 4.907085e+01 -2.564210e+00
         vertex 1.614591e+02 4.854186e+01 -3.144483e+00
      endloop
   endfacet
   facet normal -1.000000e+00 0.000000e+00 0.000000e+00
      outer loop
         vertex 1.614591e+02 4.567528e+01 -1.734723e-15
         vertex 1.614591e+02 4.854186e+01 -3.144483e+00
         vertex 1.614591e+02 4.791525e+01 -3.617674e+00
      endloop
   endfacet
   facet normal -1.000000e+00 0.000000e+00 -0.000000e+00
      outer loop
         vertex 1.614591e+02 4.991213e+01 3.926019e-01
         vertex 1.614591e+02 4.991213e+01 -3.926019e-01
         vertex 1.614591e+02 4.567528e+01 -1.734723e-15
      endloop
   endfacet
   facet normal -1.000000e+00 0.000000e+00 0.000000e+00
      outer loop
         vertex 1.614591e+02 4.567528e+01 -1.734723e-15
         vertex 1.614591e+02 4.991213e+01 -3.926019e-01
         vertex 1.614591e+02 4.976785e+01 -1.164436e+00
      endloop
   endfacet
   facet normal -1.000000e+00 0.000000e+00 0.000000e+00
      outer loop
         vertex 1.614591e+02 4.567528e+01 -1.734723e-15
         vertex 1.614591e+02 4.976785e+01 -1.164436e+00
         vertex 1.614591e+02 4.948420e+01 -1.896617e+00
      endloop
   endfacet
   facet normal -1.000000e+00 0.000000e+00 -0.000000e+00
      outer loop
         vertex 1.614591e+02 4.907085e+01 2.564210e+00
         vertex 1.614591e+02 4.948420e+01 1.896617e+00
         vertex 1.614591e+02 4.567528e+01 -1.734723e-15
      endloop
   endfacet
   facet normal -1.000000e+00 0.000000e+00 0.000000e+00
      outer loop
         vertex 1.614591e+02 4.567528e+01 -1.734723e-15
         vertex 1.614591e+02 4.948420e+01 1.896617e+00
         vertex 1.614591e+02 4.976785e+01 1.164436e+00
      endloop
   endfacet
   facet normal -1.000000e+00 0.000000e+00 0.000000e+00
      outer loop
         vertex 1.614591e+02 4.567528e+01 -1.734723e-15
         vertex 1.614591e+02 4.976785e+01 1.164436e+00
         vertex 1.614591e+02 4.991213e+01 3.926019e-01
      endloop
   endfacet
   facet normal -1.000000e+00 0.000000e+00 -0.000000e+00
      outer loop
         vertex 1.614591e+02 4.721237e+01 3.967669e+00
         vertex 1.614591e+02 4.791525e+01 3.617674e+00
         vertex 1.614591e+02 4.567528e+01 -1.734723e-15
      endloop
   endfacet
   facet normal -1.000000e+00 0.000000e+00 0.000000e+00
      outer loop
         vertex 1.614591e+02 4.567528e+01 -1.734723e-15
         vertex 1.614591e+02 4.791525e+01 3.617674e+00
         vertex 1.614591e+02 4.854186e+01 3.144483e+00
      endloop
   endfacet
   facet normal -1.000000e+00 0.000000e+00 0.000000e+00
      outer loop
         vertex 1.614591e+02 4.567528e+01 -1.734723e-15
         vertex 1.614591e+02 4.854186e+01 3.144483e+00
         vertex 1.614591e+02 4.907085e+01 2.564210e+00
      endloop
   endfacet
   facet normal -1.000000e+00 0.000000e+00 0.000000e+00
      outer loop
         vertex 1.614591e+02 4.489343e+01 4.182551e+00
         vertex 1.614591e+02 4.567528e+01 4.255000e+00
         vertex 1.614591e+02 4.567528e+01 -1.734723e-15
      endloop
   endfacet
   facet normal -1.000000e+00 0.000000e+00 0.000000e+00
      outer loop
         vertex 1.614591e+02 4.567528e+01 -1.734723e-15
         vertex 1.614591e+02 4.567528e+01 4.255000e+00
         vertex 1.614591e+02 4.645713e+01 4.182551e+00
      endloop
   endfacet
   facet normal -1.000000e+00 0.000000e+00 0.000000e+00
      outer loop
         vertex 1.614591e+02 4.567528e+01 -1.734723e-15
         vertex 1.614591e+02 4.645713e+01 4.182551e+00
         vertex 1.614591e+02 4.721237e+01 3.967669e+00
      endloop
   endfacet
   facet normal -1.000000e+00 0.000000e+00 0.000000e+00
      outer loop
         vertex 1.614591e+02 4.280871e+01 3.144483e+00
         vertex 1.614591e+02 4.343531e+01 3.617674e+00
         vertex 1.614591e+02 4.567528e+01 -1.734723e-15
      endloop
   endfacet
   facet normal -1.000000e+00 0.000000e+00 0.000000e+00
      outer loop
         vertex 1.614591e+02 4.567528e+01 -1.734723e-15
         vertex 1.614591e+02 4.343531e+01 3.617674e+00
         vertex 1.614591e+02 4.413820e+01 3.967669e+00
      endloop
   endfacet
   facet normal -1.000000e+00 0.000000e+00 0.000000e+00
      outer loop
         vertex 1.614591e+02 4.567528e+01 -1.734723e-15
         vertex 1.614591e+02 4.413820e+01 3.967669e+00
         vertex 1.614591e+02 4.489343e+01 4.182551e+00
      endloop
   endfacet
   facet normal -1.000000e+00 0.000000e+00 0.000000e+00
      outer loop
         vertex 1.614591e+02 4.158271e+01 1.164436e+00
         vertex 1.614591e+02 4.186636e+01 1.896617e+00
         vertex 1.614591e+02 4.567528e+01 -1.734723e-15
      endloop
   endfacet
   facet normal -1.000000e+00 0.000000e+00 0.000000e+00
      outer loop
         vertex 1.614591e+02 4.567528e+01 -1.734723e-15
         vertex 1.614591e+02 4.186636e+01 1.896617e+00
         vertex 1.614591e+02 4.227972e+01 2.564210e+00
      endloop
   endfacet
   facet normal -1.000000e+00 0.000000e+00 0.000000e+00
      outer loop
         vertex 1.614591e+02 4.567528e+01 -1.734723e-15
         vertex 1.614591e+02 4.227972e+01 2.564210e+00
         vertex 1.614591e+02 4.280871e+01 3.144483e+00
      endloop
   endfacet
   facet normal -1.000000e+00 0.000000e+00 0.000000e+00
      outer loop
         vertex 1.614591e+02 4.158271e+01 -1.164436e+00
         vertex 1.614591e+02 4.143843e+01 -3.926019e-01
         vertex 1.614591e+02 4.567528e+01 -1.734723e-15
      endloop
   endfacet
   facet normal -1.000000e+00 -0.000000e+00 0.000000e+00
      outer loop
         vertex 1.614591e+02 4.567528e+01 -1.734723e-15
         vertex 1.614591e+02 4.143843e+01 -3.926019e-01
         vertex 1.614591e+02 4.143843e+01 3.926019e-01
      endloop
   endfacet
   facet normal -1.000000e+00 0.000000e+00 0.000000e+00
      outer loop
         vertex 1.614591e+02 4.567528e+01 -1.734723e-15
         vertex 1.614591e+02 4.143843e+01 3.926019e-01
         vertex 1.614591e+02 4.158271e+01 1.164436e+00
      endloop
   endfacet
   facet normal -1.000000e+00 0.000000e+00 0.000000e+00
      outer loop
         vertex 1.614591e+02 4.280871e+01 -3.144483e+00
         vertex 1.614591e+02 4.227972e+01 -2.564210e+00
         vertex 1.614591e+02 4.567528e+01 -1.734723e-15
      endloop
   endfacet
   facet normal -1.000000e+00 0.000000e+00 0.000000e+00
      outer loop
         vertex 1.614591e+02 4.567528e+01 -1.734723e-15
         vertex 1.614591e+02 4.227972e+01 -2.564210e+00
         vertex 1.614591e+02 4.186636e+01 -1.896617e+00
      endloop
   endfacet
   facet normal -1.000000e+00 0.000000e+00 0.000000e+00
      outer loop
         vertex 1.614591e+02 4.567528e+01 -1.734723e-15
         vertex 1.614591e+02 4.186636e+01 -1.896617e+00
         vertex 1.614591e+02 4.158271e+01 -1.164436e+00
      endloop
   endfacet
   facet normal -1.000000e+00 0.000000e+00 0.000000e+00
      outer loop
         vertex 1.614591e+02 4.489343e+01 -4.182551e+00
         vertex 1.614591e+02 4.413820e+01 -3.967669e+00
         vertex 1.614591e+02 4.567528e+01 -1.734723e-15
      endloop
   endfacet
   facet normal -1.000000e+00 0.000000e+00 0.000000e+00
      outer loop
         vertex 1.614591e+02 4.567528e+01 -1.734723e-15
         vertex 1.614591e+02 4.413820e+01 -3.967669e+00
         vertex 1.614591e+02 4.343531e+01 -3.617674e+00
      endloop
   endfacet
   facet normal -1.000000e+00 0.000000e+00 0.000000e+00
      outer loop
         vertex 1.614591e+02 4.567528e+01 -1.734723e-15
         vertex 1.614591e+02 4.343531e+01 -3.617674e+00
         vertex 1.614591e+02 4.280871e+01 -3.144483e+00
      endloop
   endfacet
endsolid