solid Anchor_square
   facet normal 0.000000e+00 0.000000e+00 -1.000000e+00
      outer loop
         vertex 5.204170e-14 -1.414214e+01 -1.000000e+01
         vertex -1.414214e+01 -5.377643e-14 -1.000000e+01
         vertex 1.060660e+01 -3.535534e+00 -1.000000e+01
      endloop
   endfacet
   facet normal 0.000000e+00 0.000000e+00 -1.000000e+00
      outer loop
         vertex 1.060660e+01 -3.535534e+00 -1.000000e+01
         vertex -1.414214e+01 -5.377643e-14 -1.000000e+01
         vertex -3.535534e+00 1.060660e+01 -1.000000e+01
      endloop
   endfacet
   facet normal 7.071068e-01 -7.071068e-01 0.000000e+00
      outer loop
         vertex 5.204170e-14 -1.414214e+01 1.000000e+01
         vertex 5.204170e-14 -1.414214e+01 -1.000000e+01
         vertex 1.060660e+01 -3.535534e+00 1.000000e+01
      endloop
   endfacet
   facet normal 7.071068e-01 -7.071068e-01 0.000000e+00
      outer loop
         vertex 1.060660e+01 -3.535534e+00 1.000000e+01
         vertex 5.204170e-14 -1.414214e+01 -1.000000e+01
         vertex 1.060660e+01 -3.535534e+00 -1.000000e+01
      endloop
   endfacet
   facet normal -0.000000e+00 0.000000e+00 1.000000e+00
      outer loop
         vertex -1.414214e+01 -5.377643e-14 1.000000e+01
         vertex 5.204170e-14 -1.414214e+01 1.000000e+01
         vertex -3.535534e+00 1.060660e+01 1.000000e+01
      endloop
   endfacet
   facet normal 0.000000e+00 0.000000e+00 1.000000e+00
      outer loop
         vertex -3.535534e+00 1.060660e+01 1.000000e+01
         vertex 5.204170e-14 -1.414214e+01 1.000000e+01
         vertex 1.060660e+01 -3.535534e+00 1.000000e+01
      endloop
   endfacet
   facet normal -7.071068e-01 7.071068e-01 0.000000e+00
      outer loop
         vertex -1.414214e+01 -5.377643e-14 -1.000000e+01
         vertex -1.414214e+01 -5.377643e-14 1.000000e+01
         vertex -3.535534e+00 1.060660e+01 -1.000000e+01
      endloop
   endfacet
   facet normal -7.071068e-01 7.071068e-01 0.000000e+00
      outer loop
         vertex -3.535534e+00 1.060660e+01 -1.000000e+01
         vertex -1.414214e+01 -5.377643e-14 1.000000e+01
         vertex -3.535534e+00 1.060660e+01 1.000000e+01
      endloop
   endfacet
   facet normal -7.071068e-01 -7.071068e-01 -0.000000e+00
      outer loop
         vertex 5.377643e-14 -1.414214e+01 1.000000e+01
         vertex -1.414214e+01 -5.290907e-14 1.000000e+01
         vertex 5.377643e-14 -1.414214e+01 -1.000000e+01
      endloop
   endfacet
   facet normal -7.071068e-01 -7.071068e-01 0.000000e+00
      outer loop
         vertex 5.377643e-14 -1.414214e+01 -1.000000e+01
         vertex -1.414214e+01 -5.290907e-14 1.000000e+01
         vertex -1.414214e+01 -5.290907e-14 -1.000000e+01
      endloop
   endfacet
   facet normal 7.071068e-01 7.071068e-01 0.000000e+00
      outer loop
         vertex -3.535534e+00 1.060660e+01 1.000000e+01
         vertex 1.060660e+01 -3.535534e+00 1.000000e+01
         vertex -3.535534e+00 1.060660e+01 -1.000000e+01
      endloop
   endfacet
   facet normal 7.071068e-01 7.071068e-01 0.000000e+00
      outer loop
         vertex -3.535534e+00 1.060660e+01 -1.000000e+01
         vertex 1.060660e+01 -3.535534e+00 1.000000e+01
         vertex 1.060660e+01 -3.535534e+00 -1.000000e+01
      endloop
   endfacet
endsolid