solid STL generated by MeshLab
  facet normal -7.040475e-03  2.894675e-01  9.571620e-01
    outer loop
      vertex   1.614591e+02  4.613943e+01  4.246045e+00
      vertex   1.714591e+02  4.677633e+01  4.126988e+00
      vertex   1.614591e+02  4.764192e+01  3.791658e+00
    endloop
  endfacet
  facet normal  4.724413e-03  4.082260e-01  9.128687e-01
    outer loop
      vertex   1.614591e+02  4.764192e+01  3.791658e+00
      vertex   1.714591e+02  4.677633e+01  4.126988e+00
      vertex   1.714591e+02  4.791525e+01  3.617674e+00
    endloop
  endfacet
  facet normal -2.587511e-03  6.026304e-01  7.980162e-01
    outer loop
      vertex   1.614591e+02  4.764192e+01  3.791658e+00
      vertex   1.714591e+02  4.791525e+01  3.617674e+00
      vertex   1.714591e+02  4.854186e+01  3.144483e+00
    endloop
  endfacet
  facet normal -4.413477e-03  6.156965e-01  7.879710e-01
    outer loop
      vertex   1.614591e+02  4.764192e+01  3.791658e+00
      vertex   1.714591e+02  4.854186e+01  3.144483e+00
      vertex   1.614591e+02  4.887885e+01  2.825155e+00
    endloop
  endfacet
  facet normal  4.470666e-03  7.545205e-01  6.562613e-01
    outer loop
      vertex   1.614591e+02  4.887885e+01  2.825155e+00
      vertex   1.714591e+02  4.854186e+01  3.144483e+00
      vertex   1.714591e+02  4.926927e+01  2.308157e+00
    endloop
  endfacet
  facet normal -9.304021e-03  8.762561e-01  4.817559e-01
    outer loop
      vertex   1.614591e+02  4.887885e+01  2.825155e+00
      vertex   1.714591e+02  4.926927e+01  2.308157e+00
      vertex   1.614591e+02  4.983834e+01  1.079955e+00
    endloop
  endfacet
  facet normal  1.023482e-02  9.364789e-01  3.505745e-01
    outer loop
      vertex   1.614591e+02  4.983834e+01  1.079955e+00
      vertex   1.714591e+02  4.926927e+01  2.308157e+00
      vertex   1.714591e+02  4.994735e+01  4.968293e-01
    endloop
  endfacet
  facet normal -7.968440e-03  9.987153e-01  5.004158e-02
    outer loop
      vertex   1.614591e+02  4.983834e+01  1.079955e+00
      vertex   1.714591e+02  4.994735e+01  4.968293e-01
      vertex   1.614591e+02  4.991213e+01 -3.926019e-01
    endloop
  endfacet
  facet normal  8.310969e-03  9.911228e-01 -1.326894e-01
    outer loop
      vertex   1.614591e+02  4.991213e+01 -3.926019e-01
      vertex   1.714591e+02  4.994735e+01  4.968293e-01
      vertex   1.714591e+02  4.968308e+01 -1.477111e+00
    endloop
  endfacet
  facet normal -2.011164e-03  9.745048e-01 -2.243577e-01
    outer loop
      vertex   1.614591e+02  4.991213e+01 -3.926019e-01
      vertex   1.714591e+02  4.968308e+01 -1.477111e+00
      vertex   1.614591e+02  4.963222e+01 -1.608405e+00
    endloop
  endfacet
  facet normal  2.010726e-03  8.713205e-01 -4.907101e-01
    outer loop
      vertex   1.614591e+02  4.963222e+01 -1.608405e+00
      vertex   1.714591e+02  4.968308e+01 -1.477111e+00
      vertex   1.714591e+02  4.907085e+01 -2.564210e+00
    endloop
  endfacet
  facet normal -4.413666e-03  8.414202e-01 -5.403634e-01
    outer loop
      vertex   1.614591e+02  4.963222e+01 -1.608405e+00
      vertex   1.714591e+02  4.907085e+01 -2.564210e+00
      vertex   1.614591e+02  4.878399e+01 -2.929213e+00
    endloop
  endfacet
  facet normal  4.470540e-03  7.230750e-01 -6.907550e-01
    outer loop
      vertex   1.614591e+02  4.878399e+01 -2.929213e+00
      vertex   1.714591e+02  4.907085e+01 -2.564210e+00
      vertex   1.714591e+02  4.830518e+01 -3.365706e+00
    endloop
  endfacet
  facet normal -4.470771e-03  6.210896e-01 -7.837268e-01
    outer loop
      vertex   1.614591e+02  4.878399e+01 -2.929213e+00
      vertex   1.714591e+02  4.830518e+01 -3.365706e+00
      vertex   1.614591e+02  4.791525e+01 -3.617674e+00
    endloop
  endfacet
  facet normal  3.256458e-03  4.824814e-01 -8.759001e-01
    outer loop
      vertex   1.614591e+02  4.791525e+01 -3.617674e+00
      vertex   1.714591e+02  4.830518e+01 -3.365706e+00
      vertex   1.714591e+02  4.721237e+01 -3.967669e+00
    endloop
  endfacet
  facet normal  0.000000e+00  4.457422e-01 -8.951614e-01
    outer loop
      vertex   1.614591e+02  4.791525e+01 -3.617674e+00
      vertex   1.714591e+02  4.721237e+01 -3.967669e+00
      vertex   1.614591e+02  4.721237e+01 -3.967669e+00
    endloop
  endfacet
  facet normal  0.000000e+00  2.736597e-01 -9.618266e-01
    outer loop
      vertex   1.614591e+02  4.721237e+01 -3.967669e+00
      vertex   1.714591e+02  4.721237e+01 -3.967669e+00
      vertex   1.714591e+02  4.645713e+01 -4.182551e+00
    endloop
  endfacet
  facet normal  0.000000e+00  2.736597e-01 -9.618266e-01
    outer loop
      vertex   1.614591e+02  4.721237e+01 -3.967669e+00
      vertex   1.714591e+02  4.645713e+01 -4.182551e+00
      vertex   1.614591e+02  4.645713e+01 -4.182551e+00
    endloop
  endfacet
  facet normal  0.000000e+00  9.226911e-02 -9.957341e-01
    outer loop
      vertex   1.614591e+02  4.645713e+01 -4.182551e+00
      vertex   1.714591e+02  4.645713e+01 -4.182551e+00
      vertex   1.714591e+02  4.567529e+01 -4.255000e+00
    endloop
  endfacet
  facet normal -6.052990e-03  1.523266e-02 -9.998657e-01
    outer loop
      vertex   1.614591e+02  4.645713e+01 -4.182551e+00
      vertex   1.714591e+02  4.567529e+01 -4.255000e+00
      vertex   1.614591e+02  4.478640e+01 -4.208004e+00
    endloop
  endfacet
  facet normal  7.968640e-03 -1.419811e-01 -9.898373e-01
    outer loop
      vertex   1.614591e+02  4.478640e+01 -4.208004e+00
      vertex   1.714591e+02  4.567529e+01 -4.255000e+00
      vertex   1.714591e+02  4.421579e+01 -4.045652e+00
    endloop
  endfacet
  facet normal -1.023497e-02 -4.354820e-01 -9.001393e-01
    outer loop
      vertex   1.614591e+02  4.478640e+01 -4.208004e+00
      vertex   1.714591e+02  4.421579e+01 -4.045652e+00
      vertex   1.614591e+02  4.304540e+01 -3.365720e+00
    endloop
  endfacet
  facet normal  9.304416e-03 -5.605573e-01 -8.280634e-01
    outer loop
      vertex   1.614591e+02  4.304540e+01 -3.365720e+00
      vertex   1.714591e+02  4.421579e+01 -4.045652e+00
      vertex   1.714591e+02  4.256659e+01 -2.929224e+00
    endloop
  endfacet
  facet normal -7.040506e-03 -7.499937e-01 -6.614076e-01
    outer loop
      vertex   1.614591e+02  4.304540e+01 -3.365720e+00
      vertex   1.714591e+02  4.256659e+01 -2.929224e+00
      vertex   1.614591e+02  4.200714e+01 -2.188403e+00
    endloop
  endfacet
  facet normal  4.724167e-03 -8.276408e-01 -5.612383e-01
    outer loop
      vertex   1.614591e+02  4.200714e+01 -2.188403e+00
      vertex   1.714591e+02  4.256659e+01 -2.929224e+00
      vertex   1.714591e+02  4.186636e+01 -1.896617e+00
    endloop
  endfacet
  facet normal -4.200215e-03 -9.493740e-01 -3.141200e-01
    outer loop
      vertex   1.614591e+02  4.200714e+01 -2.188403e+00
      vertex   1.714591e+02  4.186636e+01 -1.896617e+00
      vertex   1.714591e+02  4.140321e+01 -4.968366e-01
    endloop
  endfacet
  facet normal -4.495071e-03 -9.498873e-01 -3.125601e-01
    outer loop
      vertex   1.614591e+02  4.200714e+01 -2.188403e+00
      vertex   1.714591e+02  4.140321e+01 -4.968366e-01
      vertex   1.614591e+02  4.138466e+01 -2.966333e-01
    endloop
  endfacet
  facet normal  3.995334e-03 -9.942055e-01  1.074217e-01
    outer loop
      vertex   1.614591e+02  4.138466e+01 -2.966333e-01
      vertex   1.714591e+02  4.140321e+01 -4.968366e-01
      vertex   1.714591e+02  4.158271e+01  1.164436e+00
    endloop
  endfacet
  facet normal  0.000000e+00 -9.909374e-01  1.343240e-01
    outer loop
      vertex   1.614591e+02  4.138466e+01 -2.966333e-01
      vertex   1.714591e+02  4.158271e+01  1.164436e+00
      vertex   1.614591e+02  4.158271e+01  1.164436e+00
    endloop
  endfacet
  facet normal  0.000000e+00 -9.132245e-01  4.074568e-01
    outer loop
      vertex   1.614591e+02  4.158271e+01  1.164436e+00
      vertex   1.714591e+02  4.158271e+01  1.164436e+00
      vertex   1.714591e+02  4.218347e+01  2.510902e+00
    endloop
  endfacet
  facet normal -3.995157e-03 -9.018412e-01  4.320492e-01
    outer loop
      vertex   1.614591e+02  4.158271e+01  1.164436e+00
      vertex   1.714591e+02  4.218347e+01  2.510902e+00
      vertex   1.614591e+02  4.230464e+01  2.671357e+00
    endloop
  endfacet
  facet normal  3.995134e-03 -6.623581e-01  7.491766e-01
    outer loop
      vertex   1.614591e+02  4.230464e+01  2.671357e+00
      vertex   1.714591e+02  4.218347e+01  2.510902e+00
      vertex   1.714591e+02  4.343531e+01  3.617674e+00
    endloop
  endfacet
  facet normal -1.081866e-02 -5.837840e-01  8.118368e-01
    outer loop
      vertex   1.614591e+02  4.230464e+01  2.671357e+00
      vertex   1.714591e+02  4.343531e+01  3.617674e+00
      vertex   1.614591e+02  4.421580e+01  4.045653e+00
    endloop
  endfacet
  facet normal  7.968567e-03 -4.003661e-01  9.163206e-01
    outer loop
      vertex   1.614591e+02  4.421580e+01  4.045653e+00
      vertex   1.714591e+02  4.343531e+01  3.617674e+00
      vertex   1.714591e+02  4.478640e+01  4.208004e+00
    endloop
  endfacet
  facet normal -1.023499e-02 -1.036072e-01  9.945657e-01
    outer loop
      vertex   1.614591e+02  4.421580e+01  4.045653e+00
      vertex   1.714591e+02  4.478640e+01  4.208004e+00
      vertex   1.614591e+02  4.613943e+01  4.246045e+00
    endloop
  endfacet
  facet normal  9.304534e-03  4.067789e-02  9.991290e-01
    outer loop
      vertex   1.614591e+02  4.613943e+01  4.246045e+00
      vertex   1.714591e+02  4.478640e+01  4.208004e+00
      vertex   1.714591e+02  4.677633e+01  4.126988e+00
    endloop
  endfacet
  facet normal  1.000000e+00  0.000000e+00  0.000000e+00
    outer loop
      vertex   1.714591e+02  4.186636e+01 -1.896617e+00
      vertex   1.714591e+02  4.256659e+01 -2.929224e+00
      vertex   1.714591e+02  4.567529e+01 -4.255000e+00
    endloop
  endfacet
  facet normal  1.000000e+00  0.000000e+00  0.000000e+00
    outer loop
      vertex   1.714591e+02  4.567529e+01 -4.255000e+00
      vertex   1.714591e+02  4.256659e+01 -2.929224e+00
      vertex   1.714591e+02  4.421579e+01 -4.045652e+00
    endloop
  endfacet
  facet normal  1.000000e+00  0.000000e+00  0.000000e+00
    outer loop
      vertex   1.714591e+02  4.567529e+01 -4.255000e+00
      vertex   1.714591e+02  4.140321e+01 -4.968366e-01
      vertex   1.714591e+02  4.186636e+01 -1.896617e+00
    endloop
  endfacet
  facet normal  1.000000e+00  0.000000e+00  0.000000e+00
    outer loop
      vertex   1.714591e+02  4.567529e+01 -4.255000e+00
      vertex   1.714591e+02  4.218347e+01  2.510902e+00
      vertex   1.714591e+02  4.158271e+01  1.164436e+00
    endloop
  endfacet
  facet normal  1.000000e+00  0.000000e+00  0.000000e+00
    outer loop
      vertex   1.714591e+02  4.567529e+01 -4.255000e+00
      vertex   1.714591e+02  4.158271e+01  1.164436e+00
      vertex   1.714591e+02  4.140321e+01 -4.968366e-01
    endloop
  endfacet
  facet normal  1.000000e+00  0.000000e+00  0.000000e+00
    outer loop
      vertex   1.714591e+02  4.478640e+01  4.208004e+00
      vertex   1.714591e+02  4.343531e+01  3.617674e+00
      vertex   1.714591e+02  4.567529e+01 -4.255000e+00
    endloop
  endfacet
  facet normal  1.000000e+00  0.000000e+00  0.000000e+00
    outer loop
      vertex   1.714591e+02  4.567529e+01 -4.255000e+00
      vertex   1.714591e+02  4.343531e+01  3.617674e+00
      vertex   1.714591e+02  4.218347e+01  2.510902e+00
    endloop
  endfacet
  facet normal  1.000000e+00  0.000000e+00  0.000000e+00
    outer loop
      vertex   1.714591e+02  4.677633e+01  4.126988e+00
      vertex   1.714591e+02  4.478640e+01  4.208004e+00
      vertex   1.714591e+02  4.567529e+01 -4.255000e+00
    endloop
  endfacet
  facet normal  1.000000e+00  0.000000e+00  0.000000e+00
    outer loop
      vertex   1.714591e+02  4.854186e+01  3.144483e+00
      vertex   1.714591e+02  4.791525e+01  3.617674e+00
      vertex   1.714591e+02  4.567529e+01 -4.255000e+00
    endloop
  endfacet
  facet normal  1.000000e+00  0.000000e+00  0.000000e+00
    outer loop
      vertex   1.714591e+02  4.567529e+01 -4.255000e+00
      vertex   1.714591e+02  4.791525e+01  3.617674e+00
      vertex   1.714591e+02  4.677633e+01  4.126988e+00
    endloop
  endfacet
  facet normal  1.000000e+00  0.000000e+00  0.000000e+00
    outer loop
      vertex   1.714591e+02  4.994735e+01  4.968293e-01
      vertex   1.714591e+02  4.926927e+01  2.308157e+00
      vertex   1.714591e+02  4.567529e+01 -4.255000e+00
    endloop
  endfacet
  facet normal  1.000000e+00  0.000000e+00  0.000000e+00
    outer loop
      vertex   1.714591e+02  4.567529e+01 -4.255000e+00
      vertex   1.714591e+02  4.926927e+01  2.308157e+00
      vertex   1.714591e+02  4.854186e+01  3.144483e+00
    endloop
  endfacet
  facet normal  1.000000e+00  0.000000e+00 -0.000000e+00
    outer loop
      vertex   1.714591e+02  4.968308e+01 -1.477111e+00
      vertex   1.714591e+02  4.994735e+01  4.968293e-01
      vertex   1.714591e+02  4.567529e+01 -4.255000e+00
    endloop
  endfacet
  facet normal  1.000000e+00  0.000000e+00 -0.000000e+00
    outer loop
      vertex   1.714591e+02  4.830518e+01 -3.365706e+00
      vertex   1.714591e+02  4.907085e+01 -2.564210e+00
      vertex   1.714591e+02  4.567529e+01 -4.255000e+00
    endloop
  endfacet
  facet normal  1.000000e+00  0.000000e+00  0.000000e+00
    outer loop
      vertex   1.714591e+02  4.567529e+01 -4.255000e+00
      vertex   1.714591e+02  4.907085e+01 -2.564210e+00
      vertex   1.714591e+02  4.968308e+01 -1.477111e+00
    endloop
  endfacet
  facet normal  1.000000e+00  0.000000e+00 -0.000000e+00
    outer loop
      vertex   1.714591e+02  4.645713e+01 -4.182551e+00
      vertex   1.714591e+02  4.721237e+01 -3.967669e+00
      vertex   1.714591e+02  4.567529e+01 -4.255000e+00
    endloop
  endfacet
  facet normal  1.000000e+00  0.000000e+00  0.000000e+00
    outer loop
      vertex   1.714591e+02  4.567529e+01 -4.255000e+00
      vertex   1.714591e+02  4.721237e+01 -3.967669e+00
      vertex   1.714591e+02  4.830518e+01 -3.365706e+00
    endloop
  endfacet
  facet normal -1.000000e+00  0.000000e+00  0.000000e+00
    outer loop
      vertex   1.614591e+02  4.791525e+01 -3.617674e+00
      vertex   1.614591e+02  4.721237e+01 -3.967669e+00
      vertex   1.614591e+02  4.478640e+01 -4.208004e+00
    endloop
  endfacet
  facet normal -1.000000e+00  0.000000e+00  0.000000e+00
    outer loop
      vertex   1.614591e+02  4.478640e+01 -4.208004e+00
      vertex   1.614591e+02  4.721237e+01 -3.967669e+00
      vertex   1.614591e+02  4.645713e+01 -4.182551e+00
    endloop
  endfacet
  facet normal -1.000000e+00  0.000000e+00  0.000000e+00
    outer loop
      vertex   1.614591e+02  4.963222e+01 -1.608405e+00
      vertex   1.614591e+02  4.878399e+01 -2.929213e+00
      vertex   1.614591e+02  4.478640e+01 -4.208004e+00
    endloop
  endfacet
  facet normal -1.000000e+00  0.000000e+00  0.000000e+00
    outer loop
      vertex   1.614591e+02  4.478640e+01 -4.208004e+00
      vertex   1.614591e+02  4.878399e+01 -2.929213e+00
      vertex   1.614591e+02  4.791525e+01 -3.617674e+00
    endloop
  endfacet
  facet normal -1.000000e+00  0.000000e+00 -0.000000e+00
    outer loop
      vertex   1.614591e+02  4.983834e+01  1.079955e+00
      vertex   1.614591e+02  4.991213e+01 -3.926019e-01
      vertex   1.614591e+02  4.478640e+01 -4.208004e+00
    endloop
  endfacet
  facet normal -1.000000e+00  0.000000e+00  0.000000e+00
    outer loop
      vertex   1.614591e+02  4.478640e+01 -4.208004e+00
      vertex   1.614591e+02  4.991213e+01 -3.926019e-01
      vertex   1.614591e+02  4.963222e+01 -1.608405e+00
    endloop
  endfacet
  facet normal -1.000000e+00  0.000000e+00 -0.000000e+00
    outer loop
      vertex   1.614591e+02  4.887885e+01  2.825155e+00
      vertex   1.614591e+02  4.983834e+01  1.079955e+00
      vertex   1.614591e+02  4.478640e+01 -4.208004e+00
    endloop
  endfacet
  facet normal -1.000000e+00  0.000000e+00  0.000000e+00
    outer loop
      vertex   1.614591e+02  4.478640e+01 -4.208004e+00
      vertex   1.614591e+02  4.764192e+01  3.791658e+00
      vertex   1.614591e+02  4.887885e+01  2.825155e+00
    endloop
  endfacet
  facet normal -1.000000e+00  0.000000e+00  0.000000e+00
    outer loop
      vertex   1.614591e+02  4.421580e+01  4.045653e+00
      vertex   1.614591e+02  4.613943e+01  4.246045e+00
      vertex   1.614591e+02  4.478640e+01 -4.208004e+00
    endloop
  endfacet
  facet normal -1.000000e+00  0.000000e+00  0.000000e+00
    outer loop
      vertex   1.614591e+02  4.478640e+01 -4.208004e+00
      vertex   1.614591e+02  4.613943e+01  4.246045e+00
      vertex   1.614591e+02  4.764192e+01  3.791658e+00
    endloop
  endfacet
  facet normal -1.000000e+00  0.000000e+00  0.000000e+00
    outer loop
      vertex   1.614591e+02  4.230464e+01  2.671357e+00
      vertex   1.614591e+02  4.421580e+01  4.045653e+00
      vertex   1.614591e+02  4.478640e+01 -4.208004e+00
    endloop
  endfacet
  facet normal -1.000000e+00  0.000000e+00  0.000000e+00
    outer loop
      vertex   1.614591e+02  4.158271e+01  1.164436e+00
      vertex   1.614591e+02  4.230464e+01  2.671357e+00
      vertex   1.614591e+02  4.478640e+01 -4.208004e+00
    endloop
  endfacet
  facet normal -1.000000e+00  0.000000e+00  0.000000e+00
    outer loop
      vertex   1.614591e+02  4.478640e+01 -4.208004e+00
      vertex   1.614591e+02  4.138466e+01 -2.966333e-01
      vertex   1.614591e+02  4.158271e+01  1.164436e+00
    endloop
  endfacet
  facet normal -1.000000e+00  0.000000e+00  0.000000e+00
    outer loop
      vertex   1.614591e+02  4.304540e+01 -3.365720e+00
      vertex   1.614591e+02  4.200714e+01 -2.188403e+00
      vertex   1.614591e+02  4.478640e+01 -4.208004e+00
    endloop
  endfacet
  facet normal -1.000000e+00  0.000000e+00  0.000000e+00
    outer loop
      vertex   1.614591e+02  4.478640e+01 -4.208004e+00
      vertex   1.614591e+02  4.200714e+01 -2.188403e+00
      vertex   1.614591e+02  4.138466e+01 -2.966333e-01
    endloop
  endfacet
endsolid vcg
