solid STL generated by MeshLab
  facet normal -6.818064e-01 -7.309549e-01  2.906889e-02
    outer loop
      vertex  -9.506648e+00 -1.533821e+01  3.425590e+00
      vertex  -1.543736e+01 -9.902470e+00  1.006539e+00
      vertex  -1.130929e+01 -1.393804e+01 -3.647039e+00
    endloop
  endfacet
  facet normal  6.078855e-01 -7.589735e-01 -2.333118e-01
    outer loop
      vertex   1.211850e+01 -1.395632e+01  8.315970e-01
      vertex   7.472255e+00 -1.576969e+01 -5.375056e+00
      vertex   1.197316e+01 -1.170934e+01 -6.856604e+00
    endloop
  endfacet
  facet normal  4.772269e-01 -7.152838e-01 -5.105131e-01
    outer loop
      vertex   1.197316e+01 -1.170934e+01 -6.856604e+00
      vertex   7.472255e+00 -1.576969e+01 -5.375056e+00
      vertex   5.567959e+00 -1.143871e+01 -1.322335e+01
    endloop
  endfacet
  facet normal  5.503551e-01 -6.013249e-01 -5.792389e-01
    outer loop
      vertex   1.197316e+01 -1.170934e+01 -6.856604e+00
      vertex   5.567959e+00 -1.143871e+01 -1.322335e+01
      vertex   8.270260e+00 -7.999200e+00 -1.422646e+01
    endloop
  endfacet
  facet normal  2.183424e-01 -4.274013e-01 -8.772996e-01
    outer loop
      vertex   8.270260e+00 -7.999200e+00 -1.422646e+01
      vertex   5.567959e+00 -1.143871e+01 -1.322335e+01
      vertex   1.940121e-01 -6.207708e+00 -1.710925e+01
    endloop
  endfacet
  facet normal  2.818815e-01 -2.286634e-01 -9.318025e-01
    outer loop
      vertex   8.270260e+00 -7.999200e+00 -1.422646e+01
      vertex   1.940121e-01 -6.207708e+00 -1.710925e+01
      vertex   2.405870e-01 -3.561879e-01 -1.853112e+01
    endloop
  endfacet
  facet normal -2.692362e-01  1.484192e-01 -9.515690e-01
    outer loop
      vertex   2.405870e-01 -3.561879e-01 -1.853112e+01
      vertex  -9.392307e+00  6.061411e-01 -1.565550e+01
      vertex  -5.382328e+00  6.587265e+00 -1.585719e+01
    endloop
  endfacet
  facet normal -5.171134e-01  3.199232e-01 -7.938783e-01
    outer loop
      vertex  -5.382328e+00  6.587265e+00 -1.585719e+01
      vertex  -9.392307e+00  6.061411e-01 -1.565550e+01
      vertex  -1.101003e+01  1.091050e+01 -1.044923e+01
    endloop
  endfacet
  facet normal -7.974625e-01  5.260176e-01 -2.955655e-01
    outer loop
      vertex  -1.101003e+01  1.091050e+01 -1.044923e+01
      vertex  -1.560803e+01  5.456788e+00 -7.749346e+00
      vertex  -1.651365e+01  7.737585e+00 -1.246781e+00
    endloop
  endfacet
  facet normal -7.376424e-01  6.379283e-01 -2.212037e-01
    outer loop
      vertex  -1.101003e+01  1.091050e+01 -1.044923e+01
      vertex  -1.651365e+01  7.737585e+00 -1.246781e+00
      vertex  -1.203293e+01  1.365123e+01  8.658141e-01
    endloop
  endfacet
  facet normal -8.108475e-01  5.745359e-01  1.115114e-01
    outer loop
      vertex  -1.203293e+01  1.365123e+01  8.658141e-01
      vertex  -1.651365e+01  7.737585e+00 -1.246781e+00
      vertex  -1.677806e+01  6.221344e+00  4.642646e+00
    endloop
  endfacet
  facet normal -7.570655e-01  6.067141e-01  2.423839e-01
    outer loop
      vertex  -1.203293e+01  1.365123e+01  8.658141e-01
      vertex  -1.677806e+01  6.221344e+00  4.642646e+00
      vertex  -1.114795e+01  1.169057e+01  8.537712e+00
    endloop
  endfacet
  facet normal  4.757972e-01 -5.377793e-01  6.959960e-01
    outer loop
      vertex   5.119818e+00 -5.747722e+00  1.686272e+01
      vertex   2.735577e+00 -1.273897e+01  1.309067e+01
      vertex   1.212028e+01 -1.164260e+01  7.522230e+00
    endloop
  endfacet
  facet normal -7.468119e-01  3.801771e-01  5.456533e-01
    outer loop
      vertex  -1.114795e+01  1.169057e+01  8.537712e+00
      vertex  -1.677806e+01  6.221344e+00  4.642646e+00
      vertex  -1.414915e+01  5.353179e-01  1.220239e+01
    endloop
  endfacet
  facet normal -6.713122e-01  3.880563e-01  6.314684e-01
    outer loop
      vertex  -1.114795e+01  1.169057e+01  8.537712e+00
      vertex  -1.414915e+01  5.353179e-01  1.220239e+01
      vertex  -7.631609e+00  7.231998e+00  1.501585e+01
    endloop
  endfacet
  facet normal  1.278685e-01 -5.043594e-01  8.539737e-01
    outer loop
      vertex   5.119818e+00 -5.747722e+00  1.686272e+01
      vertex  -1.607422e+00 -9.869061e+00  1.543594e+01
      vertex   2.735577e+00 -1.273897e+01  1.309067e+01
    endloop
  endfacet
  facet normal  4.412677e-01 -6.534751e-01  6.150228e-01
    outer loop
      vertex   2.735577e+00 -1.273897e+01  1.309067e+01
      vertex   5.407865e+00 -1.530849e+01  8.443177e+00
      vertex   1.212028e+01 -1.164260e+01  7.522230e+00
    endloop
  endfacet
  facet normal  4.892621e-01 -8.242837e-01  2.849193e-01
    outer loop
      vertex   1.212028e+01 -1.164260e+01  7.522230e+00
      vertex   5.407865e+00 -1.530849e+01  8.443177e+00
      vertex   1.211850e+01 -1.395632e+01  8.315970e-01
    endloop
  endfacet
  facet normal  3.110569e-01 -7.981612e-01 -5.159286e-01
    outer loop
      vertex   7.472255e+00 -1.576969e+01 -5.375056e+00
      vertex   1.650823e+00 -1.349037e+01 -1.241103e+01
      vertex   5.567959e+00 -1.143871e+01 -1.322335e+01
    endloop
  endfacet
  facet normal  9.983812e-02 -5.252175e-01 -8.450910e-01
    outer loop
      vertex   5.567959e+00 -1.143871e+01 -1.322335e+01
      vertex   1.650823e+00 -1.349037e+01 -1.241103e+01
      vertex   1.940121e-01 -6.207708e+00 -1.710925e+01
    endloop
  endfacet
  facet normal -2.097832e-01 -2.292891e-01 -9.504828e-01
    outer loop
      vertex   1.940121e-01 -6.207708e+00 -1.710925e+01
      vertex  -8.704470e+00 -5.388896e+00 -1.534278e+01
      vertex   2.405870e-01 -3.561879e-01 -1.853112e+01
    endloop
  endfacet
  facet normal -2.926829e-01 -8.327089e-02 -9.525769e-01
    outer loop
      vertex   2.405870e-01 -3.561879e-01 -1.853112e+01
      vertex  -8.704470e+00 -5.388896e+00 -1.534278e+01
      vertex  -9.392307e+00  6.061411e-01 -1.565550e+01
    endloop
  endfacet
  facet normal -6.368777e-01  2.656834e-01 -7.237397e-01
    outer loop
      vertex  -9.392307e+00  6.061411e-01 -1.565550e+01
      vertex  -1.346296e+01 -1.392348e+00 -1.280704e+01
      vertex  -1.101003e+01  1.091050e+01 -1.044923e+01
    endloop
  endfacet
  facet normal -7.031813e-01  2.665275e-01 -6.591654e-01
    outer loop
      vertex  -1.101003e+01  1.091050e+01 -1.044923e+01
      vertex  -1.346296e+01 -1.392348e+00 -1.280704e+01
      vertex  -1.560803e+01  5.456788e+00 -7.749346e+00
    endloop
  endfacet
  facet normal -5.019022e-01  1.291718e-01  8.552244e-01
    outer loop
      vertex  -1.414915e+01  5.353179e-01  1.220239e+01
      vertex  -8.985824e+00 -3.195579e+00  1.579608e+01
      vertex  -7.631609e+00  7.231998e+00  1.501585e+01
    endloop
  endfacet
  facet normal -4.197060e-01  1.218062e-01  8.994499e-01
    outer loop
      vertex  -7.631609e+00  7.231998e+00  1.501585e+01
      vertex  -8.985824e+00 -3.195579e+00  1.579608e+01
      vertex  -2.008490e+00  1.582801e+00  1.840477e+01
    endloop
  endfacet
  facet normal -1.821975e-01 -2.527231e-01  9.502289e-01
    outer loop
      vertex  -2.008490e+00  1.582801e+00  1.840477e+01
      vertex  -8.985824e+00 -3.195579e+00  1.579608e+01
      vertex  -1.607422e+00 -9.869061e+00  1.543594e+01
    endloop
  endfacet
  facet normal -5.039353e-02 -2.522838e-01  9.663402e-01
    outer loop
      vertex  -2.008490e+00  1.582801e+00  1.840477e+01
      vertex  -1.607422e+00 -9.869061e+00  1.543594e+01
      vertex   5.119818e+00 -5.747722e+00  1.686272e+01
    endloop
  endfacet
  facet normal  4.177724e-01 -8.836275e-01  2.113493e-01
    outer loop
      vertex   5.407865e+00 -1.530849e+01  8.443177e+00
      vertex   3.710990e+00 -1.791372e+01  9.051800e-01
      vertex   1.211850e+01 -1.395632e+01  8.315970e-01
    endloop
  endfacet
  facet normal -9.423100e-02 -5.529348e-01 -8.278790e-01
    outer loop
      vertex   1.650823e+00 -1.349037e+01 -1.241103e+01
      vertex  -7.232895e+00 -1.017871e+01 -1.361170e+01
      vertex   1.940121e-01 -6.207708e+00 -1.710925e+01
    endloop
  endfacet
  facet normal -2.136884e-01 -3.894432e-01 -8.959193e-01
    outer loop
      vertex   1.940121e-01 -6.207708e+00 -1.710925e+01
      vertex  -7.232895e+00 -1.017871e+01 -1.361170e+01
      vertex  -8.704470e+00 -5.388896e+00 -1.534278e+01
    endloop
  endfacet
  facet normal -9.044281e-01  3.472991e-01 -2.477765e-01
    outer loop
      vertex  -1.560803e+01  5.456788e+00 -7.749346e+00
      vertex  -1.784765e+01  3.261438e+00 -2.651480e+00
      vertex  -1.651365e+01  7.737585e+00 -1.246781e+00
    endloop
  endfacet
  facet normal  4.248696e-01 -9.036400e-01 -5.404110e-02
    outer loop
      vertex   1.211850e+01 -1.395632e+01  8.315970e-01
      vertex   3.710990e+00 -1.791372e+01  9.051800e-01
      vertex   7.472255e+00 -1.576969e+01 -5.375056e+00
    endloop
  endfacet
  facet normal  2.043631e-01 -9.573116e-01 -2.044267e-01
    outer loop
      vertex   7.472255e+00 -1.576969e+01 -5.375056e+00
      vertex   3.710990e+00 -1.791372e+01  9.051800e-01
      vertex   1.355817e+00 -1.680090e+01 -6.660511e+00
    endloop
  endfacet
  facet normal  2.424126e-01 -8.461227e-01 -4.746709e-01
    outer loop
      vertex   7.472255e+00 -1.576969e+01 -5.375056e+00
      vertex   1.355817e+00 -1.680090e+01 -6.660511e+00
      vertex   1.650823e+00 -1.349037e+01 -1.241103e+01
    endloop
  endfacet
  facet normal -9.603570e-01  2.773343e-01  2.828415e-02
    outer loop
      vertex  -1.784765e+01  3.261438e+00 -2.651480e+00
      vertex  -1.677806e+01  6.221344e+00  4.642646e+00
      vertex  -1.651365e+01  7.737585e+00 -1.246781e+00
    endloop
  endfacet
  facet normal  2.016220e-01 -9.388580e-01  2.790953e-01
    outer loop
      vertex   5.407865e+00 -1.530849e+01  8.443177e+00
      vertex  -3.914123e-01 -1.790191e+01  3.908563e+00
      vertex   3.710990e+00 -1.791372e+01  9.051800e-01
    endloop
  endfacet
  facet normal  4.103598e-02 -9.866034e-01 -1.578920e-01
    outer loop
      vertex   3.710990e+00 -1.791372e+01  9.051800e-01
      vertex  -4.157739e+00 -1.756537e+01 -3.316585e+00
      vertex   1.355817e+00 -1.680090e+01 -6.660511e+00
    endloop
  endfacet
  facet normal -2.864588e-02 -8.656549e-01 -4.998209e-01
    outer loop
      vertex   1.355817e+00 -1.680090e+01 -6.660511e+00
      vertex  -4.433924e+00 -1.545399e+01 -8.661445e+00
      vertex   1.650823e+00 -1.349037e+01 -1.241103e+01
    endloop
  endfacet
  facet normal -5.349944e-01 -1.051108e-01 -8.382915e-01
    outer loop
      vertex  -8.704470e+00 -5.388896e+00 -1.534278e+01
      vertex  -1.346296e+01 -1.392348e+00 -1.280704e+01
      vertex  -9.392307e+00  6.061411e-01 -1.565550e+01
    endloop
  endfacet
  facet normal -8.955214e-01  4.636528e-02 -4.425967e-01
    outer loop
      vertex  -1.346296e+01 -1.392348e+00 -1.280704e+01
      vertex  -1.700067e+01 -3.561412e+00 -5.876307e+00
      vertex  -1.560803e+01  5.456788e+00 -7.749346e+00
    endloop
  endfacet
  facet normal -9.235302e-01  6.407899e-02 -3.781347e-01
    outer loop
      vertex  -1.560803e+01  5.456788e+00 -7.749346e+00
      vertex  -1.700067e+01 -3.561412e+00 -5.876307e+00
      vertex  -1.784765e+01  3.261438e+00 -2.651480e+00
    endloop
  endfacet
  facet normal -9.272997e-01  6.205074e-02  3.691408e-01
    outer loop
      vertex  -1.677806e+01  6.221344e+00  4.642646e+00
      vertex  -1.753795e+01 -3.419742e+00  4.354390e+00
      vertex  -1.414915e+01  5.353179e-01  1.220239e+01
    endloop
  endfacet
  facet normal -4.126699e-01 -4.974394e-01  7.630581e-01
    outer loop
      vertex  -8.985824e+00 -3.195579e+00  1.579608e+01
      vertex  -6.138064e+00 -1.441929e+01  1.001941e+01
      vertex  -1.607422e+00 -9.869061e+00  1.543594e+01
    endloop
  endfacet
  facet normal -1.024353e-01 -7.177961e-01  6.886767e-01
    outer loop
      vertex  -1.607422e+00 -9.869061e+00  1.543594e+01
      vertex  -6.138064e+00 -1.441929e+01  1.001941e+01
      vertex   2.735577e+00 -1.273897e+01  1.309067e+01
    endloop
  endfacet
  facet normal -1.458433e-03 -8.755021e-01  4.832121e-01
    outer loop
      vertex   2.735577e+00 -1.273897e+01  1.309067e+01
      vertex  -6.138064e+00 -1.441929e+01  1.001941e+01
      vertex   5.407865e+00 -1.530849e+01  8.443177e+00
    endloop
  endfacet
  facet normal  7.861335e-04 -8.684936e-01  4.956999e-01
    outer loop
      vertex   5.407865e+00 -1.530849e+01  8.443177e+00
      vertex  -6.138064e+00 -1.441929e+01  1.001941e+01
      vertex  -3.914123e-01 -1.790191e+01  3.908563e+00
    endloop
  endfacet
  facet normal -9.079827e-02 -9.278142e-01 -3.618238e-01
    outer loop
      vertex  -4.157739e+00 -1.756537e+01 -3.316585e+00
      vertex  -4.433924e+00 -1.545399e+01 -8.661445e+00
      vertex   1.355817e+00 -1.680090e+01 -6.660511e+00
    endloop
  endfacet
  facet normal -1.788341e-01 -7.220435e-01 -6.683351e-01
    outer loop
      vertex   1.650823e+00 -1.349037e+01 -1.241103e+01
      vertex  -4.433924e+00 -1.545399e+01 -8.661445e+00
      vertex  -7.232895e+00 -1.017871e+01 -1.361170e+01
    endloop
  endfacet
  facet normal -9.905615e-01  7.463638e-02  1.149667e-01
    outer loop
      vertex  -1.784765e+01  3.261438e+00 -2.651480e+00
      vertex  -1.753795e+01 -3.419742e+00  4.354390e+00
      vertex  -1.677806e+01  6.221344e+00  4.642646e+00
    endloop
  endfacet
  facet normal -6.795065e-01 -2.921525e-01  6.729916e-01
    outer loop
      vertex  -1.414915e+01  5.353179e-01  1.220239e+01
      vertex  -1.292658e+01 -8.642053e+00  9.452800e+00
      vertex  -8.985824e+00 -3.195579e+00  1.579608e+01
    endloop
  endfacet
  facet normal -4.813145e-01 -4.945906e-01  7.236826e-01
    outer loop
      vertex  -8.985824e+00 -3.195579e+00  1.579608e+01
      vertex  -1.292658e+01 -8.642053e+00  9.452800e+00
      vertex  -6.138064e+00 -1.441929e+01  1.001941e+01
    endloop
  endfacet
  facet normal -2.674198e-02 -9.991108e-01 -3.259622e-02
    outer loop
      vertex   3.710990e+00 -1.791372e+01  9.051800e-01
      vertex  -3.914123e-01 -1.790191e+01  3.908563e+00
      vertex  -4.157739e+00 -1.756537e+01 -3.316585e+00
    endloop
  endfacet
  facet normal -6.648726e-01 -4.260141e-01 -6.135604e-01
    outer loop
      vertex  -8.704470e+00 -5.388896e+00 -1.534278e+01
      vertex  -7.232895e+00 -1.017871e+01 -1.361170e+01
      vertex  -1.370403e+01 -1.001146e+01 -6.715513e+00
    endloop
  endfacet
  facet normal -6.737817e-01 -4.138168e-01 -6.121878e-01
    outer loop
      vertex  -8.704470e+00 -5.388896e+00 -1.534278e+01
      vertex  -1.370403e+01 -1.001146e+01 -6.715513e+00
      vertex  -1.346296e+01 -1.392348e+00 -1.280704e+01
    endloop
  endfacet
  facet normal -7.911815e-01 -3.380654e-01 -5.096504e-01
    outer loop
      vertex  -1.346296e+01 -1.392348e+00 -1.280704e+01
      vertex  -1.370403e+01 -1.001146e+01 -6.715513e+00
      vertex  -1.700067e+01 -3.561412e+00 -5.876307e+00
    endloop
  endfacet
  facet normal -9.937545e-01 -9.934767e-02 -5.081285e-02
    outer loop
      vertex  -1.784765e+01  3.261438e+00 -2.651480e+00
      vertex  -1.700067e+01 -3.561412e+00 -5.876307e+00
      vertex  -1.753795e+01 -3.419742e+00  4.354390e+00
    endloop
  endfacet
  facet normal -8.330402e-01 -2.576464e-01  4.895531e-01
    outer loop
      vertex  -1.414915e+01  5.353179e-01  1.220239e+01
      vertex  -1.753795e+01 -3.419742e+00  4.354390e+00
      vertex  -1.292658e+01 -8.642053e+00  9.452800e+00
    endloop
  endfacet
  facet normal -4.176916e-01 -8.522127e-01 -3.150672e-01
    outer loop
      vertex  -4.433924e+00 -1.545399e+01 -8.661445e+00
      vertex  -4.157739e+00 -1.756537e+01 -3.316585e+00
      vertex  -1.130929e+01 -1.393804e+01 -3.647039e+00
    endloop
  endfacet
  facet normal -5.067899e-01 -7.174249e-01 -4.779807e-01
    outer loop
      vertex  -4.433924e+00 -1.545399e+01 -8.661445e+00
      vertex  -1.130929e+01 -1.393804e+01 -3.647039e+00
      vertex  -7.232895e+00 -1.017871e+01 -1.361170e+01
    endloop
  endfacet
  facet normal -6.114722e-01 -6.785954e-01  4.069522e-01
    outer loop
      vertex  -1.292658e+01 -8.642053e+00  9.452800e+00
      vertex  -9.506648e+00 -1.533821e+01  3.425590e+00
      vertex  -6.138064e+00 -1.441929e+01  1.001941e+01
    endloop
  endfacet
  facet normal -2.739604e-01 -9.234566e-01  2.686516e-01
    outer loop
      vertex  -6.138064e+00 -1.441929e+01  1.001941e+01
      vertex  -9.506648e+00 -1.533821e+01  3.425590e+00
      vertex  -3.914123e-01 -1.790191e+01  3.908563e+00
    endloop
  endfacet
  facet normal -2.742636e-01 -9.566058e-01  9.841167e-02
    outer loop
      vertex  -3.914123e-01 -1.790191e+01  3.908563e+00
      vertex  -9.506648e+00 -1.533821e+01  3.425590e+00
      vertex  -4.157739e+00 -1.756537e+01 -3.316585e+00
    endloop
  endfacet
  facet normal -5.300601e-01 -6.987205e-01 -4.804436e-01
    outer loop
      vertex  -1.130929e+01 -1.393804e+01 -3.647039e+00
      vertex  -1.370403e+01 -1.001146e+01 -6.715513e+00
      vertex  -7.232895e+00 -1.017871e+01 -1.361170e+01
    endloop
  endfacet
  facet normal -8.837270e-01 -4.266499e-01 -1.923447e-01
    outer loop
      vertex  -1.370403e+01 -1.001146e+01 -6.715513e+00
      vertex  -1.543736e+01 -9.902470e+00  1.006539e+00
      vertex  -1.700067e+01 -3.561412e+00 -5.876307e+00
    endloop
  endfacet
  facet normal -9.570503e-01 -2.862014e-01 -4.629781e-02
    outer loop
      vertex  -1.700067e+01 -3.561412e+00 -5.876307e+00
      vertex  -1.543736e+01 -9.902470e+00  1.006539e+00
      vertex  -1.753795e+01 -3.419742e+00  4.354390e+00
    endloop
  endfacet
  facet normal -8.427630e-01 -4.360610e-01  3.155968e-01
    outer loop
      vertex  -1.753795e+01 -3.419742e+00  4.354390e+00
      vertex  -1.543736e+01 -9.902470e+00  1.006539e+00
      vertex  -1.292658e+01 -8.642053e+00  9.452800e+00
    endloop
  endfacet
  facet normal -7.080911e-01 -6.366174e-01  3.054920e-01
    outer loop
      vertex  -1.292658e+01 -8.642053e+00  9.452800e+00
      vertex  -1.543736e+01 -9.902470e+00  1.006539e+00
      vertex  -9.506648e+00 -1.533821e+01  3.425590e+00
    endloop
  endfacet
  facet normal -4.492022e-01 -8.912793e-01 -6.195558e-02
    outer loop
      vertex  -9.506648e+00 -1.533821e+01  3.425590e+00
      vertex  -1.130929e+01 -1.393804e+01 -3.647039e+00
      vertex  -4.157739e+00 -1.756537e+01 -3.316585e+00
    endloop
  endfacet
  facet normal -7.787629e-01 -6.048830e-01 -1.662682e-01
    outer loop
      vertex  -1.370403e+01 -1.001146e+01 -6.715513e+00
      vertex  -1.130929e+01 -1.393804e+01 -3.647039e+00
      vertex  -1.543736e+01 -9.902470e+00  1.006539e+00
    endloop
  endfacet
  facet normal  7.079515e-01  7.061807e-01 -1.065673e-02
    outer loop
      vertex   1.068687e+01 -3.660031e+00 -3.678489e+00
      vertex   4.085996e+00  2.832866e+00 -1.193081e+01
      vertex  -3.982721e+00  1.105330e+01 -3.218203e+00
    endloop
  endfacet
  facet normal  7.081609e-01  7.060511e-01  1.585100e-04
    outer loop
      vertex  -3.982721e+00  1.105330e+01 -3.218203e+00
      vertex   4.175538e+00  2.867406e+00  1.127099e+01
      vertex   1.068687e+01 -3.660031e+00 -3.678489e+00
    endloop
  endfacet
  facet normal  9.967060e-01 -7.672758e-02  2.626856e-02
    outer loop
      vertex   1.211850e+01 -1.395632e+01  8.315970e-01
      vertex   1.270415e+01 -7.819002e+00 -3.463346e+00
      vertex   1.212028e+01 -1.164260e+01  7.522230e+00
    endloop
  endfacet
  facet normal  8.400224e-01  1.958640e-01  5.059641e-01
    outer loop
      vertex   1.212028e+01 -1.164260e+01  7.522230e+00
      vertex   4.934953e+00 -1.085490e+00  1.536484e+01
      vertex   5.119818e+00 -5.747722e+00  1.686272e+01
    endloop
  endfacet
  facet normal  4.744568e-01  2.862568e-01  8.324349e-01
    outer loop
      vertex   5.119818e+00 -5.747722e+00  1.686272e+01
      vertex   4.934953e+00 -1.085490e+00  1.536484e+01
      vertex  -2.008490e+00  1.582801e+00  1.840477e+01
    endloop
  endfacet
  facet normal  2.911676e-01  6.883677e-01  6.643578e-01
    outer loop
      vertex  -2.008490e+00  1.582801e+00  1.840477e+01
      vertex  -3.875252e+00  9.563230e+00  1.095408e+01
      vertex  -7.631609e+00  7.231998e+00  1.501585e+01
    endloop
  endfacet
  facet normal  6.528339e-02  8.381941e-01  5.414506e-01
    outer loop
      vertex  -7.631609e+00  7.231998e+00  1.501585e+01
      vertex  -3.875252e+00  9.563230e+00  1.095408e+01
      vertex  -1.114795e+01  1.169057e+01  8.537712e+00
    endloop
  endfacet
  facet normal  1.733954e-01  8.493459e-01 -4.985436e-01
    outer loop
      vertex  -1.101003e+01  1.091050e+01 -1.044923e+01
      vertex  -4.253907e+00  1.012015e+01 -9.445902e+00
      vertex  -5.382328e+00  6.587265e+00 -1.585719e+01
    endloop
  endfacet
  facet normal  6.408965e-01  2.682342e-01 -7.192371e-01
    outer loop
      vertex   2.405870e-01 -3.561879e-01 -1.853112e+01
      vertex   7.983687e+00 -3.451687e+00 -1.278586e+01
      vertex   8.270260e+00 -7.999200e+00 -1.422646e+01
    endloop
  endfacet
  facet normal  9.891214e-01 -1.351052e-01 -5.818517e-02
    outer loop
      vertex   1.197316e+01 -1.170934e+01 -6.856604e+00
      vertex   1.270415e+01 -7.819002e+00 -3.463346e+00
      vertex   1.211850e+01 -1.395632e+01  8.315970e-01
    endloop
  endfacet
  facet normal  8.404956e-01  1.971388e-01  5.046815e-01
    outer loop
      vertex   1.212028e+01 -1.164260e+01  7.522230e+00
      vertex   1.143884e+01 -6.126882e+00  6.502547e+00
      vertex   4.934953e+00 -1.085490e+00  1.536484e+01
    endloop
  endfacet
  facet normal  1.455656e-01  9.644739e-01 -2.204558e-01
    outer loop
      vertex  -1.101003e+01  1.091050e+01 -1.044923e+01
      vertex  -1.203293e+01  1.365123e+01  8.658141e-01
      vertex  -4.253907e+00  1.012015e+01 -9.445902e+00
    endloop
  endfacet
  facet normal  6.385732e-01  4.780909e-01 -6.030369e-01
    outer loop
      vertex   2.405870e-01 -3.561879e-01 -1.853112e+01
      vertex   4.085996e+00  2.832866e+00 -1.193081e+01
      vertex   7.983687e+00 -3.451687e+00 -1.278586e+01
    endloop
  endfacet
  facet normal  9.089972e-01  1.768467e-01 -3.774246e-01
    outer loop
      vertex   8.270260e+00 -7.999200e+00 -1.422646e+01
      vertex   7.983687e+00 -3.451687e+00 -1.278586e+01
      vertex   1.270415e+01 -7.819002e+00 -3.463346e+00
    endloop
  endfacet
  facet normal  9.119693e-01  1.586432e-01 -3.783442e-01
    outer loop
      vertex   8.270260e+00 -7.999200e+00 -1.422646e+01
      vertex   1.270415e+01 -7.819002e+00 -3.463346e+00
      vertex   1.197316e+01 -1.170934e+01 -6.856604e+00
    endloop
  endfacet
  facet normal  9.849094e-01  1.403913e-01  1.012111e-01
    outer loop
      vertex   1.270415e+01 -7.819002e+00 -3.463346e+00
      vertex   1.143884e+01 -6.126882e+00  6.502547e+00
      vertex   1.212028e+01 -1.164260e+01  7.522230e+00
    endloop
  endfacet
  facet normal  5.001996e-01  6.505489e-01  5.714775e-01
    outer loop
      vertex  -2.008490e+00  1.582801e+00  1.840477e+01
      vertex   4.934953e+00 -1.085490e+00  1.536484e+01
      vertex  -3.875252e+00  9.563230e+00  1.095408e+01
    endloop
  endfacet
  facet normal  2.058453e-01  9.535466e-01  2.199468e-01
    outer loop
      vertex  -1.114795e+01  1.169057e+01  8.537712e+00
      vertex  -3.875252e+00  9.563230e+00  1.095408e+01
      vertex  -1.203293e+01  1.365123e+01  8.658141e-01
    endloop
  endfacet
  facet normal  4.971447e-01  6.316707e-01 -5.948439e-01
    outer loop
      vertex  -5.382328e+00  6.587265e+00 -1.585719e+01
      vertex   4.085996e+00  2.832866e+00 -1.193081e+01
      vertex   2.405870e-01 -3.561879e-01 -1.853112e+01
    endloop
  endfacet
  facet normal  8.128508e-01  4.870366e-01  3.194825e-01
    outer loop
      vertex   1.143884e+01 -6.126882e+00  6.502547e+00
      vertex   4.175538e+00  2.867406e+00  1.127099e+01
      vertex   4.934953e+00 -1.085490e+00  1.536484e+01
    endloop
  endfacet
  facet normal  5.263750e-01  6.583579e-01  5.380467e-01
    outer loop
      vertex   4.934953e+00 -1.085490e+00  1.536484e+01
      vertex   4.175538e+00  2.867406e+00  1.127099e+01
      vertex  -3.875252e+00  9.563230e+00  1.095408e+01
    endloop
  endfacet
  facet normal  3.492084e-01  9.321802e-01  9.536085e-02
    outer loop
      vertex  -1.203293e+01  1.365123e+01  8.658141e-01
      vertex  -3.875252e+00  9.563230e+00  1.095408e+01
      vertex  -3.982721e+00  1.105330e+01 -3.218203e+00
    endloop
  endfacet
  facet normal  2.318318e-01  9.604864e-01 -1.540123e-01
    outer loop
      vertex  -1.203293e+01  1.365123e+01  8.658141e-01
      vertex  -3.982721e+00  1.105330e+01 -3.218203e+00
      vertex  -4.253907e+00  1.012015e+01 -9.445902e+00
    endloop
  endfacet
  facet normal  4.887459e-01  7.248819e-01 -4.854622e-01
    outer loop
      vertex  -5.382328e+00  6.587265e+00 -1.585719e+01
      vertex  -4.253907e+00  1.012015e+01 -9.445902e+00
      vertex   4.085996e+00  2.832866e+00 -1.193081e+01
    endloop
  endfacet
  facet normal  8.760617e-01  4.119639e-01 -2.506024e-01
    outer loop
      vertex   7.983687e+00 -3.451687e+00 -1.278586e+01
      vertex   1.068687e+01 -3.660031e+00 -3.678489e+00
      vertex   1.270415e+01 -7.819002e+00 -3.463346e+00
    endloop
  endfacet
  facet normal  8.982271e-01  4.377333e-01  3.971951e-02
    outer loop
      vertex   1.270415e+01 -7.819002e+00 -3.463346e+00
      vertex   1.068687e+01 -3.660031e+00 -3.678489e+00
      vertex   1.143884e+01 -6.126882e+00  6.502547e+00
    endloop
  endfacet
  facet normal  8.129677e-01  5.353679e-01 -2.290522e-01
    outer loop
      vertex   7.983687e+00 -3.451687e+00 -1.278586e+01
      vertex   4.085996e+00  2.832866e+00 -1.193081e+01
      vertex   1.068687e+01 -3.660031e+00 -3.678489e+00
    endloop
  endfacet
  facet normal  7.969124e-01  5.979388e-01  8.602013e-02
    outer loop
      vertex   1.143884e+01 -6.126882e+00  6.502547e+00
      vertex   1.068687e+01 -3.660031e+00 -3.678489e+00
      vertex   4.175538e+00  2.867406e+00  1.127099e+01
    endloop
  endfacet
  facet normal  6.358271e-01  7.680870e-01  7.593477e-02
    outer loop
      vertex  -3.875252e+00  9.563230e+00  1.095408e+01
      vertex   4.175538e+00  2.867406e+00  1.127099e+01
      vertex  -3.982721e+00  1.105330e+01 -3.218203e+00
    endloop
  endfacet
  facet normal  6.269697e-01  7.659792e-01 -1.420741e-01
    outer loop
      vertex  -4.253907e+00  1.012015e+01 -9.445902e+00
      vertex  -3.982721e+00  1.105330e+01 -3.218203e+00
      vertex   4.085996e+00  2.832866e+00 -1.193081e+01
    endloop
  endfacet
endsolid vcg
