solid Load_square
   facet normal -0.000000e+00 -0.000000e+00 -1.000000e+00
      outer loop
         vertex 1.714591e+02 4.993028e+01 -4.255000e+00
         vertex 1.714591e+02 4.142028e+01 -4.255000e+00
         vertex 1.614591e+02 4.993028e+01 -4.255000e+00
      endloop
   endfacet
   facet normal 0.000000e+00 0.000000e+00 -1.000000e+00
      outer loop
         vertex 1.614591e+02 4.993028e+01 -4.255000e+00
         vertex 1.714591e+02 4.142028e+01 -4.255000e+00
         vertex 1.614591e+02 4.142028e+01 -4.255000e+00
      endloop
   endfacet
   facet normal 0.000000e+00 1.000000e+00 0.000000e+00
      outer loop
         vertex 1.714591e+02 4.993028e+01 4.255000e+00
         vertex 1.714591e+02 4.993028e+01 -4.255000e+00
         vertex 1.614591e+02 4.993028e+01 4.255000e+00
      endloop
   endfacet
   facet normal 0.000000e+00 1.000000e+00 0.000000e+00
      outer loop
         vertex 1.614591e+02 4.993028e+01 4.255000e+00
         vertex 1.714591e+02 4.993028e+01 -4.255000e+00
         vertex 1.614591e+02 4.993028e+01 -4.255000e+00
      endloop
   endfacet
   facet normal 0.000000e+00 -0.000000e+00 1.000000e+00
      outer loop
         vertex 1.714591e+02 4.142028e+01 4.255000e+00
         vertex 1.714591e+02 4.993028e+01 4.255000e+00
         vertex 1.614591e+02 4.142028e+01 4.255000e+00
      endloop
   endfacet
   facet normal 0.000000e+00 0.000000e+00 1.000000e+00
      outer loop
         vertex 1.614591e+02 4.142028e+01 4.255000e+00
         vertex 1.714591e+02 4.993028e+01 4.255000e+00
         vertex 1.614591e+02 4.993028e+01 4.255000e+00
      endloop
   endfacet
   facet normal 0.000000e+00 -1.000000e+00 0.000000e+00
      outer loop
         vertex 1.714591e+02 4.142028e+01 -4.255000e+00
         vertex 1.714591e+02 4.142028e+01 4.255000e+00
         vertex 1.614591e+02 4.142028e+01 -4.255000e+00
      endloop
   endfacet
   facet normal 0.000000e+00 -1.000000e+00 0.000000e+00
      outer loop
         vertex 1.614591e+02 4.142028e+01 -4.255000e+00
         vertex 1.714591e+02 4.142028e+01 4.255000e+00
         vertex 1.614591e+02 4.142028e+01 4.255000e+00
      endloop
   endfacet
   facet normal 1.000000e+00 0.000000e+00 0.000000e+00
      outer loop
         vertex 1.714591e+02 4.993028e+01 4.255000e+00
         vertex 1.714591e+02 4.142028e+01 4.255000e+00
         vertex 1.714591e+02 4.993028e+01 -4.255000e+00
      endloop
   endfacet
   facet normal 1.000000e+00 0.000000e+00 0.000000e+00
      outer loop
         vertex 1.714591e+02 4.993028e+01 -4.255000e+00
         vertex 1.714591e+02 4.142028e+01 4.255000e+00
         vertex 1.714591e+02 4.142028e+01 -4.255000e+00
      endloop
   endfacet
   facet normal -1.000000e+00 0.000000e+00 0.000000e+00
      outer loop
         vertex 1.614591e+02 4.142028e+01 4.255000e+00
         vertex 1.614591e+02 4.993028e+01 4.255000e+00
         vertex 1.614591e+02 4.142028e+01 -4.255000e+00
      endloop
   endfacet
   facet normal -1.000000e+00 0.000000e+00 0.000000e+00
      outer loop
         vertex 1.614591e+02 4.142028e+01 -4.255000e+00
         vertex 1.614591e+02 4.993028e+01 4.255000e+00
         vertex 1.614591e+02 4.993028e+01 -4.255000e+00
      endloop
   endfacet
endsolid