**ABCDEFGHIJKLMNOPQRSTUVWXYZabcdefghijklmnopqrstuvwxyz**************************
**PARASOLID !"#$%&'()*+,-./:;<=>?@[\]^_`{|}~0123456789**************************
**PART1;
MC=AMD64;
MC_MODEL=AMD64 Family 23 Model 1 Stepping 1, AuthenticAMD;
MC_ID=unknown;
OS=Windows_NT;
OS_RELEASE=unknown;
FRU=Parasolid Version 31.1, build 278,  7-15-2019;
APPL=SOLIDWORKS 2020-2019269;
SITE=;
USER=unknown;
FORMAT=text;
GUISE=transmit;
KEY=Original;
FILE=Original.x_t;
DATE=Sun Jun  7 19:19:31 2020;
**PART2;
SCH=SCH_3101278_31100;
USFLD_SIZE=0;
**PART3;
**END_OF_HEADER*****************************************************************
T51 : TRANSMIT FILE created by modeller version 310127823 SCH_3101278_31100_1300
6222 0 12 34 CCCCCCI4 mesh1006 0 I8 polyline1008 0 CCCCCCCDI5 owner1040 0 CCCCCC
I13 boundary_mesh1006 0 I17 boundary_polyline1008 0 CCCA16 index_map_offset0 0 1
 dA9 index_map82 0 A17 node_id_index_map82 0 A20 schema_embedding_map82 0 A5 chi
ld12 0 A14 lowest_node_id0 0 1 dA16 mesh_offset_data206 0 Z1 383 2 3 0 0 0 0 0 0
 1e3 1e-8 0 4 0 1 0 1 1 5 6 7 8 0 0 9 10 11 0 0 0 0 0 0 0 81 255 2 2 371 12 1 13
 0 0 0 0 14 70 11 CI9 list_type0 0 1 uI10 notransmit0 0 1 lCCCDCCDI12 finger_ind
ex0 0 1 dI12 finger_block1012 0 CZ3 0 4 T1 0 0 9 20 1 15 15 13 255 5 99 0 1 0 16
 0 0 17 0 50 255 6 94 0 16 18 0 0 +.0762 -.0381 .0254 -1 0 0 0 0 1 30 255 7 98 0
 10 19 0 0 +.0762 .0381 .0254 0 0 -1 29 255 8 75 0 20 21 0 .0762 -.0381 0 19 8 C
CCCCCCA5 owner12 0 Z9 33 0 1 17 0 22 V0 16 255 10 82 0 ?23 0 24 7 0 0 1 18 255 1
1 30 0 25 0 26 27 ?1 17 255 25 0 28 29 30 11 31 32 0 33 +18 26 27 0 30 11 34 35
 ?1 29 27 32 0 11 35 36 .0762 -.0381 .0254 29 35 29 0 26 37 27 -.0762 -.0381 .02
54 29 36 78 0 38 27 39 .0762 .0381 0 18 38 69 0 40 41 0 36 ?1 29 39 77 0 41 36 2
1 -.0762 .0381 0 18 41 68 0 42 43 38 39 ?1 29 21 76 0 43 39 8 -.0762 -.0381 0 18
 43 67 0 44 20 41 21 ?1 17 44 0 45 46 47 43 48 49 0 50 +18 20 66 0 51 52 43 8 ?1
 17 51 0 53 33 50 20 54 55 0 56 +18 52 21 0 57 34 20 58 ?1 17 57 0 59 23 60 52 6
1 62 0 29 -18 34 24 0 61 26 52 37 ?1 29 58 23 0 52 0 37 .0762 .0381 .0254 29 37
 26 0 34 58 35 -.0762 .0381 .0254 17 61 0 28 30 29 34 57 62 0 60 +15 255 28 4 0
 29 63 0 17 30 0 28 25 61 26 64 65 0 46 +17 29 0 28 61 25 52 66 67 0 68 +16 62 9
 0 ?61 65 67 69 0 0 1 17 60 0 59 57 42 34 47 24 0 64 -15 59 87 0 42 70 0 17 42 0
 59 60 23 41 40 71 0 47 +17 47 0 45 44 64 41 60 24 0 48 +16 24 81 0 ?47 10 72 19
 0 0 1 17 64 0 45 47 46 34 30 65 0 0 -15 45 85 0 44 73 0 17 46 0 45 64 44 26 50
 72 0 31 -16 65 13 0 ?30 32 62 74 0 0 1 16 32 17 0 ?25 75 65 76 0 0 1 30 74 15 0
 65 69 76 0 +-.0762 -.0381 .0254 0 -1 0 30 69 11 0 62 77 74 0 +-.0762 .0381 .025
4 -1 0 0 30 76 19 0 32 74 78 0 +-.0762 -.0381 .0254 1 0 0 30 78 74 0 79 76 80 0
 +.0762 -.0381 0 0 1 0 16 79 62 0 ?81 71 82 78 0 0 1 30 80 73 0 71 78 83 0 +-.07
62 .0381 0 -1 0 0 16 71 58 0 ?42 49 79 80 0 0 1 30 83 72 0 49 80 84 0 +-.0762 -.
0381 0 0 -1 0 16 49 54 0 ?44 55 71 83 0 0 1 30 84 71 0 55 83 85 0 +-.0762 -.0381
 0 1 0 0 16 55 50 0 ?51 67 49 84 0 0 1 30 85 95 0 75 84 86 0 +.0762 -.0381 .0254
 0 0 -1 16 75 79 0 ?56 72 32 85 0 0 1 30 86 96 0 72 85 19 0 +-.0762 -.0381 .0254
 0 0 -1 16 72 80 0 ?50 24 75 86 0 0 1 30 19 97 0 24 86 7 0 +-.0762 .0381 .0254 0
 0 -1 17 50 0 53 51 31 43 46 72 0 54 +15 53 83 0 51 87 0 17 31 0 53 50 33 26 25
 32 0 0 -17 54 0 88 48 89 43 51 55 0 0 -15 88 49 0 89 90 0 17 48 0 88 40 54 41 4
4 49 0 0 -17 89 0 88 54 40 20 81 79 0 0 -17 40 0 88 89 48 38 42 71 0 23 -17 81 0
 91 68 56 38 89 79 0 0 +15 91 89 0 81 16 0 17 68 0 91 66 81 52 23 10 0 0 -17 56
 0 91 81 66 20 33 75 0 89 +17 66 0 91 56 68 11 29 67 0 0 -17 33 0 53 31 51 11 56
 75 0 66 -16 67 5 0 ?29 62 55 77 0 0 1 30 77 7 0 67 92 69 0 +.0762 -.0381 .0254
 0 1 0 31 255 92 170 0 93 94 77 0 +-.0381 -.0254 .0254 0 0 1 1 0 0 .0047625 16 9
3 151 0 ?95 82 96 92 0 0 1 31 94 171 0 82 97 92 0 +-.0381 -.0254 .0127 0 0 1 1 0
 0 .0047625 16 82 148 0 ?98 79 93 94 0 0 1 31 97 244 0 99 100 94 0 +.0635 .0254
 0 0 0 -1 -1 0 0 .0047625 16 99 220 0 ?101 102 0 97 0 0 1 31 100 245 0 102 103 9
7 0 +.0635 .0254 .0127 0 0 -1 -1 0 0 .0047625 16 102 217 0 ?104 105 99 100 0 0 1
 31 103 246 0 105 106 100 0 +-.0635 .0254 0 0 0 -1 -1 0 0 .0047625 16 105 202 0
 ?107 96 102 103 0 0 1 31 106 247 0 96 0 103 0 +-.0635 .0254 .0127 0 0 -1 -1 0 0
 .0047625 16 96 199 0 ?108 93 105 106 0 0 1 17 108 0 109 108 108 0 110 96 0 0 +1
5 109 212 0 108 111 0 17 110 0 112 110 110 0 108 96 0 0 -15 112 208 0 110 113 11
4 14 255 113 205 115 ?111 116 112 5 117 -0 0 111 116 22 15 114 209 0 107 113 0 1
7 107 0 114 107 107 0 118 105 0 0 +17 118 0 119 118 118 0 107 105 0 0 -15 119 19
4 0 118 90 120 14 90 48 121 ?122 63 119 5 123 +0 0 122 63 22 15 120 188 0 124 90
 88 17 124 0 120 124 124 0 101 99 0 0 -17 101 0 125 101 101 0 124 99 0 0 +15 125
 227 0 101 126 0 14 126 223 127 ?116 128 129 5 130 -0 0 116 128 22 81 1 127 374
 131 126 132 0 121 133 134 14 116 228 133 ?113 126 135 5 136 +0 0 113 126 22 14
 128 159 137 ?126 122 138 5 139 +0 0 126 122 22 15 129 226 0 140 126 125 51 255
 130 238 0 126 136 139 0 +.0635 .0254 .0127 0 0 -1 .0047625 -1 0 0 13 22 34 0 0
 0 0 0 0 9 16 14 16 90 141 ?70 0 91 5 6 -0 0 70 0 22 81 1 141 377 131 16 142 0 1
37 143 144 14 70 88 143 ?73 16 59 5 18 -0 0 73 16 22 81 1 143 378 131 70 145 0 1
41 146 147 14 73 86 146 ?87 70 45 5 148 -0 0 87 70 22 50 18 93 0 70 148 6 0 +-.0
762 .0381 .0254 0 -1 0 0 0 -1 50 148 92 0 73 149 18 0 +-.0762 -.0381 .0254 1 0 0
 0 0 -1 50 149 91 0 87 123 148 0 +-.0762 -.0381 .0254 0 1 0 0 0 1 14 87 84 150 ?
63 73 53 5 149 -0 0 63 73 22 50 123 70 0 90 151 149 0 +0 0 0 0 0 -1 -1 0 0 50 15
1 3 0 63 152 123 0 +0 0 .0254 0 0 -1 -1 0 0 14 63 1 153 ?90 87 154 5 151 -0 0 90
 87 22 51 152 167 0 122 139 151 0 +-.0381 -.0254 .0127 0 0 1 .0047625 1 0 0 14 1
22 154 155 ?128 90 156 5 152 -0 0 128 90 22 50 139 169 0 128 130 152 0 +-.0381 -
.0254 .0127 0 0 1 1 0 0 81 1 155 382 131 122 157 0 153 158 159 15 156 157 0 160
 122 161 17 160 0 156 160 160 0 98 82 0 0 -15 161 158 0 95 122 0 17 95 0 161 95
 95 0 162 93 0 0 +17 162 0 154 162 162 0 95 93 0 0 -15 154 142 0 162 63 28 17 98
 0 138 98 98 0 160 82 0 0 +15 138 161 0 98 128 0 80 255 1 131 163 164 9000 1 1 1
 1 1 1 1 1 0 FFFFTFTFFFFFFF1 81 1 157 340 165 122 0 155 166 167 168 81 1 153 381
 131 63 169 0 150 155 170 81 1 158 383 131 111 171 0 155 0 172 82 255 1 159 -743
112516 14 111 210 158 ?0 113 109 5 173 +0 0 0 113 22 81 1 171 345 165 111 0 158
 174 0 175 82 1 172 -729808706 80 1 165 0 176 8001 0 0 0 0 3 5 0 0 0 FFFFTFTFFFF
FFF2 81 1 174 344 165 113 0 115 177 171 178 83 255 3 175 .792156862745098 .81960
7843137255 .933333333333333 81 1 115 372 131 113 174 0 0 121 179 81 1 177 343 16
5 116 0 133 132 174 180 83 3 178 .792156862745098 .819607843137255 .933333333333
333 81 1 133 375 131 116 177 0 127 137 181 81 1 132 342 165 126 0 127 167 177 18
2 83 3 180 .792156862745098 .819607843137255 .933333333333333 81 1 167 341 165 1
28 0 137 157 132 183 83 3 182 .792156862745098 .819607843137255 .933333333333333
 81 1 137 376 131 128 167 0 133 141 184 83 3 183 .792156862745098 .8196078431372
55 .933333333333333 82 1 184 -745078596 82 1 181 -725811010 81 1 121 373 131 90
 166 0 115 127 185 82 1 179 -727842626 81 1 166 339 165 90 0 121 169 157 186 82
 1 185 -1904082754 81 1 169 338 165 63 0 153 187 166 188 83 3 186 .7921568627450
98 .819607843137255 .933333333333333 81 1 187 337 165 87 0 150 189 169 190 83 3
 188 .792156862745098 .819607843137255 .933333333333333 81 1 150 380 131 87 187
 0 146 153 191 81 1 189 336 165 73 0 146 145 187 192 83 3 190 .792156862745098 .
819607843137255 .933333333333333 81 1 146 379 131 73 189 0 143 150 193 81 1 145
 335 165 70 0 143 142 189 194 83 3 192 .792156862745098 .819607843137255 .933333
333333333 81 1 142 334 165 16 0 141 0 145 195 83 3 194 .792156862745098 .8196078
43137255 .933333333333333 83 3 195 .792156862745098 .819607843137255 .9333333333
33333 82 1 193 -1902903135 82 1 191 -1903165279 79 255 15 176 SDL/TYSA_COLOUR50
 173 243 0 111 0 117 0 +-.0635 .0254 .0127 0 0 -1 -1 0 0 51 117 241 0 113 173 13
6 0 +-.0635 .0254 .0127 0 0 -1 .0047625 -1 0 0 50 136 240 0 116 117 130 0 +.0635
 .0254 .0127 0 0 -1 -1 0 0 82 1 170 -1909718852 83 3 168 .792156862745098 .81960
7843137255 .933333333333333 79 14 164 SWEntUnchanged82 1 147 -1902640991 82 1 14
4 -1902378847 17 140 0 129 140 140 0 104 102 0 0 -17 104 0 135 104 104 0 140 102
 0 0 +15 135 230 0 104 116 0 82 1 134 -723844930 17 23 0 59 42 57 38 68 10 0 81
 +19 17 100 0 1 0 9 5 S0 74 4 CI16 index_map_offset0 0 1 dCCZ20 15 9 0 0 196 197
 158 198 199 200 13 171 2 0 0 0 0 0 0 0 0 0 0 0 81 2 196 124 201 1 0 197 0 0 0 2
02 81 2 197 128 203 1 196 198 0 0 0 204 81 1 198 264 205 1 197 199 0 0 206 81 2
 199 276 207 1 198 200 0 0 0 0 81 2 200 290 208 1 199 13 0 0 209 0 81 2 13 333 2
10 1 200 2 0 0 0 211 80 2 210 212 213 9000 0 0 0 0 3 5 0 0 0 FFTFFFFFFFFFFF9 1 8
2 1 211 1 79 24 213 BODY_IN_LIGHTWEIGHT_PERM80 2 208 214 215 8004 0 0 0 0 3 5 0
 0 0 FFTFFFFFFFFFFF2 3 83 1 209 1 79 16 215 SDL/TYSA_DENSITY80 2 207 216 217 900
0 0 0 0 0 3 5 0 0 0 FFTFFFFFFFFFFF9 1 79 16 217 BODY_RECIPE_200180 1 205 218 219
 9000 1 1 1 1 1 1 1 1 0 FFTFFFFFFFFFFF1 82 1 206 101930 79 10 219 BODY_MATCH80 2
 203 220 221 9000 0 0 0 0 3 5 0 0 0 FFTFFFFFFFFFFF9 1 82 1 204 79 79 30 221 LAST
_BODY_MODIFYING_FEATURE_ID80 2 201 222 223 9000 0 0 0 0 3 5 0 0 0 FFTFFFFFFFFFFF
9 1 82 1 202 177 79 19 223 ENT_TIME_STAMP_200180 2 12 224 225 9000 0 0 0 0 3 5 0
 0 0 FFTFFFFFFFFFFF9 1 82 1 14 103 79 12 225 ATOM_ID_20011 0 
