solid ISO_Neck_Anchor
   facet normal -0.000000e+00 1.000000e+00 0.000000e+00
      outer loop
         vertex -1.642011e+01 6.567528e+01 1.500000e+01
         vertex 1.614591e+02 6.567528e+01 1.500000e+01
         vertex -1.642011e+01 6.567528e+01 -1.500000e+01
      endloop
   endfacet
   facet normal 0.000000e+00 1.000000e+00 0.000000e+00
      outer loop
         vertex -1.642011e+01 6.567528e+01 -1.500000e+01
         vertex 1.614591e+02 6.567528e+01 1.500000e+01
         vertex 1.614591e+02 6.567528e+01 -1.500000e+01
      endloop
   endfacet
   facet normal -8.191520e-01 -5.735764e-01 -0.000000e+00
      outer loop
         vertex 2.645906e+01 4.437471e+00 1.500000e+01
         vertex -1.642011e+01 6.567528e+01 1.500000e+01
         vertex 2.645906e+01 4.437471e+00 -1.500000e+01
      endloop
   endfacet
   facet normal -8.191520e-01 -5.735764e-01 0.000000e+00
      outer loop
         vertex 2.645906e+01 4.437471e+00 -1.500000e+01
         vertex -1.642011e+01 6.567528e+01 1.500000e+01
         vertex -1.642011e+01 6.567528e+01 -1.500000e+01
      endloop
   endfacet
   facet normal -0.000000e+00 -1.000000e+00 -0.000000e+00
      outer loop
         vertex 1.614591e+02 4.437471e+00 1.500000e+01
         vertex 2.645906e+01 4.437471e+00 1.500000e+01
         vertex 1.614591e+02 4.437471e+00 -1.500000e+01
      endloop
   endfacet
   facet normal 0.000000e+00 -1.000000e+00 0.000000e+00
      outer loop
         vertex 1.614591e+02 4.437471e+00 -1.500000e+01
         vertex 2.645906e+01 4.437471e+00 1.500000e+01
         vertex 2.645906e+01 4.437471e+00 -1.500000e+01
      endloop
   endfacet
   facet normal 1.000000e+00 0.000000e+00 0.000000e+00
      outer loop
         vertex 1.614591e+02 6.567528e+01 1.500000e+01
         vertex 1.614591e+02 4.437471e+00 1.500000e+01
         vertex 1.614591e+02 6.567528e+01 -1.500000e+01
      endloop
   endfacet
   facet normal 1.000000e+00 0.000000e+00 0.000000e+00
      outer loop
         vertex 1.614591e+02 6.567528e+01 -1.500000e+01
         vertex 1.614591e+02 4.437471e+00 1.500000e+01
         vertex 1.614591e+02 4.437471e+00 -1.500000e+01
      endloop
   endfacet
   facet normal 0.000000e+00 -0.000000e+00 1.000000e+00
      outer loop
         vertex 2.645906e+01 4.437471e+00 1.500000e+01
         vertex 1.614591e+02 4.437471e+00 1.500000e+01
         vertex -1.642011e+01 6.567528e+01 1.500000e+01
      endloop
   endfacet
   facet normal -0.000000e+00 0.000000e+00 1.000000e+00
      outer loop
         vertex -1.642011e+01 6.567528e+01 1.500000e+01
         vertex 1.614591e+02 4.437471e+00 1.500000e+01
         vertex 1.614591e+02 6.567528e+01 1.500000e+01
      endloop
   endfacet
   facet normal 0.000000e+00 0.000000e+00 -1.000000e+00
      outer loop
         vertex 1.614591e+02 4.437471e+00 -1.500000e+01
         vertex 2.645906e+01 4.437471e+00 -1.500000e+01
         vertex 1.614591e+02 6.567528e+01 -1.500000e+01
      endloop
   endfacet
   facet normal -0.000000e+00 0.000000e+00 -1.000000e+00
      outer loop
         vertex 1.614591e+02 6.567528e+01 -1.500000e+01
         vertex 2.645906e+01 4.437471e+00 -1.500000e+01
         vertex -1.642011e+01 6.567528e+01 -1.500000e+01
      endloop
   endfacet
endsolid