solid STL generated by MeshLab
  facet normal  0.000000e+00  0.000000e+00 -1.000000e+00
    outer loop
      vertex   5.145906e+01  2.567528e+01 -3.000000e+01
      vertex   5.145906e+01  6.567528e+01 -3.000000e+01
      vertex   1.614591e+02  2.567528e+01 -3.000000e+01
    endloop
  endfacet
  facet normal  0.000000e+00  0.000000e+00 -1.000000e+00
    outer loop
      vertex   1.614591e+02  2.567528e+01 -3.000000e+01
      vertex   5.145906e+01  6.567528e+01 -3.000000e+01
      vertex   1.614591e+02  6.567528e+01 -3.000000e+01
    endloop
  endfacet
  facet normal  0.000000e+00 -1.000000e+00  0.000000e+00
    outer loop
      vertex   5.145906e+01  2.567528e+01  3.000000e+01
      vertex   5.145906e+01  2.567528e+01 -3.000000e+01
      vertex   1.614591e+02  2.567528e+01  3.000000e+01
    endloop
  endfacet
  facet normal  0.000000e+00 -1.000000e+00 -0.000000e+00
    outer loop
      vertex   1.614591e+02  2.567528e+01  3.000000e+01
      vertex   5.145906e+01  2.567528e+01 -3.000000e+01
      vertex   1.614591e+02  2.567528e+01 -3.000000e+01
    endloop
  endfacet
  facet normal -0.000000e+00  0.000000e+00  1.000000e+00
    outer loop
      vertex   5.145906e+01  6.567528e+01  3.000000e+01
      vertex   5.145906e+01  2.567528e+01  3.000000e+01
      vertex   1.614591e+02  6.567528e+01  3.000000e+01
    endloop
  endfacet
  facet normal  0.000000e+00  0.000000e+00  1.000000e+00
    outer loop
      vertex   1.614591e+02  6.567528e+01  3.000000e+01
      vertex   5.145906e+01  2.567528e+01  3.000000e+01
      vertex   1.614591e+02  2.567528e+01  3.000000e+01
    endloop
  endfacet
  facet normal  0.000000e+00  1.000000e+00  0.000000e+00
    outer loop
      vertex   5.145906e+01  6.567528e+01 -3.000000e+01
      vertex   5.145906e+01  6.567528e+01  3.000000e+01
      vertex   1.614591e+02  6.567528e+01 -3.000000e+01
    endloop
  endfacet
  facet normal  0.000000e+00  1.000000e+00 -0.000000e+00
    outer loop
      vertex   1.614591e+02  6.567528e+01 -3.000000e+01
      vertex   5.145906e+01  6.567528e+01  3.000000e+01
      vertex   1.614591e+02  6.567528e+01  3.000000e+01
    endloop
  endfacet
  facet normal -1.000000e+00  0.000000e+00  0.000000e+00
    outer loop
      vertex   5.145906e+01  2.567528e+01  3.000000e+01
      vertex   5.145906e+01  6.567528e+01  3.000000e+01
      vertex   5.145906e+01  2.567528e+01 -3.000000e+01
    endloop
  endfacet
  facet normal -1.000000e+00  0.000000e+00  0.000000e+00
    outer loop
      vertex   5.145906e+01  2.567528e+01 -3.000000e+01
      vertex   5.145906e+01  6.567528e+01  3.000000e+01
      vertex   5.145906e+01  6.567528e+01 -3.000000e+01
    endloop
  endfacet
  facet normal  1.000000e+00  0.000000e+00  0.000000e+00
    outer loop
      vertex   1.614591e+02  6.567528e+01  3.000000e+01
      vertex   1.614591e+02  2.567528e+01  3.000000e+01
      vertex   1.614591e+02  6.567528e+01 -3.000000e+01
    endloop
  endfacet
  facet normal  1.000000e+00  0.000000e+00  0.000000e+00
    outer loop
      vertex   1.614591e+02  6.567528e+01 -3.000000e+01
      vertex   1.614591e+02  2.567528e+01  3.000000e+01
      vertex   1.614591e+02  2.567528e+01 -3.000000e+01
    endloop
  endfacet
endsolid vcg
