solid OpenSCAD_Model
  facet normal -0 0 1
    outer loop
      vertex 4.75 0.25 0.25
      vertex 5.25 -0.25 0.25
      vertex 5.25 0.25 0.25
    endloop
  endfacet
  facet normal 0 0 1
    outer loop
      vertex 5.25 -0.25 0.25
      vertex 4.75 0.25 0.25
      vertex 4.75 -0.25 0.25
    endloop
  endfacet
  facet normal 0 0 -1
    outer loop
      vertex 4.75 -0.25 -0.25
      vertex 5.25 0.25 -0.25
      vertex 5.25 -0.25 -0.25
    endloop
  endfacet
  facet normal -0 0 -1
    outer loop
      vertex 5.25 0.25 -0.25
      vertex 4.75 -0.25 -0.25
      vertex 4.75 0.25 -0.25
    endloop
  endfacet
  facet normal 0 -1 0
    outer loop
      vertex 4.75 -0.25 -0.25
      vertex 5.25 -0.25 0.25
      vertex 4.75 -0.25 0.25
    endloop
  endfacet
  facet normal 0 -1 -0
    outer loop
      vertex 5.25 -0.25 0.25
      vertex 4.75 -0.25 -0.25
      vertex 5.25 -0.25 -0.25
    endloop
  endfacet
  facet normal 1 -0 0
    outer loop
      vertex 5.25 -0.25 0.25
      vertex 5.25 0.25 -0.25
      vertex 5.25 0.25 0.25
    endloop
  endfacet
  facet normal 1 0 0
    outer loop
      vertex 5.25 0.25 -0.25
      vertex 5.25 -0.25 0.25
      vertex 5.25 -0.25 -0.25
    endloop
  endfacet
  facet normal 0 1 -0
    outer loop
      vertex 5.25 0.25 -0.25
      vertex 4.75 0.25 0.25
      vertex 5.25 0.25 0.25
    endloop
  endfacet
  facet normal 0 1 0
    outer loop
      vertex 4.75 0.25 0.25
      vertex 5.25 0.25 -0.25
      vertex 4.75 0.25 -0.25
    endloop
  endfacet
  facet normal -1 0 0
    outer loop
      vertex 4.75 -0.25 -0.25
      vertex 4.75 0.25 0.25
      vertex 4.75 0.25 -0.25
    endloop
  endfacet
  facet normal -1 -0 0
    outer loop
      vertex 4.75 0.25 0.25
      vertex 4.75 -0.25 -0.25
      vertex 4.75 -0.25 0.25
    endloop
  endfacet
endsolid OpenSCAD_Model
