solid load
   facet normal 6.172107e-02 9.505657e-02 9.935566e-01
      outer loop
         vertex 1.994742e+00 4.472459e+01 5.484960e+01
         vertex 3.810379e+01 4.747948e+01 5.234289e+01
         vertex 1.978433e+00 4.747948e+01 5.458704e+01
      endloop
   endfacet
   facet normal 5.949033e-02 2.817317e-01 9.576472e-01
      outer loop
         vertex 1.978433e+00 4.747948e+01 5.458704e+01
         vertex 3.810379e+01 4.747948e+01 5.234289e+01
         vertex 3.805545e+01 5.013479e+01 5.156472e+01
      endloop
   endfacet
   facet normal 5.949033e-02 2.817317e-01 9.576472e-01
      outer loop
         vertex 1.978433e+00 4.747948e+01 5.458704e+01
         vertex 3.805545e+01 5.013479e+01 5.156472e+01
         vertex 1.930092e+00 5.013479e+01 5.380888e+01
      endloop
   endfacet
   facet normal 5.510941e-02 4.582268e-01 8.871252e-01
      outer loop
         vertex 1.930092e+00 5.013479e+01 5.380888e+01
         vertex 3.805545e+01 5.013479e+01 5.156472e+01
         vertex 3.797683e+01 5.259457e+01 5.029906e+01
      endloop
   endfacet
   facet normal 5.510940e-02 4.582268e-01 8.871252e-01
      outer loop
         vertex 1.930092e+00 5.013479e+01 5.380888e+01
         vertex 3.797683e+01 5.259457e+01 5.029906e+01
         vertex 1.851466e+00 5.259457e+01 5.254321e+01
      endloop
   endfacet
   facet normal 4.873671e-02 6.181591e-01 7.845406e-01
      outer loop
         vertex 1.851466e+00 5.259457e+01 5.254321e+01
         vertex 3.797683e+01 5.259457e+01 5.029906e+01
         vertex 3.787076e+01 5.476990e+01 4.859165e+01
      endloop
   endfacet
   facet normal 4.873672e-02 6.181591e-01 7.845407e-01
      outer loop
         vertex 1.851466e+00 5.259457e+01 5.254321e+01
         vertex 3.787076e+01 5.476990e+01 4.859165e+01
         vertex 1.745399e+00 5.476990e+01 5.083580e+01
      endloop
   endfacet
   facet normal 4.060257e-02 7.557493e-01 6.536011e-01
      outer loop
         vertex 1.745399e+00 5.476990e+01 5.083580e+01
         vertex 3.787076e+01 5.476990e+01 4.859165e+01
         vertex 3.774109e+01 5.658217e+01 4.650420e+01
      endloop
   endfacet
   facet normal 4.060247e-02 7.557499e-01 6.536004e-01
      outer loop
         vertex 1.745399e+00 5.476990e+01 5.083580e+01
         vertex 3.774109e+01 5.658217e+01 4.650420e+01
         vertex 1.615725e+00 5.658217e+01 4.874835e+01
      endloop
   endfacet
   facet normal 3.100083e-02 8.660257e-01 4.990376e-01
      outer loop
         vertex 1.615725e+00 5.658217e+01 4.874835e+01
         vertex 3.774109e+01 5.658217e+01 4.650420e+01
         vertex 3.759249e+01 5.796588e+01 4.411216e+01
      endloop
   endfacet
   facet normal 3.100092e-02 8.660253e-01 4.990381e-01
      outer loop
         vertex 1.615725e+00 5.658217e+01 4.874835e+01
         vertex 3.759249e+01 5.796588e+01 4.411216e+01
         vertex 1.467127e+00 5.796588e+01 4.635631e+01
      endloop
   endfacet
   facet normal 2.027884e-02 9.450007e-01 3.264391e-01
      outer loop
         vertex 1.467127e+00 5.796588e+01 4.635631e+01
         vertex 3.759249e+01 5.796588e+01 4.411216e+01
         vertex 3.743034e+01 5.887101e+01 4.150198e+01
      endloop
   endfacet
   facet normal 2.027884e-02 9.450007e-01 3.264391e-01
      outer loop
         vertex 1.467127e+00 5.796588e+01 4.635631e+01
         vertex 3.743034e+01 5.887101e+01 4.150198e+01
         vertex 1.304980e+00 5.887101e+01 4.374614e+01
      endloop
   endfacet
   facet normal 8.823802e-03 9.898214e-01 1.420414e-01
      outer loop
         vertex 1.304980e+00 5.887101e+01 4.374614e+01
         vertex 3.743034e+01 5.887101e+01 4.150198e+01
         vertex 3.726050e+01 5.926486e+01 3.876800e+01
      endloop
   endfacet
   facet normal 8.823802e-03 9.898214e-01 1.420414e-01
      outer loop
         vertex 1.304980e+00 5.887101e+01 4.374614e+01
         vertex 3.726050e+01 5.926486e+01 3.876800e+01
         vertex 1.135143e+00 5.926486e+01 4.101216e+01
      endloop
   endfacet
   facet normal -2.950226e-03 9.988673e-01 -4.749134e-02
      outer loop
         vertex 1.135143e+00 5.926486e+01 4.101216e+01
         vertex 3.726050e+01 5.926486e+01 3.876800e+01
         vertex 3.708911e+01 5.913318e+01 3.600904e+01
      endloop
   endfacet
   facet normal -2.950226e-03 9.988673e-01 -4.749134e-02
      outer loop
         vertex 1.135143e+00 5.926486e+01 4.101216e+01
         vertex 3.708911e+01 5.913318e+01 3.600904e+01
         vertex 9.637512e-01 5.913318e+01 3.825320e+01
      endloop
   endfacet
   facet normal -1.461742e-02 9.718118e-01 -2.353043e-01
      outer loop
         vertex 9.637512e-01 5.913318e+01 3.825320e+01
         vertex 3.708911e+01 5.913318e+01 3.600904e+01
         vertex 3.692237e+01 5.848074e+01 3.332481e+01
      endloop
   endfacet
   facet normal -1.461742e-02 9.718118e-01 -2.353043e-01
      outer loop
         vertex 9.637512e-01 5.913318e+01 3.825320e+01
         vertex 3.692237e+01 5.848074e+01 3.332481e+01
         vertex 7.970035e-01 5.848074e+01 3.556897e+01
      endloop
   endfacet
   facet normal -2.575656e-02 9.096315e-01 -4.146170e-01
      outer loop
         vertex 7.970035e-01 5.848074e+01 3.556897e+01
         vertex 3.692237e+01 5.848074e+01 3.332481e+01
         vertex 3.676629e+01 5.733111e+01 3.081233e+01
      endloop
   endfacet
   facet normal -2.575652e-02 9.096316e-01 -4.146167e-01
      outer loop
         vertex 7.970035e-01 5.848074e+01 3.556897e+01
         vertex 3.676629e+01 5.733111e+01 3.081233e+01
         vertex 6.409250e-01 5.733111e+01 3.305648e+01
      endloop
   endfacet
   facet normal -3.596455e-02 8.145760e-01 -5.789408e-01
      outer loop
         vertex 6.409250e-01 5.733111e+01 3.305648e+01
         vertex 3.676629e+01 5.733111e+01 3.081233e+01
         vertex 3.662652e+01 5.572585e+01 2.856240e+01
      endloop
   endfacet
   facet normal -3.596455e-02 8.145760e-01 -5.789408e-01
      outer loop
         vertex 6.409250e-01 5.733111e+01 3.305648e+01
         vertex 3.662652e+01 5.572585e+01 2.856240e+01
         vertex 5.011559e-01 5.572585e+01 3.080655e+01
      endloop
   endfacet
   facet normal -4.487274e-02 6.900798e-01 -7.223408e-01
      outer loop
         vertex 5.011559e-01 5.572585e+01 3.080655e+01
         vertex 3.662652e+01 5.572585e+01 2.856240e+01
         vertex 3.650811e+01 5.372298e+01 2.665634e+01
      endloop
   endfacet
   facet normal -4.487280e-02 6.900795e-01 -7.223412e-01
      outer loop
         vertex 5.011559e-01 5.572585e+01 3.080655e+01
         vertex 3.650811e+01 5.372298e+01 2.665634e+01
         vertex 3.827494e-01 5.372298e+01 2.890049e+01
      endloop
   endfacet
   facet normal -5.215927e-02 5.406404e-01 -8.396352e-01
      outer loop
         vertex 3.827494e-01 5.372298e+01 2.890049e+01
         vertex 3.650811e+01 5.372298e+01 2.665634e+01
         vertex 3.641535e+01 5.139488e+01 2.516304e+01
      endloop
   endfacet
   facet normal -5.215927e-02 5.406404e-01 -8.396352e-01
      outer loop
         vertex 3.827494e-01 5.372298e+01 2.890049e+01
         vertex 3.641535e+01 5.139488e+01 2.516304e+01
         vertex 2.899840e-01 5.139488e+01 2.740719e+01
      endloop
   endfacet
   facet normal -5.756050e-02 3.716623e-01 -9.265818e-01
      outer loop
         vertex 2.899840e-01 5.139488e+01 2.740719e+01
         vertex 3.641535e+01 5.139488e+01 2.516304e+01
         vertex 3.635157e+01 4.882570e+01 2.413647e+01
      endloop
   endfacet
   facet normal -5.756050e-02 3.716623e-01 -9.265818e-01
      outer loop
         vertex 2.899840e-01 5.139488e+01 2.740719e+01
         vertex 3.635157e+01 4.882570e+01 2.413647e+01
         vertex 2.262127e-01 4.882570e+01 2.638063e+01
      endloop
   endfacet
   facet normal -6.088136e-02 1.892514e-01 -9.800395e-01
      outer loop
         vertex 2.262127e-01 4.882570e+01 2.638063e+01
         vertex 3.635157e+01 4.882570e+01 2.413647e+01
         vertex 3.631910e+01 4.610830e+01 2.361374e+01
      endloop
   endfacet
   facet normal -6.088136e-02 1.892514e-01 -9.800395e-01
      outer loop
         vertex 2.262127e-01 4.882570e+01 2.638063e+01
         vertex 3.631910e+01 4.610830e+01 2.361374e+01
         vertex 1.937393e-01 4.610830e+01 2.585790e+01
      endloop
   endfacet
   facet normal -6.200182e-02 0.000000e+00 -9.980760e-01
      outer loop
         vertex 1.937393e-01 4.610830e+01 2.585790e+01
         vertex 3.631910e+01 4.610830e+01 2.361374e+01
         vertex 3.631910e+01 4.334089e+01 2.361374e+01
      endloop
   endfacet
   facet normal -6.200182e-02 -0.000000e+00 -9.980760e-01
      outer loop
         vertex 1.937393e-01 4.610830e+01 2.585790e+01
         vertex 3.631910e+01 4.334089e+01 2.361374e+01
         vertex 1.937393e-01 4.334089e+01 2.585790e+01
      endloop
   endfacet
   facet normal -6.088137e-02 -1.892511e-01 -9.800395e-01
      outer loop
         vertex 1.937393e-01 4.334089e+01 2.585790e+01
         vertex 3.631910e+01 4.334089e+01 2.361374e+01
         vertex 3.635157e+01 4.062348e+01 2.413647e+01
      endloop
   endfacet
   facet normal -6.088137e-02 -1.892511e-01 -9.800395e-01
      outer loop
         vertex 1.937393e-01 4.334089e+01 2.585790e+01
         vertex 3.635157e+01 4.062348e+01 2.413647e+01
         vertex 2.262127e-01 4.062348e+01 2.638063e+01
      endloop
   endfacet
   facet normal -5.756049e-02 -3.716628e-01 -9.265817e-01
      outer loop
         vertex 2.262127e-01 4.062348e+01 2.638063e+01
         vertex 3.635157e+01 4.062348e+01 2.413647e+01
         vertex 3.641535e+01 3.805431e+01 2.516304e+01
      endloop
   endfacet
   facet normal -5.756049e-02 -3.716628e-01 -9.265817e-01
      outer loop
         vertex 2.262127e-01 4.062348e+01 2.638063e+01
         vertex 3.641535e+01 3.805431e+01 2.516304e+01
         vertex 2.899840e-01 3.805431e+01 2.740719e+01
      endloop
   endfacet
   facet normal -5.215927e-02 -5.406404e-01 -8.396352e-01
      outer loop
         vertex 2.899840e-01 3.805431e+01 2.740719e+01
         vertex 3.641535e+01 3.805431e+01 2.516304e+01
         vertex 3.650811e+01 3.572621e+01 2.665634e+01
      endloop
   endfacet
   facet normal -5.215927e-02 -5.406404e-01 -8.396352e-01
      outer loop
         vertex 2.899840e-01 3.805431e+01 2.740719e+01
         vertex 3.650811e+01 3.572621e+01 2.665634e+01
         vertex 3.827494e-01 3.572621e+01 2.890049e+01
      endloop
   endfacet
   facet normal -4.487282e-02 -6.900791e-01 -7.223415e-01
      outer loop
         vertex 3.827494e-01 3.572621e+01 2.890049e+01
         vertex 3.650811e+01 3.572621e+01 2.665634e+01
         vertex 3.662652e+01 3.372334e+01 2.856240e+01
      endloop
   endfacet
   facet normal -4.487280e-02 -6.900788e-01 -7.223418e-01
      outer loop
         vertex 3.827494e-01 3.572621e+01 2.890049e+01
         vertex 3.662652e+01 3.372334e+01 2.856240e+01
         vertex 5.011559e-01 3.372334e+01 3.080655e+01
      endloop
   endfacet
   facet normal -3.596455e-02 -8.145760e-01 -5.789408e-01
      outer loop
         vertex 5.011559e-01 3.372334e+01 3.080655e+01
         vertex 3.662652e+01 3.372334e+01 2.856240e+01
         vertex 3.676629e+01 3.211808e+01 3.081233e+01
      endloop
   endfacet
   facet normal -3.596455e-02 -8.145760e-01 -5.789408e-01
      outer loop
         vertex 5.011559e-01 3.372334e+01 3.080655e+01
         vertex 3.676629e+01 3.211808e+01 3.081233e+01
         vertex 6.409250e-01 3.211808e+01 3.305648e+01
      endloop
   endfacet
   facet normal -2.575647e-02 -9.096320e-01 -4.146158e-01
      outer loop
         vertex 6.409250e-01 3.211808e+01 3.305648e+01
         vertex 3.676629e+01 3.211808e+01 3.081233e+01
         vertex 3.692237e+01 3.096845e+01 3.332481e+01
      endloop
   endfacet
   facet normal -2.575648e-02 -9.096321e-01 -4.146156e-01
      outer loop
         vertex 6.409250e-01 3.211808e+01 3.305648e+01
         vertex 3.692237e+01 3.096845e+01 3.332481e+01
         vertex 7.970035e-01 3.096845e+01 3.556897e+01
      endloop
   endfacet
   facet normal -1.461750e-02 -9.718115e-01 -2.353056e-01
      outer loop
         vertex 7.970035e-01 3.096845e+01 3.556897e+01
         vertex 3.692237e+01 3.096845e+01 3.332481e+01
         vertex 3.708911e+01 3.031601e+01 3.600904e+01
      endloop
   endfacet
   facet normal -1.461750e-02 -9.718115e-01 -2.353056e-01
      outer loop
         vertex 7.970035e-01 3.096845e+01 3.556897e+01
         vertex 3.708911e+01 3.031601e+01 3.600904e+01
         vertex 9.637512e-01 3.031601e+01 3.825320e+01
      endloop
   endfacet
   facet normal -2.950142e-03 -9.988674e-01 -4.749000e-02
      outer loop
         vertex 9.637512e-01 3.031601e+01 3.825320e+01
         vertex 3.708911e+01 3.031601e+01 3.600904e+01
         vertex 3.726050e+01 3.018433e+01 3.876800e+01
      endloop
   endfacet
   facet normal -2.950142e-03 -9.988674e-01 -4.749000e-02
      outer loop
         vertex 9.637512e-01 3.031601e+01 3.825320e+01
         vertex 3.726050e+01 3.018433e+01 3.876800e+01
         vertex 1.135143e+00 3.018433e+01 4.101216e+01
      endloop
   endfacet
   facet normal 8.823761e-03 -9.898215e-01 1.420407e-01
      outer loop
         vertex 1.135143e+00 3.018433e+01 4.101216e+01
         vertex 3.726050e+01 3.018433e+01 3.876800e+01
         vertex 3.743034e+01 3.057818e+01 4.150198e+01
      endloop
   endfacet
   facet normal 8.823761e-03 -9.898215e-01 1.420407e-01
      outer loop
         vertex 1.135143e+00 3.018433e+01 4.101216e+01
         vertex 3.743034e+01 3.057818e+01 4.150198e+01
         vertex 1.304980e+00 3.057818e+01 4.374614e+01
      endloop
   endfacet
   facet normal 2.027880e-02 -9.450009e-01 3.264385e-01
      outer loop
         vertex 1.304980e+00 3.057818e+01 4.374614e+01
         vertex 3.743034e+01 3.057818e+01 4.150198e+01
         vertex 3.759249e+01 3.148331e+01 4.411216e+01
      endloop
   endfacet
   facet normal 2.027880e-02 -9.450009e-01 3.264385e-01
      outer loop
         vertex 1.304980e+00 3.057818e+01 4.374614e+01
         vertex 3.759249e+01 3.148331e+01 4.411216e+01
         vertex 1.467127e+00 3.148331e+01 4.635631e+01
      endloop
   endfacet
   facet normal 3.100088e-02 -8.660257e-01 4.990376e-01
      outer loop
         vertex 1.467127e+00 3.148331e+01 4.635631e+01
         vertex 3.759249e+01 3.148331e+01 4.411216e+01
         vertex 3.774109e+01 3.286701e+01 4.650420e+01
      endloop
   endfacet
   facet normal 3.100087e-02 -8.660253e-01 4.990382e-01
      outer loop
         vertex 1.467127e+00 3.148331e+01 4.635631e+01
         vertex 3.774109e+01 3.286701e+01 4.650420e+01
         vertex 1.615725e+00 3.286701e+01 4.874835e+01
      endloop
   endfacet
   facet normal 4.060251e-02 -7.557493e-01 6.536011e-01
      outer loop
         vertex 1.615725e+00 3.286701e+01 4.874835e+01
         vertex 3.774109e+01 3.286701e+01 4.650420e+01
         vertex 3.787076e+01 3.467929e+01 4.859165e+01
      endloop
   endfacet
   facet normal 4.060253e-02 -7.557499e-01 6.536004e-01
      outer loop
         vertex 1.615725e+00 3.286701e+01 4.874835e+01
         vertex 3.787076e+01 3.467929e+01 4.859165e+01
         vertex 1.745399e+00 3.467929e+01 5.083580e+01
      endloop
   endfacet
   facet normal 4.873675e-02 -6.181585e-01 7.845411e-01
      outer loop
         vertex 1.745399e+00 3.467929e+01 5.083580e+01
         vertex 3.787076e+01 3.467929e+01 4.859165e+01
         vertex 3.797683e+01 3.685462e+01 5.029906e+01
      endloop
   endfacet
   facet normal 4.873675e-02 -6.181585e-01 7.845412e-01
      outer loop
         vertex 1.745399e+00 3.467929e+01 5.083580e+01
         vertex 3.797683e+01 3.685462e+01 5.029906e+01
         vertex 1.851466e+00 3.685462e+01 5.254321e+01
      endloop
   endfacet
   facet normal 5.510940e-02 -4.582268e-01 8.871252e-01
      outer loop
         vertex 1.851466e+00 3.685462e+01 5.254321e+01
         vertex 3.797683e+01 3.685462e+01 5.029906e+01
         vertex 3.805545e+01 3.931440e+01 5.156472e+01
      endloop
   endfacet
   facet normal 5.510941e-02 -4.582268e-01 8.871252e-01
      outer loop
         vertex 1.851466e+00 3.685462e+01 5.254321e+01
         vertex 3.805545e+01 3.931440e+01 5.156472e+01
         vertex 1.930092e+00 3.931440e+01 5.380888e+01
      endloop
   endfacet
   facet normal 5.949032e-02 -2.817320e-01 9.576471e-01
      outer loop
         vertex 1.930092e+00 3.931440e+01 5.380888e+01
         vertex 3.805545e+01 3.931440e+01 5.156472e+01
         vertex 3.810379e+01 4.196971e+01 5.234289e+01
      endloop
   endfacet
   facet normal 5.949032e-02 -2.817320e-01 9.576471e-01
      outer loop
         vertex 1.930092e+00 3.931440e+01 5.380888e+01
         vertex 3.810379e+01 4.196971e+01 5.234289e+01
         vertex 1.978433e+00 4.196971e+01 5.458704e+01
      endloop
   endfacet
   facet normal 6.172107e-02 -9.505644e-02 9.935566e-01
      outer loop
         vertex 1.978433e+00 4.196971e+01 5.458704e+01
         vertex 3.810379e+01 4.196971e+01 5.234289e+01
         vertex 3.812010e+01 4.472459e+01 5.260544e+01
      endloop
   endfacet
   facet normal 6.172107e-02 -9.505644e-02 9.935566e-01
      outer loop
         vertex 1.978433e+00 4.196971e+01 5.458704e+01
         vertex 3.812010e+01 4.472459e+01 5.260544e+01
         vertex 1.994742e+00 4.472459e+01 5.484960e+01
      endloop
   endfacet
   facet normal 6.172107e-02 9.505657e-02 9.935566e-01
      outer loop
         vertex 1.994742e+00 4.472459e+01 5.484960e+01
         vertex 3.812010e+01 4.472459e+01 5.260544e+01
         vertex 3.810379e+01 4.747948e+01 5.234289e+01
      endloop
   endfacet
   facet normal 9.980760e-01 1.176661e-07 -6.200189e-02
      outer loop
         vertex 3.805545e+01 5.013479e+01 5.156472e+01
         vertex 3.810379e+01 4.747948e+01 5.234289e+01
         vertex 3.721756e+01 4.472459e+01 3.807670e+01
      endloop
   endfacet
   facet normal 9.980760e-01 -3.351204e-07 -6.200180e-02
      outer loop
         vertex 3.721756e+01 4.472459e+01 3.807670e+01
         vertex 3.810379e+01 4.747948e+01 5.234289e+01
         vertex 3.812010e+01 4.472459e+01 5.260544e+01
      endloop
   endfacet
   facet normal 9.980760e-01 3.351199e-07 -6.200180e-02
      outer loop
         vertex 3.721756e+01 4.472459e+01 3.807670e+01
         vertex 3.812010e+01 4.472459e+01 5.260544e+01
         vertex 3.810379e+01 4.196971e+01 5.234289e+01
      endloop
   endfacet
   facet normal 9.980761e-01 -3.224933e-07 -6.200142e-02
      outer loop
         vertex 3.774109e+01 5.658217e+01 4.650420e+01
         vertex 3.787076e+01 5.476990e+01 4.859165e+01
         vertex 3.721756e+01 4.472459e+01 3.807670e+01
      endloop
   endfacet
   facet normal 9.980760e-01 5.186527e-07 -6.200222e-02
      outer loop
         vertex 3.721756e+01 4.472459e+01 3.807670e+01
         vertex 3.787076e+01 5.476990e+01 4.859165e+01
         vertex 3.797683e+01 5.259457e+01 5.029906e+01
      endloop
   endfacet
   facet normal 9.980760e-01 -2.117921e-07 -6.200175e-02
      outer loop
         vertex 3.721756e+01 4.472459e+01 3.807670e+01
         vertex 3.797683e+01 5.259457e+01 5.029906e+01
         vertex 3.805545e+01 5.013479e+01 5.156472e+01
      endloop
   endfacet
   facet normal 9.980760e-01 -2.713551e-08 -6.200169e-02
      outer loop
         vertex 3.726050e+01 5.926486e+01 3.876800e+01
         vertex 3.743034e+01 5.887101e+01 4.150198e+01
         vertex 3.721756e+01 4.472459e+01 3.807670e+01
      endloop
   endfacet
   facet normal 9.980761e-01 -5.400005e-08 -6.200157e-02
      outer loop
         vertex 3.721756e+01 4.472459e+01 3.807670e+01
         vertex 3.743034e+01 5.887101e+01 4.150198e+01
         vertex 3.759249e+01 5.796588e+01 4.411216e+01
      endloop
   endfacet
   facet normal 9.980760e-01 2.305486e-07 -6.200220e-02
      outer loop
         vertex 3.721756e+01 4.472459e+01 3.807670e+01
         vertex 3.759249e+01 5.796588e+01 4.411216e+01
         vertex 3.774109e+01 5.658217e+01 4.650420e+01
      endloop
   endfacet
   facet normal 9.980760e-01 5.447859e-08 -6.200172e-02
      outer loop
         vertex 3.676629e+01 5.733111e+01 3.081233e+01
         vertex 3.692237e+01 5.848074e+01 3.332481e+01
         vertex 3.721756e+01 4.472459e+01 3.807670e+01
      endloop
   endfacet
   facet normal 9.980760e-01 6.056638e-08 -6.200170e-02
      outer loop
         vertex 3.721756e+01 4.472459e+01 3.807670e+01
         vertex 3.692237e+01 5.848074e+01 3.332481e+01
         vertex 3.708911e+01 5.913318e+01 3.600904e+01
      endloop
   endfacet
   facet normal 9.980760e-01 -4.706949e-09 -6.200216e-02
      outer loop
         vertex 3.721756e+01 4.472459e+01 3.807670e+01
         vertex 3.708911e+01 5.913318e+01 3.600904e+01
         vertex 3.726050e+01 5.926486e+01 3.876800e+01
      endloop
   endfacet
   facet normal 9.980760e-01 8.261107e-08 -6.200173e-02
      outer loop
         vertex 3.641535e+01 5.139488e+01 2.516304e+01
         vertex 3.650811e+01 5.372298e+01 2.665634e+01
         vertex 3.721756e+01 4.472459e+01 3.807670e+01
      endloop
   endfacet
   facet normal 9.980760e-01 1.598828e-07 -6.200167e-02
      outer loop
         vertex 3.721756e+01 4.472459e+01 3.807670e+01
         vertex 3.650811e+01 5.372298e+01 2.665634e+01
         vertex 3.662652e+01 5.572585e+01 2.856240e+01
      endloop
   endfacet
   facet normal 9.980760e-01 -7.191815e-08 -6.200194e-02
      outer loop
         vertex 3.721756e+01 4.472459e+01 3.807670e+01
         vertex 3.662652e+01 5.572585e+01 2.856240e+01
         vertex 3.676629e+01 5.733111e+01 3.081233e+01
      endloop
   endfacet
   facet normal 9.980760e-01 0.000000e+00 -6.200181e-02
      outer loop
         vertex 3.631910e+01 4.334089e+01 2.361374e+01
         vertex 3.631910e+01 4.610830e+01 2.361374e+01
         vertex 3.721756e+01 4.472459e+01 3.807670e+01
      endloop
   endfacet
   facet normal 9.980760e-01 -2.642205e-07 -6.200184e-02
      outer loop
         vertex 3.721756e+01 4.472459e+01 3.807670e+01
         vertex 3.631910e+01 4.610830e+01 2.361374e+01
         vertex 3.635157e+01 4.882570e+01 2.413647e+01
      endloop
   endfacet
   facet normal 9.980760e-01 5.679308e-08 -6.200175e-02
      outer loop
         vertex 3.721756e+01 4.472459e+01 3.807670e+01
         vertex 3.635157e+01 4.882570e+01 2.413647e+01
         vertex 3.641535e+01 5.139488e+01 2.516304e+01
      endloop
   endfacet
   facet normal 9.980760e-01 -8.261107e-08 -6.200173e-02
      outer loop
         vertex 3.650811e+01 3.572621e+01 2.665634e+01
         vertex 3.641535e+01 3.805431e+01 2.516304e+01
         vertex 3.721756e+01 4.472459e+01 3.807670e+01
      endloop
   endfacet
   facet normal 9.980760e-01 -5.679315e-08 -6.200175e-02
      outer loop
         vertex 3.721756e+01 4.472459e+01 3.807670e+01
         vertex 3.641535e+01 3.805431e+01 2.516304e+01
         vertex 3.635157e+01 4.062348e+01 2.413647e+01
      endloop
   endfacet
   facet normal 9.980760e-01 2.642201e-07 -6.200184e-02
      outer loop
         vertex 3.721756e+01 4.472459e+01 3.807670e+01
         vertex 3.635157e+01 4.062348e+01 2.413647e+01
         vertex 3.631910e+01 4.334089e+01 2.361374e+01
      endloop
   endfacet
   facet normal 9.980760e-01 -5.447861e-08 -6.200172e-02
      outer loop
         vertex 3.692237e+01 3.096845e+01 3.332481e+01
         vertex 3.676629e+01 3.211808e+01 3.081233e+01
         vertex 3.721756e+01 4.472459e+01 3.807670e+01
      endloop
   endfacet
   facet normal 9.980760e-01 7.191814e-08 -6.200194e-02
      outer loop
         vertex 3.721756e+01 4.472459e+01 3.807670e+01
         vertex 3.676629e+01 3.211808e+01 3.081233e+01
         vertex 3.662652e+01 3.372334e+01 2.856240e+01
      endloop
   endfacet
   facet normal 9.980760e-01 -1.598826e-07 -6.200167e-02
      outer loop
         vertex 3.721756e+01 4.472459e+01 3.807670e+01
         vertex 3.662652e+01 3.372334e+01 2.856240e+01
         vertex 3.650811e+01 3.572621e+01 2.665634e+01
      endloop
   endfacet
   facet normal 9.980760e-01 2.713551e-08 -6.200169e-02
      outer loop
         vertex 3.743034e+01 3.057818e+01 4.150198e+01
         vertex 3.726050e+01 3.018433e+01 3.876800e+01
         vertex 3.721756e+01 4.472459e+01 3.807670e+01
      endloop
   endfacet
   facet normal 9.980760e-01 4.706948e-09 -6.200216e-02
      outer loop
         vertex 3.721756e+01 4.472459e+01 3.807670e+01
         vertex 3.726050e+01 3.018433e+01 3.876800e+01
         vertex 3.708911e+01 3.031601e+01 3.600904e+01
      endloop
   endfacet
   facet normal 9.980760e-01 -6.056635e-08 -6.200170e-02
      outer loop
         vertex 3.721756e+01 4.472459e+01 3.807670e+01
         vertex 3.708911e+01 3.031601e+01 3.600904e+01
         vertex 3.692237e+01 3.096845e+01 3.332481e+01
      endloop
   endfacet
   facet normal 9.980761e-01 3.224933e-07 -6.200142e-02
      outer loop
         vertex 3.787076e+01 3.467929e+01 4.859165e+01
         vertex 3.774109e+01 3.286701e+01 4.650420e+01
         vertex 3.721756e+01 4.472459e+01 3.807670e+01
      endloop
   endfacet
   facet normal 9.980760e-01 -2.305486e-07 -6.200220e-02
      outer loop
         vertex 3.721756e+01 4.472459e+01 3.807670e+01
         vertex 3.774109e+01 3.286701e+01 4.650420e+01
         vertex 3.759249e+01 3.148331e+01 4.411216e+01
      endloop
   endfacet
   facet normal 9.980761e-01 5.400005e-08 -6.200157e-02
      outer loop
         vertex 3.721756e+01 4.472459e+01 3.807670e+01
         vertex 3.759249e+01 3.148331e+01 4.411216e+01
         vertex 3.743034e+01 3.057818e+01 4.150198e+01
      endloop
   endfacet
   facet normal 9.980760e-01 -1.176662e-07 -6.200189e-02
      outer loop
         vertex 3.810379e+01 4.196971e+01 5.234289e+01
         vertex 3.805545e+01 3.931440e+01 5.156472e+01
         vertex 3.721756e+01 4.472459e+01 3.807670e+01
      endloop
   endfacet
   facet normal 9.980760e-01 2.117921e-07 -6.200175e-02
      outer loop
         vertex 3.721756e+01 4.472459e+01 3.807670e+01
         vertex 3.805545e+01 3.931440e+01 5.156472e+01
         vertex 3.797683e+01 3.685462e+01 5.029906e+01
      endloop
   endfacet
   facet normal 9.980760e-01 -5.186521e-07 -6.200222e-02
      outer loop
         vertex 3.721756e+01 4.472459e+01 3.807670e+01
         vertex 3.797683e+01 3.685462e+01 5.029906e+01
         vertex 3.787076e+01 3.467929e+01 4.859165e+01
      endloop
   endfacet
   facet normal -9.980760e-01 1.176662e-07 6.200189e-02
      outer loop
         vertex 1.930092e+00 3.931440e+01 5.380888e+01
         vertex 1.978433e+00 4.196971e+01 5.458704e+01
         vertex 1.092197e+00 4.472459e+01 4.032085e+01
      endloop
   endfacet
   facet normal -9.980760e-01 -3.351199e-07 6.200180e-02
      outer loop
         vertex 1.092197e+00 4.472459e+01 4.032085e+01
         vertex 1.978433e+00 4.196971e+01 5.458704e+01
         vertex 1.994742e+00 4.472459e+01 5.484960e+01
      endloop
   endfacet
   facet normal -9.980760e-01 3.351204e-07 6.200180e-02
      outer loop
         vertex 1.092197e+00 4.472459e+01 4.032085e+01
         vertex 1.994742e+00 4.472459e+01 5.484960e+01
         vertex 1.978433e+00 4.747948e+01 5.458704e+01
      endloop
   endfacet
   facet normal -9.980761e-01 -3.831721e-07 6.200136e-02
      outer loop
         vertex 1.615725e+00 3.286701e+01 4.874835e+01
         vertex 1.745399e+00 3.467929e+01 5.083580e+01
         vertex 1.092197e+00 4.472459e+01 4.032085e+01
      endloop
   endfacet
   facet normal -9.980760e-01 3.025872e-08 6.200176e-02
      outer loop
         vertex 1.092197e+00 4.472459e+01 4.032085e+01
         vertex 1.745399e+00 3.467929e+01 5.083580e+01
         vertex 1.851466e+00 3.685462e+01 5.254321e+01
      endloop
   endfacet
   facet normal -9.980760e-01 4.146929e-07 6.200200e-02
      outer loop
         vertex 1.092197e+00 4.472459e+01 4.032085e+01
         vertex 1.851466e+00 3.685462e+01 5.254321e+01
         vertex 1.930092e+00 3.931440e+01 5.380888e+01
      endloop
   endfacet
   facet normal -9.980760e-01 -2.713551e-08 6.200169e-02
      outer loop
         vertex 1.135143e+00 3.018433e+01 4.101216e+01
         vertex 1.304980e+00 3.057818e+01 4.374614e+01
         vertex 1.092197e+00 4.472459e+01 4.032085e+01
      endloop
   endfacet
   facet normal -9.980761e-01 -5.400005e-08 6.200157e-02
      outer loop
         vertex 1.092197e+00 4.472459e+01 4.032085e+01
         vertex 1.304980e+00 3.057818e+01 4.374614e+01
         vertex 1.467127e+00 3.148331e+01 4.635631e+01
      endloop
   endfacet
   facet normal -9.980760e-01 2.653780e-07 6.200227e-02
      outer loop
         vertex 1.092197e+00 4.472459e+01 4.032085e+01
         vertex 1.467127e+00 3.148331e+01 4.635631e+01
         vertex 1.615725e+00 3.286701e+01 4.874835e+01
      endloop
   endfacet
   facet normal -9.980760e-01 6.818960e-08 6.200168e-02
      outer loop
         vertex 6.409250e-01 3.211808e+01 3.305648e+01
         vertex 7.970035e-01 3.096845e+01 3.556897e+01
         vertex 1.092197e+00 4.472459e+01 4.032085e+01
      endloop
   endfacet
   facet normal -9.980760e-01 6.056635e-08 6.200170e-02
      outer loop
         vertex 1.092197e+00 4.472459e+01 4.032085e+01
         vertex 7.970035e-01 3.096845e+01 3.556897e+01
         vertex 9.637512e-01 3.031601e+01 3.825320e+01
      endloop
   endfacet
   facet normal -9.980760e-01 -4.706948e-09 6.200216e-02
      outer loop
         vertex 1.092197e+00 4.472459e+01 4.032085e+01
         vertex 9.637512e-01 3.031601e+01 3.825320e+01
         vertex 1.135143e+00 3.018433e+01 4.101216e+01
      endloop
   endfacet
   facet normal -9.980760e-01 8.261107e-08 6.200173e-02
      outer loop
         vertex 2.899840e-01 3.805431e+01 2.740719e+01
         vertex 3.827494e-01 3.572621e+01 2.890049e+01
         vertex 1.092197e+00 4.472459e+01 4.032085e+01
      endloop
   endfacet
   facet normal -9.980760e-01 1.269306e-07 6.200170e-02
      outer loop
         vertex 1.092197e+00 4.472459e+01 4.032085e+01
         vertex 3.827494e-01 3.572621e+01 2.890049e+01
         vertex 5.011559e-01 3.372334e+01 3.080655e+01
      endloop
   endfacet
   facet normal -9.980760e-01 -7.841006e-08 6.200193e-02
      outer loop
         vertex 1.092197e+00 4.472459e+01 4.032085e+01
         vertex 5.011559e-01 3.372334e+01 3.080655e+01
         vertex 6.409250e-01 3.211808e+01 3.305648e+01
      endloop
   endfacet
   facet normal -9.980760e-01 0.000000e+00 6.200181e-02
      outer loop
         vertex 1.937393e-01 4.610830e+01 2.585790e+01
         vertex 1.937393e-01 4.334089e+01 2.585790e+01
         vertex 1.092197e+00 4.472459e+01 4.032085e+01
      endloop
   endfacet
   facet normal -9.980760e-01 -2.642201e-07 6.200184e-02
      outer loop
         vertex 1.092197e+00 4.472459e+01 4.032085e+01
         vertex 1.937393e-01 4.334089e+01 2.585790e+01
         vertex 2.262127e-01 4.062348e+01 2.638063e+01
      endloop
   endfacet
   facet normal -9.980760e-01 5.679315e-08 6.200175e-02
      outer loop
         vertex 1.092197e+00 4.472459e+01 4.032085e+01
         vertex 2.262127e-01 4.062348e+01 2.638063e+01
         vertex 2.899840e-01 3.805431e+01 2.740719e+01
      endloop
   endfacet
   facet normal -9.980760e-01 -8.261107e-08 6.200173e-02
      outer loop
         vertex 3.827494e-01 5.372298e+01 2.890049e+01
         vertex 2.899840e-01 5.139488e+01 2.740719e+01
         vertex 1.092197e+00 4.472459e+01 4.032085e+01
      endloop
   endfacet
   facet normal -9.980760e-01 -5.679308e-08 6.200175e-02
      outer loop
         vertex 1.092197e+00 4.472459e+01 4.032085e+01
         vertex 2.899840e-01 5.139488e+01 2.740719e+01
         vertex 2.262127e-01 4.882570e+01 2.638063e+01
      endloop
   endfacet
   facet normal -9.980760e-01 2.642205e-07 6.200184e-02
      outer loop
         vertex 1.092197e+00 4.472459e+01 4.032085e+01
         vertex 2.262127e-01 4.882570e+01 2.638063e+01
         vertex 1.937393e-01 4.610830e+01 2.585790e+01
      endloop
   endfacet
   facet normal -9.980760e-01 -6.818957e-08 6.200168e-02
      outer loop
         vertex 7.970035e-01 5.848074e+01 3.556897e+01
         vertex 6.409250e-01 5.733111e+01 3.305648e+01
         vertex 1.092197e+00 4.472459e+01 4.032085e+01
      endloop
   endfacet
   facet normal -9.980760e-01 7.841008e-08 6.200193e-02
      outer loop
         vertex 1.092197e+00 4.472459e+01 4.032085e+01
         vertex 6.409250e-01 5.733111e+01 3.305648e+01
         vertex 5.011559e-01 5.572585e+01 3.080655e+01
      endloop
   endfacet
   facet normal -9.980760e-01 -1.269307e-07 6.200170e-02
      outer loop
         vertex 1.092197e+00 4.472459e+01 4.032085e+01
         vertex 5.011559e-01 5.572585e+01 3.080655e+01
         vertex 3.827494e-01 5.372298e+01 2.890049e+01
      endloop
   endfacet
   facet normal -9.980760e-01 2.713551e-08 6.200169e-02
      outer loop
         vertex 1.304980e+00 5.887101e+01 4.374614e+01
         vertex 1.135143e+00 5.926486e+01 4.101216e+01
         vertex 1.092197e+00 4.472459e+01 4.032085e+01
      endloop
   endfacet
   facet normal -9.980760e-01 4.706949e-09 6.200216e-02
      outer loop
         vertex 1.092197e+00 4.472459e+01 4.032085e+01
         vertex 1.135143e+00 5.926486e+01 4.101216e+01
         vertex 9.637512e-01 5.913318e+01 3.825320e+01
      endloop
   endfacet
   facet normal -9.980760e-01 -6.056638e-08 6.200170e-02
      outer loop
         vertex 1.092197e+00 4.472459e+01 4.032085e+01
         vertex 9.637512e-01 5.913318e+01 3.825320e+01
         vertex 7.970035e-01 5.848074e+01 3.556897e+01
      endloop
   endfacet
   facet normal -9.980761e-01 3.831722e-07 6.200136e-02
      outer loop
         vertex 1.745399e+00 5.476990e+01 5.083580e+01
         vertex 1.615725e+00 5.658217e+01 4.874835e+01
         vertex 1.092197e+00 4.472459e+01 4.032085e+01
      endloop
   endfacet
   facet normal -9.980760e-01 -2.653780e-07 6.200227e-02
      outer loop
         vertex 1.092197e+00 4.472459e+01 4.032085e+01
         vertex 1.615725e+00 5.658217e+01 4.874835e+01
         vertex 1.467127e+00 5.796588e+01 4.635631e+01
      endloop
   endfacet
   facet normal -9.980761e-01 5.400005e-08 6.200157e-02
      outer loop
         vertex 1.092197e+00 4.472459e+01 4.032085e+01
         vertex 1.467127e+00 5.796588e+01 4.635631e+01
         vertex 1.304980e+00 5.887101e+01 4.374614e+01
      endloop
   endfacet
   facet normal -9.980760e-01 -1.176661e-07 6.200189e-02
      outer loop
         vertex 1.978433e+00 4.747948e+01 5.458704e+01
         vertex 1.930092e+00 5.013479e+01 5.380888e+01
         vertex 1.092197e+00 4.472459e+01 4.032085e+01
      endloop
   endfacet
   facet normal -9.980760e-01 -4.146929e-07 6.200200e-02
      outer loop
         vertex 1.092197e+00 4.472459e+01 4.032085e+01
         vertex 1.930092e+00 5.013479e+01 5.380888e+01
         vertex 1.851466e+00 5.259457e+01 5.254321e+01
      endloop
   endfacet
   facet normal -9.980760e-01 -3.025875e-08 6.200176e-02
      outer loop
         vertex 1.092197e+00 4.472459e+01 4.032085e+01
         vertex 1.851466e+00 5.259457e+01 5.254321e+01
         vertex 1.745399e+00 5.476990e+01 5.083580e+01
      endloop
   endfacet
endsolid