solid Assem1 - anchor-1
   facet normal 1.000000e+00 0.000000e+00 -0.000000e+00
      outer loop
         vertex 3.810000e+00 1.079500e+01 -1.079500e+01
         vertex 3.810000e+00 1.079500e+01 1.079500e+01
         vertex 3.810000e+00 -1.079500e+01 -1.079500e+01
      endloop
   endfacet
   facet normal 1.000000e+00 0.000000e+00 0.000000e+00
      outer loop
         vertex 3.810000e+00 -1.079500e+01 -1.079500e+01
         vertex 3.810000e+00 1.079500e+01 1.079500e+01
         vertex 3.810000e+00 -1.079500e+01 1.079500e+01
      endloop
   endfacet
   facet normal 0.000000e+00 0.000000e+00 -1.000000e+00
      outer loop
         vertex -3.810000e+00 1.079500e+01 -1.079500e+01
         vertex 3.810000e+00 1.079500e+01 -1.079500e+01
         vertex -3.810000e+00 -1.079500e+01 -1.079500e+01
      endloop
   endfacet
   facet normal 0.000000e+00 0.000000e+00 -1.000000e+00
      outer loop
         vertex -3.810000e+00 -1.079500e+01 -1.079500e+01
         vertex 3.810000e+00 1.079500e+01 -1.079500e+01
         vertex 3.810000e+00 -1.079500e+01 -1.079500e+01
      endloop
   endfacet
   facet normal -1.000000e+00 -0.000000e+00 -0.000000e+00
      outer loop
         vertex -3.810000e+00 1.079500e+01 1.079500e+01
         vertex -3.810000e+00 1.079500e+01 -1.079500e+01
         vertex -3.810000e+00 -1.079500e+01 1.079500e+01
      endloop
   endfacet
   facet normal -1.000000e+00 0.000000e+00 0.000000e+00
      outer loop
         vertex -3.810000e+00 -1.079500e+01 1.079500e+01
         vertex -3.810000e+00 1.079500e+01 -1.079500e+01
         vertex -3.810000e+00 -1.079500e+01 -1.079500e+01
      endloop
   endfacet
   facet normal 0.000000e+00 0.000000e+00 1.000000e+00
      outer loop
         vertex 3.810000e+00 1.079500e+01 1.079500e+01
         vertex -3.810000e+00 1.079500e+01 1.079500e+01
         vertex 3.810000e+00 -1.079500e+01 1.079500e+01
      endloop
   endfacet
   facet normal 0.000000e+00 0.000000e+00 1.000000e+00
      outer loop
         vertex 3.810000e+00 -1.079500e+01 1.079500e+01
         vertex -3.810000e+00 1.079500e+01 1.079500e+01
         vertex -3.810000e+00 -1.079500e+01 1.079500e+01
      endloop
   endfacet
   facet normal 0.000000e+00 1.000000e+00 0.000000e+00
      outer loop
         vertex -3.810000e+00 1.079500e+01 -1.079500e+01
         vertex -3.810000e+00 1.079500e+01 1.079500e+01
         vertex 3.810000e+00 1.079500e+01 -1.079500e+01
      endloop
   endfacet
   facet normal 0.000000e+00 1.000000e+00 -0.000000e+00
      outer loop
         vertex 3.810000e+00 1.079500e+01 -1.079500e+01
         vertex -3.810000e+00 1.079500e+01 1.079500e+01
         vertex 3.810000e+00 1.079500e+01 1.079500e+01
      endloop
   endfacet
   facet normal 0.000000e+00 -1.000000e+00 0.000000e+00
      outer loop
         vertex -3.810000e+00 -1.079500e+01 1.079500e+01
         vertex -3.810000e+00 -1.079500e+01 -1.079500e+01
         vertex 3.810000e+00 -1.079500e+01 1.079500e+01
      endloop
   endfacet
   facet normal 0.000000e+00 -1.000000e+00 -0.000000e+00
      outer loop
         vertex 3.810000e+00 -1.079500e+01 1.079500e+01
         vertex -3.810000e+00 -1.079500e+01 -1.079500e+01
         vertex 3.810000e+00 -1.079500e+01 -1.079500e+01
      endloop
   endfacet
endsolid