solid femur - Assembly 1stp.step-1 Part 1.step-1
   facet normal -1.000000e-15 3.000000e-15 1.000000e+00
      outer loop
         vertex -7.296844e+01 1.216350e+02 7.260574e+01
         vertex -8.454414e+01 1.078396e+02 7.260574e+01
         vertex -6.810406e+01 1.175533e+02 7.260574e+01
      endloop
   endfacet
   facet normal -1.000000e-15 3.000000e-15 1.000000e+00
      outer loop
         vertex -6.810406e+01 1.175533e+02 7.260574e+01
         vertex -8.454414e+01 1.078396e+02 7.260574e+01
         vertex -7.967976e+01 1.037579e+02 7.260574e+01
      endloop
   endfacet
   facet normal -7.660444e-01 6.427876e-01 -2.694407e-15
      outer loop
         vertex -8.454414e+01 1.078396e+02 4.761214e+01
         vertex -8.454414e+01 1.078396e+02 7.260574e+01
         vertex -7.296844e+01 1.216350e+02 4.761214e+01
      endloop
   endfacet
   facet normal -7.660444e-01 6.427876e-01 -2.694407e-15
      outer loop
         vertex -7.296844e+01 1.216350e+02 4.761214e+01
         vertex -8.454414e+01 1.078396e+02 7.260574e+01
         vertex -7.296844e+01 1.216350e+02 7.260574e+01
      endloop
   endfacet
   facet normal -6.427876e-01 -7.660444e-01 1.655346e-15
      outer loop
         vertex -8.454414e+01 1.078396e+02 7.260574e+01
         vertex -8.454414e+01 1.078396e+02 4.761214e+01
         vertex -7.967976e+01 1.037579e+02 7.260574e+01
      endloop
   endfacet
   facet normal -6.427876e-01 -7.660444e-01 1.655346e-15
      outer loop
         vertex -7.967976e+01 1.037579e+02 7.260574e+01
         vertex -8.454414e+01 1.078396e+02 4.761214e+01
         vertex -7.967976e+01 1.037579e+02 4.761214e+01
      endloop
   endfacet
   facet normal 6.427876e-01 7.660444e-01 -1.655346e-15
      outer loop
         vertex -7.296844e+01 1.216350e+02 4.761214e+01
         vertex -7.296844e+01 1.216350e+02 7.260574e+01
         vertex -6.810406e+01 1.175533e+02 4.761214e+01
      endloop
   endfacet
   facet normal 6.427876e-01 7.660444e-01 -1.655346e-15
      outer loop
         vertex -6.810406e+01 1.175533e+02 4.761214e+01
         vertex -7.296844e+01 1.216350e+02 7.260574e+01
         vertex -6.810406e+01 1.175533e+02 7.260574e+01
      endloop
   endfacet
   facet normal 1.000000e-15 -3.000000e-15 -1.000000e+00
      outer loop
         vertex -8.454414e+01 1.078396e+02 4.761214e+01
         vertex -7.296844e+01 1.216350e+02 4.761214e+01
         vertex -7.967976e+01 1.037579e+02 4.761214e+01
      endloop
   endfacet
   facet normal 1.000000e-15 -3.000000e-15 -1.000000e+00
      outer loop
         vertex -7.967976e+01 1.037579e+02 4.761214e+01
         vertex -7.296844e+01 1.216350e+02 4.761214e+01
         vertex -6.810406e+01 1.175533e+02 4.761214e+01
      endloop
   endfacet
   facet normal 7.660444e-01 -6.427876e-01 2.694407e-15
      outer loop
         vertex -7.967976e+01 1.037579e+02 7.260574e+01
         vertex -7.967976e+01 1.037579e+02 4.761214e+01
         vertex -6.810406e+01 1.175533e+02 7.260574e+01
      endloop
   endfacet
   facet normal 7.660444e-01 -6.427876e-01 2.694407e-15
      outer loop
         vertex -6.810406e+01 1.175533e+02 7.260574e+01
         vertex -7.967976e+01 1.037579e+02 4.761214e+01
         vertex -6.810406e+01 1.175533e+02 4.761214e+01
      endloop
   endfacet
endsolid