solid femur - Assembly 1stp.step-1 Part 1-0.step-1
   facet normal -2.393157e-01 1.928205e-15 9.709418e-01
      outer loop
         vertex 1.195734e+00 -5.192519e+01 5.883574e+01
         vertex 1.195734e+00 -5.827519e+01 5.883574e+01
         vertex 1.785932e+00 -5.192519e+01 5.898121e+01
      endloop
   endfacet
   facet normal -2.393157e-01 1.928205e-15 9.709418e-01
      outer loop
         vertex 1.785932e+00 -5.192519e+01 5.898121e+01
         vertex 1.195734e+00 -5.827519e+01 5.883574e+01
         vertex 1.785932e+00 -5.827519e+01 5.898121e+01
      endloop
   endfacet
   facet normal -6.631226e-01 3.401001e-15 7.485108e-01
      outer loop
         vertex 1.785932e+00 -5.192519e+01 5.898121e+01
         vertex 1.785932e+00 -5.827519e+01 5.898121e+01
         vertex 2.240924e+00 -5.192519e+01 5.938430e+01
      endloop
   endfacet
   facet normal -6.631226e-01 3.401001e-15 7.485108e-01
      outer loop
         vertex 2.240924e+00 -5.192519e+01 5.938430e+01
         vertex 1.785932e+00 -5.827519e+01 5.898121e+01
         vertex 2.240924e+00 -5.827519e+01 5.938430e+01
      endloop
   endfacet
   facet normal -9.350162e-01 4.094670e-15 3.546051e-01
      outer loop
         vertex 2.240924e+00 -5.192519e+01 5.938430e+01
         vertex 2.240924e+00 -5.827519e+01 5.938430e+01
         vertex 2.456474e+00 -5.192519e+01 5.995266e+01
      endloop
   endfacet
   facet normal -9.350162e-01 4.094670e-15 3.546051e-01
      outer loop
         vertex 2.456474e+00 -5.192519e+01 5.995266e+01
         vertex 2.240924e+00 -5.827519e+01 5.938430e+01
         vertex 2.456474e+00 -5.827519e+01 5.995266e+01
      endloop
   endfacet
   facet normal -9.927088e-01 3.850298e-15 -1.205372e-01
      outer loop
         vertex 2.456474e+00 -5.192519e+01 5.995266e+01
         vertex 2.456474e+00 -5.827519e+01 5.995266e+01
         vertex 2.383205e+00 -5.192519e+01 6.055609e+01
      endloop
   endfacet
   facet normal -9.927088e-01 3.850298e-15 -1.205372e-01
      outer loop
         vertex 2.383205e+00 -5.192519e+01 6.055609e+01
         vertex 2.456474e+00 -5.827519e+01 5.995266e+01
         vertex 2.383205e+00 -5.827519e+01 6.055609e+01
      endloop
   endfacet
   facet normal -8.229840e-01 2.723872e-15 -5.680645e-01
      outer loop
         vertex 2.383205e+00 -5.192519e+01 6.055609e+01
         vertex 2.383205e+00 -5.827519e+01 6.055609e+01
         vertex 2.037900e+00 -5.192519e+01 6.105635e+01
      endloop
   endfacet
   facet normal -8.229840e-01 2.723872e-15 -5.680645e-01
      outer loop
         vertex 2.037900e+00 -5.192519e+01 6.105635e+01
         vertex 2.383205e+00 -5.827519e+01 6.055609e+01
         vertex 2.037900e+00 -5.827519e+01 6.105635e+01
      endloop
   endfacet
   facet normal -4.647231e-01 9.734362e-16 -8.854561e-01
      outer loop
         vertex 2.037900e+00 -5.192519e+01 6.105635e+01
         vertex 2.037900e+00 -5.827519e+01 6.105635e+01
         vertex 1.499665e+00 -5.192519e+01 6.133884e+01
      endloop
   endfacet
   facet normal -4.647231e-01 9.734362e-16 -8.854561e-01
      outer loop
         vertex 1.499665e+00 -5.192519e+01 6.133884e+01
         vertex 2.037900e+00 -5.827519e+01 6.105635e+01
         vertex 1.499665e+00 -5.827519e+01 6.133884e+01
      endloop
   endfacet
   facet normal 2.000000e-15 -1.000000e-15 -1.000000e+00
      outer loop
         vertex 1.499665e+00 -5.192519e+01 6.133884e+01
         vertex 1.499665e+00 -5.827519e+01 6.133884e+01
         vertex 8.918032e-01 -5.192519e+01 6.133884e+01
      endloop
   endfacet
   facet normal 2.000000e-15 -1.000000e-15 -1.000000e+00
      outer loop
         vertex 8.918032e-01 -5.192519e+01 6.133884e+01
         vertex 1.499665e+00 -5.827519e+01 6.133884e+01
         vertex 8.918032e-01 -5.827519e+01 6.133884e+01
      endloop
   endfacet
   facet normal 4.647231e-01 -2.744348e-15 -8.854561e-01
      outer loop
         vertex 8.918032e-01 -5.192519e+01 6.133884e+01
         vertex 8.918032e-01 -5.827519e+01 6.133884e+01
         vertex 3.535681e-01 -5.192519e+01 6.105635e+01
      endloop
   endfacet
   facet normal 4.647231e-01 -2.744348e-15 -8.854561e-01
      outer loop
         vertex 3.535681e-01 -5.192519e+01 6.105635e+01
         vertex 8.918032e-01 -5.827519e+01 6.133884e+01
         vertex 3.535681e-01 -5.827519e+01 6.105635e+01
      endloop
   endfacet
   facet normal 8.229840e-01 -3.860001e-15 -5.680645e-01
      outer loop
         vertex 3.535681e-01 -5.192519e+01 6.105635e+01
         vertex 3.535681e-01 -5.827519e+01 6.105635e+01
         vertex 8.263530e-03 -5.192519e+01 6.055609e+01
      endloop
   endfacet
   facet normal 8.229840e-01 -3.860001e-15 -5.680645e-01
      outer loop
         vertex 8.263530e-03 -5.192519e+01 6.055609e+01
         vertex 3.535681e-01 -5.827519e+01 6.105635e+01
         vertex 8.263530e-03 -5.827519e+01 6.055609e+01
      endloop
   endfacet
   facet normal 9.927088e-01 -4.091372e-15 -1.205372e-01
      outer loop
         vertex 8.263530e-03 -5.192519e+01 6.055609e+01
         vertex 8.263530e-03 -5.827519e+01 6.055609e+01
         vertex -6.500641e-02 -5.192519e+01 5.995266e+01
      endloop
   endfacet
   facet normal 9.927088e-01 -4.091372e-15 -1.205372e-01
      outer loop
         vertex -6.500641e-02 -5.192519e+01 5.995266e+01
         vertex 8.263530e-03 -5.827519e+01 6.055609e+01
         vertex -6.500641e-02 -5.827519e+01 5.995266e+01
      endloop
   endfacet
   facet normal 9.350162e-01 -3.385460e-15 3.546051e-01
      outer loop
         vertex -6.500641e-02 -5.192519e+01 5.995266e+01
         vertex -6.500641e-02 -5.827519e+01 5.995266e+01
         vertex 1.505445e-01 -5.192519e+01 5.938430e+01
      endloop
   endfacet
   facet normal 9.350162e-01 -3.385460e-15 3.546051e-01
      outer loop
         vertex 1.505445e-01 -5.192519e+01 5.938430e+01
         vertex -6.500641e-02 -5.827519e+01 5.995266e+01
         vertex 1.505445e-01 -5.827519e+01 5.938430e+01
      endloop
   endfacet
   facet normal 6.631226e-01 -1.903980e-15 7.485108e-01
      outer loop
         vertex 1.505445e-01 -5.192519e+01 5.938430e+01
         vertex 1.505445e-01 -5.827519e+01 5.938430e+01
         vertex 6.055356e-01 -5.192519e+01 5.898121e+01
      endloop
   endfacet
   facet normal 6.631226e-01 -1.903980e-15 7.485108e-01
      outer loop
         vertex 6.055356e-01 -5.192519e+01 5.898121e+01
         vertex 1.505445e-01 -5.827519e+01 5.938430e+01
         vertex 6.055356e-01 -5.827519e+01 5.898121e+01
      endloop
   endfacet
   facet normal 2.393156e-01 1.367961e-17 9.709418e-01
      outer loop
         vertex 6.055356e-01 -5.192519e+01 5.898121e+01
         vertex 6.055356e-01 -5.827519e+01 5.898121e+01
         vertex 1.195734e+00 -5.192519e+01 5.883574e+01
      endloop
   endfacet
   facet normal 2.393156e-01 1.367961e-17 9.709418e-01
      outer loop
         vertex 1.195734e+00 -5.192519e+01 5.883574e+01
         vertex 6.055356e-01 -5.827519e+01 5.898121e+01
         vertex 1.195734e+00 -5.827519e+01 5.883574e+01
      endloop
   endfacet
   facet normal -2.393155e-01 1.928204e-15 9.709419e-01
      outer loop
         vertex 8.218834e+00 -5.192519e+01 6.585884e+01
         vertex 8.218834e+00 -5.827519e+01 6.585884e+01
         vertex 8.809033e+00 -5.192519e+01 6.600431e+01
      endloop
   endfacet
   facet normal -2.393155e-01 1.928204e-15 9.709419e-01
      outer loop
         vertex 8.809033e+00 -5.192519e+01 6.600431e+01
         vertex 8.218834e+00 -5.827519e+01 6.585884e+01
         vertex 8.809033e+00 -5.827519e+01 6.600431e+01
      endloop
   endfacet
   facet normal -6.631228e-01 3.401002e-15 7.485106e-01
      outer loop
         vertex 8.809033e+00 -5.192519e+01 6.600431e+01
         vertex 8.809033e+00 -5.827519e+01 6.600431e+01
         vertex 9.264024e+00 -5.192519e+01 6.640740e+01
      endloop
   endfacet
   facet normal -6.631228e-01 3.401002e-15 7.485106e-01
      outer loop
         vertex 9.264024e+00 -5.192519e+01 6.640740e+01
         vertex 8.809033e+00 -5.827519e+01 6.600431e+01
         vertex 9.264024e+00 -5.827519e+01 6.640740e+01
      endloop
   endfacet
   facet normal -9.350163e-01 4.094670e-15 3.546048e-01
      outer loop
         vertex 9.264024e+00 -5.192519e+01 6.640740e+01
         vertex 9.264024e+00 -5.827519e+01 6.640740e+01
         vertex 9.479574e+00 -5.192519e+01 6.697576e+01
      endloop
   endfacet
   facet normal -9.350163e-01 4.094670e-15 3.546048e-01
      outer loop
         vertex 9.479574e+00 -5.192519e+01 6.697576e+01
         vertex 9.264024e+00 -5.827519e+01 6.640740e+01
         vertex 9.479574e+00 -5.827519e+01 6.697576e+01
      endloop
   endfacet
   facet normal -9.927089e-01 3.850299e-15 -1.205366e-01
      outer loop
         vertex 9.479574e+00 -5.192519e+01 6.697576e+01
         vertex 9.479574e+00 -5.827519e+01 6.697576e+01
         vertex 9.406305e+00 -5.192519e+01 6.757919e+01
      endloop
   endfacet
   facet normal -9.927089e-01 3.850299e-15 -1.205366e-01
      outer loop
         vertex 9.406305e+00 -5.192519e+01 6.757919e+01
         vertex 9.479574e+00 -5.827519e+01 6.697576e+01
         vertex 9.406305e+00 -5.827519e+01 6.757919e+01
      endloop
   endfacet
   facet normal -8.229836e-01 2.723869e-15 -5.680651e-01
      outer loop
         vertex 9.406305e+00 -5.192519e+01 6.757919e+01
         vertex 9.406305e+00 -5.827519e+01 6.757919e+01
         vertex 9.061000e+00 -5.192519e+01 6.807945e+01
      endloop
   endfacet
   facet normal -8.229836e-01 2.723869e-15 -5.680651e-01
      outer loop
         vertex 9.061000e+00 -5.192519e+01 6.807945e+01
         vertex 9.406305e+00 -5.827519e+01 6.757919e+01
         vertex 9.061000e+00 -5.827519e+01 6.807945e+01
      endloop
   endfacet
   facet normal -4.647236e-01 9.734388e-16 -8.854558e-01
      outer loop
         vertex 9.061000e+00 -5.192519e+01 6.807945e+01
         vertex 9.061000e+00 -5.827519e+01 6.807945e+01
         vertex 8.522765e+00 -5.192519e+01 6.836194e+01
      endloop
   endfacet
   facet normal -4.647236e-01 9.734388e-16 -8.854558e-01
      outer loop
         vertex 8.522765e+00 -5.192519e+01 6.836194e+01
         vertex 9.061000e+00 -5.827519e+01 6.807945e+01
         vertex 8.522765e+00 -5.827519e+01 6.836194e+01
      endloop
   endfacet
   facet normal 2.000000e-15 -1.000000e-15 -1.000000e+00
      outer loop
         vertex 8.522765e+00 -5.192519e+01 6.836194e+01
         vertex 8.522765e+00 -5.827519e+01 6.836194e+01
         vertex 7.914903e+00 -5.192519e+01 6.836194e+01
      endloop
   endfacet
   facet normal 2.000000e-15 -1.000000e-15 -1.000000e+00
      outer loop
         vertex 7.914903e+00 -5.192519e+01 6.836194e+01
         vertex 8.522765e+00 -5.827519e+01 6.836194e+01
         vertex 7.914903e+00 -5.827519e+01 6.836194e+01
      endloop
   endfacet
   facet normal 4.647236e-01 -2.744350e-15 -8.854558e-01
      outer loop
         vertex 7.914903e+00 -5.192519e+01 6.836194e+01
         vertex 7.914903e+00 -5.827519e+01 6.836194e+01
         vertex 7.376668e+00 -5.192519e+01 6.807945e+01
      endloop
   endfacet
   facet normal 4.647236e-01 -2.744350e-15 -8.854558e-01
      outer loop
         vertex 7.376668e+00 -5.192519e+01 6.807945e+01
         vertex 7.914903e+00 -5.827519e+01 6.836194e+01
         vertex 7.376668e+00 -5.827519e+01 6.807945e+01
      endloop
   endfacet
   facet normal 8.229836e-01 -3.860000e-15 -5.680651e-01
      outer loop
         vertex 7.376668e+00 -5.192519e+01 6.807945e+01
         vertex 7.376668e+00 -5.827519e+01 6.807945e+01
         vertex 7.031363e+00 -5.192519e+01 6.757919e+01
      endloop
   endfacet
   facet normal 8.229836e-01 -3.860000e-15 -5.680651e-01
      outer loop
         vertex 7.031363e+00 -5.192519e+01 6.757919e+01
         vertex 7.376668e+00 -5.827519e+01 6.807945e+01
         vertex 7.031363e+00 -5.827519e+01 6.757919e+01
      endloop
   endfacet
   facet normal 9.927089e-01 -4.091372e-15 -1.205366e-01
      outer loop
         vertex 7.031363e+00 -5.192519e+01 6.757919e+01
         vertex 7.031363e+00 -5.827519e+01 6.757919e+01
         vertex 6.958094e+00 -5.192519e+01 6.697576e+01
      endloop
   endfacet
   facet normal 9.927089e-01 -4.091372e-15 -1.205366e-01
      outer loop
         vertex 6.958094e+00 -5.192519e+01 6.697576e+01
         vertex 7.031363e+00 -5.827519e+01 6.757919e+01
         vertex 6.958094e+00 -5.827519e+01 6.697576e+01
      endloop
   endfacet
   facet normal 9.350163e-01 -3.385460e-15 3.546048e-01
      outer loop
         vertex 6.958094e+00 -5.192519e+01 6.697576e+01
         vertex 6.958094e+00 -5.827519e+01 6.697576e+01
         vertex 7.173645e+00 -5.192519e+01 6.640740e+01
      endloop
   endfacet
   facet normal 9.350163e-01 -3.385460e-15 3.546048e-01
      outer loop
         vertex 7.173645e+00 -5.192519e+01 6.640740e+01
         vertex 6.958094e+00 -5.827519e+01 6.697576e+01
         vertex 7.173645e+00 -5.827519e+01 6.640740e+01
      endloop
   endfacet
   facet normal 6.631228e-01 -1.903981e-15 7.485106e-01
      outer loop
         vertex 7.173645e+00 -5.192519e+01 6.640740e+01
         vertex 7.173645e+00 -5.827519e+01 6.640740e+01
         vertex 7.628636e+00 -5.192519e+01 6.600431e+01
      endloop
   endfacet
   facet normal 6.631228e-01 -1.903981e-15 7.485106e-01
      outer loop
         vertex 7.628636e+00 -5.192519e+01 6.600431e+01
         vertex 7.173645e+00 -5.827519e+01 6.640740e+01
         vertex 7.628636e+00 -5.827519e+01 6.600431e+01
      endloop
   endfacet
   facet normal 2.393155e-01 1.368000e-17 9.709419e-01
      outer loop
         vertex 7.628636e+00 -5.192519e+01 6.600431e+01
         vertex 7.628636e+00 -5.827519e+01 6.600431e+01
         vertex 8.218834e+00 -5.192519e+01 6.585884e+01
      endloop
   endfacet
   facet normal 2.393155e-01 1.368000e-17 9.709419e-01
      outer loop
         vertex 8.218834e+00 -5.192519e+01 6.585884e+01
         vertex 7.628636e+00 -5.827519e+01 6.600431e+01
         vertex 8.218834e+00 -5.827519e+01 6.585884e+01
      endloop
   endfacet
   facet normal -1.000000e+00 4.000000e-15 -2.000000e-15
      outer loop
         vertex -4.481166e+00 -5.192519e+01 6.963074e+01
         vertex -4.481166e+00 -5.192519e+01 5.058074e+01
         vertex -4.481166e+00 -5.827519e+01 6.963074e+01
      endloop
   endfacet
   facet normal -1.000000e+00 4.000000e-15 -2.000000e-15
      outer loop
         vertex -4.481166e+00 -5.827519e+01 6.963074e+01
         vertex -4.481166e+00 -5.192519e+01 5.058074e+01
         vertex -4.481166e+00 -5.827519e+01 5.058074e+01
      endloop
   endfacet
   facet normal -2.000000e-15 1.000000e-15 1.000000e+00
      outer loop
         vertex 2.091883e+01 -5.192519e+01 6.963074e+01
         vertex -4.481166e+00 -5.192519e+01 6.963074e+01
         vertex 2.091883e+01 -5.827519e+01 6.963074e+01
      endloop
   endfacet
   facet normal -2.000000e-15 1.000000e-15 1.000000e+00
      outer loop
         vertex 2.091883e+01 -5.827519e+01 6.963074e+01
         vertex -4.481166e+00 -5.192519e+01 6.963074e+01
         vertex -4.481166e+00 -5.827519e+01 6.963074e+01
      endloop
   endfacet
   facet normal 2.000000e-15 -1.000000e-15 -1.000000e+00
      outer loop
         vertex -4.481166e+00 -5.192519e+01 5.058074e+01
         vertex 2.091883e+01 -5.192519e+01 5.058074e+01
         vertex -4.481166e+00 -5.827519e+01 5.058074e+01
      endloop
   endfacet
   facet normal 2.000000e-15 -1.000000e-15 -1.000000e+00
      outer loop
         vertex -4.481166e+00 -5.827519e+01 5.058074e+01
         vertex 2.091883e+01 -5.192519e+01 5.058074e+01
         vertex 2.091883e+01 -5.827519e+01 5.058074e+01
      endloop
   endfacet
   facet normal 4.000000e-15 1.000000e+00 -1.000000e-15
      outer loop
         vertex 7.376668e+00 -5.192519e+01 6.807945e+01
         vertex 7.031363e+00 -5.192519e+01 6.757919e+01
         vertex -4.481166e+00 -5.192519e+01 6.963074e+01
      endloop
   endfacet
   facet normal 4.000000e-15 1.000000e+00 -1.000000e-15
      outer loop
         vertex 1.505445e-01 -5.192519e+01 5.938430e+01
         vertex 6.055356e-01 -5.192519e+01 5.898121e+01
         vertex -4.481166e+00 -5.192519e+01 5.058074e+01
      endloop
   endfacet
   facet normal 4.000000e-15 1.000000e+00 -1.000000e-15
      outer loop
         vertex 7.173645e+00 -5.192519e+01 5.236120e+01
         vertex 7.628636e+00 -5.192519e+01 5.195811e+01
         vertex -4.481166e+00 -5.192519e+01 5.058074e+01
      endloop
   endfacet
   facet normal 4.000000e-15 1.000000e+00 -1.000000e-15
      outer loop
         vertex -4.481166e+00 -5.192519e+01 5.058074e+01
         vertex 7.628636e+00 -5.192519e+01 5.195811e+01
         vertex 8.218834e+00 -5.192519e+01 5.181264e+01
      endloop
   endfacet
   facet normal 4.000000e-15 1.000000e+00 -1.000000e-15
      outer loop
         vertex -4.481166e+00 -5.192519e+01 5.058074e+01
         vertex 8.218834e+00 -5.192519e+01 5.181264e+01
         vertex 2.091883e+01 -5.192519e+01 5.058074e+01
      endloop
   endfacet
   facet normal 4.000000e-15 1.000000e+00 -1.000000e-15
      outer loop
         vertex 2.091883e+01 -5.192519e+01 5.058074e+01
         vertex 8.218834e+00 -5.192519e+01 5.181264e+01
         vertex 8.809033e+00 -5.192519e+01 5.195811e+01
      endloop
   endfacet
   facet normal 4.000000e-15 1.000000e+00 -1.000000e-15
      outer loop
         vertex 2.091883e+01 -5.192519e+01 5.058074e+01
         vertex 8.809033e+00 -5.192519e+01 5.195811e+01
         vertex 9.264024e+00 -5.192519e+01 5.236120e+01
      endloop
   endfacet
   facet normal 4.000000e-15 1.000000e+00 -1.000000e-15
      outer loop
         vertex 2.091883e+01 -5.192519e+01 6.963074e+01
         vertex 9.479574e+00 -5.192519e+01 6.697576e+01
         vertex 9.406305e+00 -5.192519e+01 6.757919e+01
      endloop
   endfacet
   facet normal 4.000000e-15 1.000000e+00 -1.000000e-15
      outer loop
         vertex 9.406305e+00 -5.192519e+01 6.757919e+01
         vertex 9.061000e+00 -5.192519e+01 6.807945e+01
         vertex 2.091883e+01 -5.192519e+01 6.963074e+01
      endloop
   endfacet
   facet normal 4.000000e-15 1.000000e+00 -1.000000e-15
      outer loop
         vertex 2.091883e+01 -5.192519e+01 6.963074e+01
         vertex 9.061000e+00 -5.192519e+01 6.807945e+01
         vertex 8.522765e+00 -5.192519e+01 6.836194e+01
      endloop
   endfacet
   facet normal 4.000000e-15 1.000000e+00 -1.000000e-15
      outer loop
         vertex 2.091883e+01 -5.192519e+01 6.963074e+01
         vertex 8.522765e+00 -5.192519e+01 6.836194e+01
         vertex -4.481166e+00 -5.192519e+01 6.963074e+01
      endloop
   endfacet
   facet normal 4.000000e-15 1.000000e+00 -1.000000e-15
      outer loop
         vertex -4.481166e+00 -5.192519e+01 6.963074e+01
         vertex 8.522765e+00 -5.192519e+01 6.836194e+01
         vertex 7.914903e+00 -5.192519e+01 6.836194e+01
      endloop
   endfacet
   facet normal 4.000000e-15 1.000000e+00 -1.000000e-15
      outer loop
         vertex -4.481166e+00 -5.192519e+01 6.963074e+01
         vertex 7.914903e+00 -5.192519e+01 6.836194e+01
         vertex 7.376668e+00 -5.192519e+01 6.807945e+01
      endloop
   endfacet
   facet normal 4.000000e-15 1.000000e+00 -1.000000e-15
      outer loop
         vertex 7.031363e+00 -5.192519e+01 6.757919e+01
         vertex 6.958094e+00 -5.192519e+01 6.697576e+01
         vertex -4.481166e+00 -5.192519e+01 6.963074e+01
      endloop
   endfacet
   facet normal 4.000000e-15 1.000000e+00 -1.000000e-15
      outer loop
         vertex -4.481166e+00 -5.192519e+01 6.963074e+01
         vertex 6.958094e+00 -5.192519e+01 6.697576e+01
         vertex 7.173645e+00 -5.192519e+01 6.640740e+01
      endloop
   endfacet
   facet normal 4.000000e-15 1.000000e+00 -1.000000e-15
      outer loop
         vertex -4.481166e+00 -5.192519e+01 6.963074e+01
         vertex 7.173645e+00 -5.192519e+01 6.640740e+01
         vertex 7.628636e+00 -5.192519e+01 6.600431e+01
      endloop
   endfacet
   facet normal 4.000000e-15 1.000000e+00 -1.000000e-15
      outer loop
         vertex 7.914903e+00 -5.192519e+01 5.431574e+01
         vertex 6.055356e-01 -5.192519e+01 5.898121e+01
         vertex 8.522765e+00 -5.192519e+01 5.431574e+01
      endloop
   endfacet
   facet normal 4.000000e-15 1.000000e+00 -1.000000e-15
      outer loop
         vertex 8.522765e+00 -5.192519e+01 5.431574e+01
         vertex 6.055356e-01 -5.192519e+01 5.898121e+01
         vertex 1.195734e+00 -5.192519e+01 5.883574e+01
      endloop
   endfacet
   facet normal 4.000000e-15 1.000000e+00 -1.000000e-15
      outer loop
         vertex 8.522765e+00 -5.192519e+01 5.431574e+01
         vertex 1.195734e+00 -5.192519e+01 5.883574e+01
         vertex 9.061000e+00 -5.192519e+01 5.403325e+01
      endloop
   endfacet
   facet normal 4.000000e-15 1.000000e+00 -1.000000e-15
      outer loop
         vertex 1.642940e+01 -5.192519e+01 6.055609e+01
         vertex 2.091883e+01 -5.192519e+01 6.963074e+01
         vertex 1.650267e+01 -5.192519e+01 5.995266e+01
      endloop
   endfacet
   facet normal 4.000000e-15 1.000000e+00 -1.000000e-15
      outer loop
         vertex 1.650267e+01 -5.192519e+01 5.995266e+01
         vertex 2.091883e+01 -5.192519e+01 6.963074e+01
         vertex 2.091883e+01 -5.192519e+01 5.058074e+01
      endloop
   endfacet
   facet normal 4.000000e-15 1.000000e+00 -1.000000e-15
      outer loop
         vertex 1.650267e+01 -5.192519e+01 5.995266e+01
         vertex 2.091883e+01 -5.192519e+01 5.058074e+01
         vertex 1.628712e+01 -5.192519e+01 5.938430e+01
      endloop
   endfacet
   facet normal 4.000000e-15 1.000000e+00 -1.000000e-15
      outer loop
         vertex 8.918032e-01 -5.192519e+01 6.133884e+01
         vertex -4.481166e+00 -5.192519e+01 6.963074e+01
         vertex 1.499665e+00 -5.192519e+01 6.133884e+01
      endloop
   endfacet
   facet normal 4.000000e-15 1.000000e+00 -1.000000e-15
      outer loop
         vertex 1.499665e+00 -5.192519e+01 6.133884e+01
         vertex -4.481166e+00 -5.192519e+01 6.963074e+01
         vertex 7.628636e+00 -5.192519e+01 6.600431e+01
      endloop
   endfacet
   facet normal 4.000000e-15 1.000000e+00 -1.000000e-15
      outer loop
         vertex 1.499665e+00 -5.192519e+01 6.133884e+01
         vertex 7.628636e+00 -5.192519e+01 6.600431e+01
         vertex 2.037900e+00 -5.192519e+01 6.105635e+01
      endloop
   endfacet
   facet normal 4.000000e-15 1.000000e+00 -1.000000e-15
      outer loop
         vertex 2.037900e+00 -5.192519e+01 6.105635e+01
         vertex 7.628636e+00 -5.192519e+01 6.600431e+01
         vertex 2.383205e+00 -5.192519e+01 6.055609e+01
      endloop
   endfacet
   facet normal 4.000000e-15 1.000000e+00 -1.000000e-15
      outer loop
         vertex 8.918032e-01 -5.192519e+01 6.133884e+01
         vertex 3.535681e-01 -5.192519e+01 6.105635e+01
         vertex -4.481166e+00 -5.192519e+01 6.963074e+01
      endloop
   endfacet
   facet normal 4.000000e-15 1.000000e+00 -1.000000e-15
      outer loop
         vertex -4.481166e+00 -5.192519e+01 6.963074e+01
         vertex 3.535681e-01 -5.192519e+01 6.105635e+01
         vertex 8.263530e-03 -5.192519e+01 6.055609e+01
      endloop
   endfacet
   facet normal 4.000000e-15 1.000000e+00 -1.000000e-15
      outer loop
         vertex -4.481166e+00 -5.192519e+01 6.963074e+01
         vertex 8.263530e-03 -5.192519e+01 6.055609e+01
         vertex -4.481166e+00 -5.192519e+01 5.058074e+01
      endloop
   endfacet
   facet normal 4.000000e-15 1.000000e+00 -1.000000e-15
      outer loop
         vertex -4.481166e+00 -5.192519e+01 5.058074e+01
         vertex 8.263530e-03 -5.192519e+01 6.055609e+01
         vertex -6.500641e-02 -5.192519e+01 5.995266e+01
      endloop
   endfacet
   facet normal 4.000000e-15 1.000000e+00 -1.000000e-15
      outer loop
         vertex -4.481166e+00 -5.192519e+01 5.058074e+01
         vertex -6.500641e-02 -5.192519e+01 5.995266e+01
         vertex 1.505445e-01 -5.192519e+01 5.938430e+01
      endloop
   endfacet
   facet normal 4.000000e-15 1.000000e+00 -1.000000e-15
      outer loop
         vertex 7.914903e+00 -5.192519e+01 5.431574e+01
         vertex 7.376668e+00 -5.192519e+01 5.403325e+01
         vertex 6.055356e-01 -5.192519e+01 5.898121e+01
      endloop
   endfacet
   facet normal 4.000000e-15 1.000000e+00 -1.000000e-15
      outer loop
         vertex 6.055356e-01 -5.192519e+01 5.898121e+01
         vertex 7.376668e+00 -5.192519e+01 5.403325e+01
         vertex 7.031363e+00 -5.192519e+01 5.353299e+01
      endloop
   endfacet
   facet normal 4.000000e-15 1.000000e+00 -1.000000e-15
      outer loop
         vertex 6.055356e-01 -5.192519e+01 5.898121e+01
         vertex 7.031363e+00 -5.192519e+01 5.353299e+01
         vertex -4.481166e+00 -5.192519e+01 5.058074e+01
      endloop
   endfacet
   facet normal 4.000000e-15 1.000000e+00 -1.000000e-15
      outer loop
         vertex -4.481166e+00 -5.192519e+01 5.058074e+01
         vertex 7.031363e+00 -5.192519e+01 5.353299e+01
         vertex 6.958094e+00 -5.192519e+01 5.292956e+01
      endloop
   endfacet
   facet normal 4.000000e-15 1.000000e+00 -1.000000e-15
      outer loop
         vertex -4.481166e+00 -5.192519e+01 5.058074e+01
         vertex 6.958094e+00 -5.192519e+01 5.292956e+01
         vertex 7.173645e+00 -5.192519e+01 5.236120e+01
      endloop
   endfacet
   facet normal 4.000000e-15 1.000000e+00 -1.000000e-15
      outer loop
         vertex 1.642940e+01 -5.192519e+01 6.055609e+01
         vertex 1.608410e+01 -5.192519e+01 6.105635e+01
         vertex 2.091883e+01 -5.192519e+01 6.963074e+01
      endloop
   endfacet
   facet normal 4.000000e-15 1.000000e+00 -1.000000e-15
      outer loop
         vertex 2.091883e+01 -5.192519e+01 6.963074e+01
         vertex 1.608410e+01 -5.192519e+01 6.105635e+01
         vertex 1.554586e+01 -5.192519e+01 6.133884e+01
      endloop
   endfacet
   facet normal 4.000000e-15 1.000000e+00 -1.000000e-15
      outer loop
         vertex 2.091883e+01 -5.192519e+01 6.963074e+01
         vertex 1.554586e+01 -5.192519e+01 6.133884e+01
         vertex 9.479574e+00 -5.192519e+01 6.697576e+01
      endloop
   endfacet
   facet normal 4.000000e-15 1.000000e+00 -1.000000e-15
      outer loop
         vertex 1.554586e+01 -5.192519e+01 6.133884e+01
         vertex 1.493800e+01 -5.192519e+01 6.133884e+01
         vertex 9.479574e+00 -5.192519e+01 6.697576e+01
      endloop
   endfacet
   facet normal 4.000000e-15 1.000000e+00 -1.000000e-15
      outer loop
         vertex 9.479574e+00 -5.192519e+01 6.697576e+01
         vertex 1.493800e+01 -5.192519e+01 6.133884e+01
         vertex 1.439977e+01 -5.192519e+01 6.105635e+01
      endloop
   endfacet
   facet normal 4.000000e-15 1.000000e+00 -1.000000e-15
      outer loop
         vertex 9.479574e+00 -5.192519e+01 6.697576e+01
         vertex 1.439977e+01 -5.192519e+01 6.105635e+01
         vertex 9.264024e+00 -5.192519e+01 6.640740e+01
      endloop
   endfacet
   facet normal 4.000000e-15 1.000000e+00 -1.000000e-15
      outer loop
         vertex 1.195734e+00 -5.192519e+01 5.883574e+01
         vertex 1.785932e+00 -5.192519e+01 5.898121e+01
         vertex 9.061000e+00 -5.192519e+01 5.403325e+01
      endloop
   endfacet
   facet normal 4.000000e-15 1.000000e+00 -1.000000e-15
      outer loop
         vertex 9.061000e+00 -5.192519e+01 5.403325e+01
         vertex 1.785932e+00 -5.192519e+01 5.898121e+01
         vertex 2.240924e+00 -5.192519e+01 5.938430e+01
      endloop
   endfacet
   facet normal 4.000000e-15 1.000000e+00 -1.000000e-15
      outer loop
         vertex 9.061000e+00 -5.192519e+01 5.403325e+01
         vertex 2.240924e+00 -5.192519e+01 5.938430e+01
         vertex 2.456474e+00 -5.192519e+01 5.995266e+01
      endloop
   endfacet
   facet normal 4.000000e-15 1.000000e+00 -1.000000e-15
      outer loop
         vertex 1.398119e+01 -5.192519e+01 5.995266e+01
         vertex 1.419674e+01 -5.192519e+01 5.938430e+01
         vertex 9.479574e+00 -5.192519e+01 5.292956e+01
      endloop
   endfacet
   facet normal 4.000000e-15 1.000000e+00 -1.000000e-15
      outer loop
         vertex 9.479574e+00 -5.192519e+01 5.292956e+01
         vertex 1.419674e+01 -5.192519e+01 5.938430e+01
         vertex 1.465174e+01 -5.192519e+01 5.898121e+01
      endloop
   endfacet
   facet normal 4.000000e-15 1.000000e+00 -1.000000e-15
      outer loop
         vertex 9.479574e+00 -5.192519e+01 5.292956e+01
         vertex 1.465174e+01 -5.192519e+01 5.898121e+01
         vertex 9.264024e+00 -5.192519e+01 5.236120e+01
      endloop
   endfacet
   facet normal 4.000000e-15 1.000000e+00 -1.000000e-15
      outer loop
         vertex 9.264024e+00 -5.192519e+01 5.236120e+01
         vertex 1.465174e+01 -5.192519e+01 5.898121e+01
         vertex 1.524193e+01 -5.192519e+01 5.883574e+01
      endloop
   endfacet
   facet normal 4.000000e-15 1.000000e+00 -1.000000e-15
      outer loop
         vertex 9.264024e+00 -5.192519e+01 5.236120e+01
         vertex 1.524193e+01 -5.192519e+01 5.883574e+01
         vertex 2.091883e+01 -5.192519e+01 5.058074e+01
      endloop
   endfacet
   facet normal 4.000000e-15 1.000000e+00 -1.000000e-15
      outer loop
         vertex 2.091883e+01 -5.192519e+01 5.058074e+01
         vertex 1.524193e+01 -5.192519e+01 5.883574e+01
         vertex 1.583213e+01 -5.192519e+01 5.898121e+01
      endloop
   endfacet
   facet normal 4.000000e-15 1.000000e+00 -1.000000e-15
      outer loop
         vertex 2.091883e+01 -5.192519e+01 5.058074e+01
         vertex 1.583213e+01 -5.192519e+01 5.898121e+01
         vertex 1.628712e+01 -5.192519e+01 5.938430e+01
      endloop
   endfacet
   facet normal 4.000000e-15 1.000000e+00 -1.000000e-15
      outer loop
         vertex 9.264024e+00 -5.192519e+01 6.640740e+01
         vertex 1.439977e+01 -5.192519e+01 6.105635e+01
         vertex 8.809033e+00 -5.192519e+01 6.600431e+01
      endloop
   endfacet
   facet normal 4.000000e-15 1.000000e+00 -1.000000e-15
      outer loop
         vertex 8.809033e+00 -5.192519e+01 6.600431e+01
         vertex 1.439977e+01 -5.192519e+01 6.105635e+01
         vertex 1.405446e+01 -5.192519e+01 6.055609e+01
      endloop
   endfacet
   facet normal 4.000000e-15 1.000000e+00 -1.000000e-15
      outer loop
         vertex 8.809033e+00 -5.192519e+01 6.600431e+01
         vertex 1.405446e+01 -5.192519e+01 6.055609e+01
         vertex 8.218834e+00 -5.192519e+01 6.585884e+01
      endloop
   endfacet
   facet normal 4.000000e-15 1.000000e+00 -1.000000e-15
      outer loop
         vertex 2.456474e+00 -5.192519e+01 5.995266e+01
         vertex 2.383205e+00 -5.192519e+01 6.055609e+01
         vertex 9.061000e+00 -5.192519e+01 5.403325e+01
      endloop
   endfacet
   facet normal 4.000000e-15 1.000000e+00 -1.000000e-15
      outer loop
         vertex 9.061000e+00 -5.192519e+01 5.403325e+01
         vertex 2.383205e+00 -5.192519e+01 6.055609e+01
         vertex 7.628636e+00 -5.192519e+01 6.600431e+01
      endloop
   endfacet
   facet normal 4.000000e-15 1.000000e+00 -1.000000e-15
      outer loop
         vertex 9.061000e+00 -5.192519e+01 5.403325e+01
         vertex 7.628636e+00 -5.192519e+01 6.600431e+01
         vertex 9.406305e+00 -5.192519e+01 5.353299e+01
      endloop
   endfacet
   facet normal 4.000000e-15 1.000000e+00 -1.000000e-15
      outer loop
         vertex 9.406305e+00 -5.192519e+01 5.353299e+01
         vertex 7.628636e+00 -5.192519e+01 6.600431e+01
         vertex 8.218834e+00 -5.192519e+01 6.585884e+01
      endloop
   endfacet
   facet normal 4.000000e-15 1.000000e+00 -1.000000e-15
      outer loop
         vertex 9.406305e+00 -5.192519e+01 5.353299e+01
         vertex 8.218834e+00 -5.192519e+01 6.585884e+01
         vertex 9.479574e+00 -5.192519e+01 5.292956e+01
      endloop
   endfacet
   facet normal 4.000000e-15 1.000000e+00 -1.000000e-15
      outer loop
         vertex 9.479574e+00 -5.192519e+01 5.292956e+01
         vertex 8.218834e+00 -5.192519e+01 6.585884e+01
         vertex 1.405446e+01 -5.192519e+01 6.055609e+01
      endloop
   endfacet
   facet normal 4.000000e-15 1.000000e+00 -1.000000e-15
      outer loop
         vertex 9.479574e+00 -5.192519e+01 5.292956e+01
         vertex 1.405446e+01 -5.192519e+01 6.055609e+01
         vertex 1.398119e+01 -5.192519e+01 5.995266e+01
      endloop
   endfacet
   facet normal 1.000000e+00 -4.000000e-15 2.000000e-15
      outer loop
         vertex 2.091883e+01 -5.192519e+01 5.058074e+01
         vertex 2.091883e+01 -5.192519e+01 6.963074e+01
         vertex 2.091883e+01 -5.827519e+01 5.058074e+01
      endloop
   endfacet
   facet normal 1.000000e+00 -4.000000e-15 2.000000e-15
      outer loop
         vertex 2.091883e+01 -5.827519e+01 5.058074e+01
         vertex 2.091883e+01 -5.192519e+01 6.963074e+01
         vertex 2.091883e+01 -5.827519e+01 6.963074e+01
      endloop
   endfacet
   facet normal -4.000000e-15 -1.000000e+00 1.000000e-15
      outer loop
         vertex 7.376668e+00 -5.827519e+01 6.807945e+01
         vertex 7.914903e+00 -5.827519e+01 6.836194e+01
         vertex -4.481166e+00 -5.827519e+01 6.963074e+01
      endloop
   endfacet
   facet normal -4.000000e-15 -1.000000e+00 1.000000e-15
      outer loop
         vertex 7.628636e+00 -5.827519e+01 5.195811e+01
         vertex -4.481166e+00 -5.827519e+01 5.058074e+01
         vertex 8.218834e+00 -5.827519e+01 5.181264e+01
      endloop
   endfacet
   facet normal -4.000000e-15 -1.000000e+00 1.000000e-15
      outer loop
         vertex 8.218834e+00 -5.827519e+01 5.181264e+01
         vertex -4.481166e+00 -5.827519e+01 5.058074e+01
         vertex 2.091883e+01 -5.827519e+01 5.058074e+01
      endloop
   endfacet
   facet normal -4.000000e-15 -1.000000e+00 1.000000e-15
      outer loop
         vertex 1.195734e+00 -5.827519e+01 5.883574e+01
         vertex 6.055356e-01 -5.827519e+01 5.898121e+01
         vertex -4.481166e+00 -5.827519e+01 5.058074e+01
      endloop
   endfacet
   facet normal -4.000000e-15 -1.000000e+00 1.000000e-15
      outer loop
         vertex 1.195734e+00 -5.827519e+01 5.883574e+01
         vertex -4.481166e+00 -5.827519e+01 5.058074e+01
         vertex 1.785932e+00 -5.827519e+01 5.898121e+01
      endloop
   endfacet
   facet normal -4.000000e-15 -1.000000e+00 1.000000e-15
      outer loop
         vertex 6.055356e-01 -5.827519e+01 5.898121e+01
         vertex 1.505445e-01 -5.827519e+01 5.938430e+01
         vertex -4.481166e+00 -5.827519e+01 5.058074e+01
      endloop
   endfacet
   facet normal -4.000000e-15 -1.000000e+00 1.000000e-15
      outer loop
         vertex -4.481166e+00 -5.827519e+01 5.058074e+01
         vertex 1.505445e-01 -5.827519e+01 5.938430e+01
         vertex -6.500641e-02 -5.827519e+01 5.995266e+01
      endloop
   endfacet
   facet normal -4.000000e-15 -1.000000e+00 1.000000e-15
      outer loop
         vertex -4.481166e+00 -5.827519e+01 5.058074e+01
         vertex -6.500641e-02 -5.827519e+01 5.995266e+01
         vertex -4.481166e+00 -5.827519e+01 6.963074e+01
      endloop
   endfacet
   facet normal -4.000000e-15 -1.000000e+00 1.000000e-15
      outer loop
         vertex -6.500641e-02 -5.827519e+01 5.995266e+01
         vertex 8.263530e-03 -5.827519e+01 6.055609e+01
         vertex -4.481166e+00 -5.827519e+01 6.963074e+01
      endloop
   endfacet
   facet normal -4.000000e-15 -1.000000e+00 1.000000e-15
      outer loop
         vertex -4.481166e+00 -5.827519e+01 6.963074e+01
         vertex 8.263530e-03 -5.827519e+01 6.055609e+01
         vertex 3.535681e-01 -5.827519e+01 6.105635e+01
      endloop
   endfacet
   facet normal -4.000000e-15 -1.000000e+00 1.000000e-15
      outer loop
         vertex -4.481166e+00 -5.827519e+01 6.963074e+01
         vertex 3.535681e-01 -5.827519e+01 6.105635e+01
         vertex 8.918032e-01 -5.827519e+01 6.133884e+01
      endloop
   endfacet
   facet normal -4.000000e-15 -1.000000e+00 1.000000e-15
      outer loop
         vertex -4.481166e+00 -5.827519e+01 6.963074e+01
         vertex 7.914903e+00 -5.827519e+01 6.836194e+01
         vertex 2.091883e+01 -5.827519e+01 6.963074e+01
      endloop
   endfacet
   facet normal -4.000000e-15 -1.000000e+00 1.000000e-15
      outer loop
         vertex 2.091883e+01 -5.827519e+01 6.963074e+01
         vertex 7.914903e+00 -5.827519e+01 6.836194e+01
         vertex 8.522765e+00 -5.827519e+01 6.836194e+01
      endloop
   endfacet
   facet normal -4.000000e-15 -1.000000e+00 1.000000e-15
      outer loop
         vertex 2.091883e+01 -5.827519e+01 6.963074e+01
         vertex 8.522765e+00 -5.827519e+01 6.836194e+01
         vertex 9.061000e+00 -5.827519e+01 6.807945e+01
      endloop
   endfacet
   facet normal -4.000000e-15 -1.000000e+00 1.000000e-15
      outer loop
         vertex 8.522765e+00 -5.827519e+01 5.431574e+01
         vertex 9.479574e+00 -5.827519e+01 6.697576e+01
         vertex 9.264024e+00 -5.827519e+01 6.640740e+01
      endloop
   endfacet
   facet normal -4.000000e-15 -1.000000e+00 1.000000e-15
      outer loop
         vertex 9.479574e+00 -5.827519e+01 5.292956e+01
         vertex 9.264024e+00 -5.827519e+01 5.236120e+01
         vertex 2.091883e+01 -5.827519e+01 5.058074e+01
      endloop
   endfacet
   facet normal -4.000000e-15 -1.000000e+00 1.000000e-15
      outer loop
         vertex 2.091883e+01 -5.827519e+01 5.058074e+01
         vertex 9.264024e+00 -5.827519e+01 5.236120e+01
         vertex 8.809033e+00 -5.827519e+01 5.195811e+01
      endloop
   endfacet
   facet normal -4.000000e-15 -1.000000e+00 1.000000e-15
      outer loop
         vertex 2.091883e+01 -5.827519e+01 5.058074e+01
         vertex 8.809033e+00 -5.827519e+01 5.195811e+01
         vertex 8.218834e+00 -5.827519e+01 5.181264e+01
      endloop
   endfacet
   facet normal -4.000000e-15 -1.000000e+00 1.000000e-15
      outer loop
         vertex 7.376668e+00 -5.827519e+01 6.807945e+01
         vertex -4.481166e+00 -5.827519e+01 6.963074e+01
         vertex 7.031363e+00 -5.827519e+01 6.757919e+01
      endloop
   endfacet
   facet normal -4.000000e-15 -1.000000e+00 1.000000e-15
      outer loop
         vertex 7.031363e+00 -5.827519e+01 6.757919e+01
         vertex -4.481166e+00 -5.827519e+01 6.963074e+01
         vertex 8.918032e-01 -5.827519e+01 6.133884e+01
      endloop
   endfacet
   facet normal -4.000000e-15 -1.000000e+00 1.000000e-15
      outer loop
         vertex 7.031363e+00 -5.827519e+01 6.757919e+01
         vertex 8.918032e-01 -5.827519e+01 6.133884e+01
         vertex 6.958094e+00 -5.827519e+01 6.697576e+01
      endloop
   endfacet
   facet normal -4.000000e-15 -1.000000e+00 1.000000e-15
      outer loop
         vertex 6.958094e+00 -5.827519e+01 6.697576e+01
         vertex 8.918032e-01 -5.827519e+01 6.133884e+01
         vertex 1.499665e+00 -5.827519e+01 6.133884e+01
      endloop
   endfacet
   facet normal -4.000000e-15 -1.000000e+00 1.000000e-15
      outer loop
         vertex 6.958094e+00 -5.827519e+01 6.697576e+01
         vertex 1.499665e+00 -5.827519e+01 6.133884e+01
         vertex 2.037900e+00 -5.827519e+01 6.105635e+01
      endloop
   endfacet
   facet normal -4.000000e-15 -1.000000e+00 1.000000e-15
      outer loop
         vertex 9.264024e+00 -5.827519e+01 6.640740e+01
         vertex 8.809033e+00 -5.827519e+01 6.600431e+01
         vertex 8.522765e+00 -5.827519e+01 5.431574e+01
      endloop
   endfacet
   facet normal -4.000000e-15 -1.000000e+00 1.000000e-15
      outer loop
         vertex 8.522765e+00 -5.827519e+01 5.431574e+01
         vertex 8.809033e+00 -5.827519e+01 6.600431e+01
         vertex 8.218834e+00 -5.827519e+01 6.585884e+01
      endloop
   endfacet
   facet normal -4.000000e-15 -1.000000e+00 1.000000e-15
      outer loop
         vertex 8.522765e+00 -5.827519e+01 5.431574e+01
         vertex 8.218834e+00 -5.827519e+01 6.585884e+01
         vertex 7.914903e+00 -5.827519e+01 5.431574e+01
      endloop
   endfacet
   facet normal -4.000000e-15 -1.000000e+00 1.000000e-15
      outer loop
         vertex 7.914903e+00 -5.827519e+01 5.431574e+01
         vertex 8.218834e+00 -5.827519e+01 6.585884e+01
         vertex 7.628636e+00 -5.827519e+01 6.600431e+01
      endloop
   endfacet
   facet normal -4.000000e-15 -1.000000e+00 1.000000e-15
      outer loop
         vertex 7.914903e+00 -5.827519e+01 5.431574e+01
         vertex 7.628636e+00 -5.827519e+01 6.600431e+01
         vertex 7.173645e+00 -5.827519e+01 6.640740e+01
      endloop
   endfacet
   facet normal -4.000000e-15 -1.000000e+00 1.000000e-15
      outer loop
         vertex 7.173645e+00 -5.827519e+01 6.640740e+01
         vertex 6.958094e+00 -5.827519e+01 6.697576e+01
         vertex 7.914903e+00 -5.827519e+01 5.431574e+01
      endloop
   endfacet
   facet normal -4.000000e-15 -1.000000e+00 1.000000e-15
      outer loop
         vertex 7.914903e+00 -5.827519e+01 5.431574e+01
         vertex 6.958094e+00 -5.827519e+01 6.697576e+01
         vertex 2.037900e+00 -5.827519e+01 6.105635e+01
      endloop
   endfacet
   facet normal -4.000000e-15 -1.000000e+00 1.000000e-15
      outer loop
         vertex 7.914903e+00 -5.827519e+01 5.431574e+01
         vertex 2.037900e+00 -5.827519e+01 6.105635e+01
         vertex 7.376668e+00 -5.827519e+01 5.403325e+01
      endloop
   endfacet
   facet normal -4.000000e-15 -1.000000e+00 1.000000e-15
      outer loop
         vertex 7.376668e+00 -5.827519e+01 5.403325e+01
         vertex 2.037900e+00 -5.827519e+01 6.105635e+01
         vertex 2.383205e+00 -5.827519e+01 6.055609e+01
      endloop
   endfacet
   facet normal -4.000000e-15 -1.000000e+00 1.000000e-15
      outer loop
         vertex 1.628712e+01 -5.827519e+01 5.938430e+01
         vertex 1.583213e+01 -5.827519e+01 5.898121e+01
         vertex 2.091883e+01 -5.827519e+01 5.058074e+01
      endloop
   endfacet
   facet normal -4.000000e-15 -1.000000e+00 1.000000e-15
      outer loop
         vertex 2.091883e+01 -5.827519e+01 5.058074e+01
         vertex 1.583213e+01 -5.827519e+01 5.898121e+01
         vertex 1.524193e+01 -5.827519e+01 5.883574e+01
      endloop
   endfacet
   facet normal -4.000000e-15 -1.000000e+00 1.000000e-15
      outer loop
         vertex 2.091883e+01 -5.827519e+01 5.058074e+01
         vertex 1.524193e+01 -5.827519e+01 5.883574e+01
         vertex 9.479574e+00 -5.827519e+01 5.292956e+01
      endloop
   endfacet
   facet normal -4.000000e-15 -1.000000e+00 1.000000e-15
      outer loop
         vertex 9.479574e+00 -5.827519e+01 5.292956e+01
         vertex 1.524193e+01 -5.827519e+01 5.883574e+01
         vertex 1.465174e+01 -5.827519e+01 5.898121e+01
      endloop
   endfacet
   facet normal -4.000000e-15 -1.000000e+00 1.000000e-15
      outer loop
         vertex 2.091883e+01 -5.827519e+01 6.963074e+01
         vertex 1.642940e+01 -5.827519e+01 6.055609e+01
         vertex 2.091883e+01 -5.827519e+01 5.058074e+01
      endloop
   endfacet
   facet normal -4.000000e-15 -1.000000e+00 1.000000e-15
      outer loop
         vertex 2.091883e+01 -5.827519e+01 5.058074e+01
         vertex 1.642940e+01 -5.827519e+01 6.055609e+01
         vertex 1.650267e+01 -5.827519e+01 5.995266e+01
      endloop
   endfacet
   facet normal -4.000000e-15 -1.000000e+00 1.000000e-15
      outer loop
         vertex 2.091883e+01 -5.827519e+01 5.058074e+01
         vertex 1.650267e+01 -5.827519e+01 5.995266e+01
         vertex 1.628712e+01 -5.827519e+01 5.938430e+01
      endloop
   endfacet
   facet normal -4.000000e-15 -1.000000e+00 1.000000e-15
      outer loop
         vertex 9.479574e+00 -5.827519e+01 6.697576e+01
         vertex 1.405446e+01 -5.827519e+01 6.055609e+01
         vertex 1.439977e+01 -5.827519e+01 6.105635e+01
      endloop
   endfacet
   facet normal -4.000000e-15 -1.000000e+00 1.000000e-15
      outer loop
         vertex 2.383205e+00 -5.827519e+01 6.055609e+01
         vertex 2.456474e+00 -5.827519e+01 5.995266e+01
         vertex 7.376668e+00 -5.827519e+01 5.403325e+01
      endloop
   endfacet
   facet normal -4.000000e-15 -1.000000e+00 1.000000e-15
      outer loop
         vertex 7.376668e+00 -5.827519e+01 5.403325e+01
         vertex 2.456474e+00 -5.827519e+01 5.995266e+01
         vertex 2.240924e+00 -5.827519e+01 5.938430e+01
      endloop
   endfacet
   facet normal -4.000000e-15 -1.000000e+00 1.000000e-15
      outer loop
         vertex 7.376668e+00 -5.827519e+01 5.403325e+01
         vertex 2.240924e+00 -5.827519e+01 5.938430e+01
         vertex 7.031363e+00 -5.827519e+01 5.353299e+01
      endloop
   endfacet
   facet normal -4.000000e-15 -1.000000e+00 1.000000e-15
      outer loop
         vertex 7.031363e+00 -5.827519e+01 5.353299e+01
         vertex 2.240924e+00 -5.827519e+01 5.938430e+01
         vertex 1.785932e+00 -5.827519e+01 5.898121e+01
      endloop
   endfacet
   facet normal -4.000000e-15 -1.000000e+00 1.000000e-15
      outer loop
         vertex 7.031363e+00 -5.827519e+01 5.353299e+01
         vertex 1.785932e+00 -5.827519e+01 5.898121e+01
         vertex 6.958094e+00 -5.827519e+01 5.292956e+01
      endloop
   endfacet
   facet normal -4.000000e-15 -1.000000e+00 1.000000e-15
      outer loop
         vertex 6.958094e+00 -5.827519e+01 5.292956e+01
         vertex 1.785932e+00 -5.827519e+01 5.898121e+01
         vertex -4.481166e+00 -5.827519e+01 5.058074e+01
      endloop
   endfacet
   facet normal -4.000000e-15 -1.000000e+00 1.000000e-15
      outer loop
         vertex 6.958094e+00 -5.827519e+01 5.292956e+01
         vertex -4.481166e+00 -5.827519e+01 5.058074e+01
         vertex 7.173645e+00 -5.827519e+01 5.236120e+01
      endloop
   endfacet
   facet normal -4.000000e-15 -1.000000e+00 1.000000e-15
      outer loop
         vertex 7.173645e+00 -5.827519e+01 5.236120e+01
         vertex -4.481166e+00 -5.827519e+01 5.058074e+01
         vertex 7.628636e+00 -5.827519e+01 5.195811e+01
      endloop
   endfacet
   facet normal -4.000000e-15 -1.000000e+00 1.000000e-15
      outer loop
         vertex 9.479574e+00 -5.827519e+01 6.697576e+01
         vertex 1.439977e+01 -5.827519e+01 6.105635e+01
         vertex 9.406305e+00 -5.827519e+01 6.757919e+01
      endloop
   endfacet
   facet normal -4.000000e-15 -1.000000e+00 1.000000e-15
      outer loop
         vertex 9.406305e+00 -5.827519e+01 6.757919e+01
         vertex 1.439977e+01 -5.827519e+01 6.105635e+01
         vertex 1.493800e+01 -5.827519e+01 6.133884e+01
      endloop
   endfacet
   facet normal -4.000000e-15 -1.000000e+00 1.000000e-15
      outer loop
         vertex 9.406305e+00 -5.827519e+01 6.757919e+01
         vertex 1.493800e+01 -5.827519e+01 6.133884e+01
         vertex 9.061000e+00 -5.827519e+01 6.807945e+01
      endloop
   endfacet
   facet normal -4.000000e-15 -1.000000e+00 1.000000e-15
      outer loop
         vertex 9.061000e+00 -5.827519e+01 6.807945e+01
         vertex 1.493800e+01 -5.827519e+01 6.133884e+01
         vertex 1.554586e+01 -5.827519e+01 6.133884e+01
      endloop
   endfacet
   facet normal -4.000000e-15 -1.000000e+00 1.000000e-15
      outer loop
         vertex 9.061000e+00 -5.827519e+01 6.807945e+01
         vertex 1.554586e+01 -5.827519e+01 6.133884e+01
         vertex 2.091883e+01 -5.827519e+01 6.963074e+01
      endloop
   endfacet
   facet normal -4.000000e-15 -1.000000e+00 1.000000e-15
      outer loop
         vertex 2.091883e+01 -5.827519e+01 6.963074e+01
         vertex 1.554586e+01 -5.827519e+01 6.133884e+01
         vertex 1.608410e+01 -5.827519e+01 6.105635e+01
      endloop
   endfacet
   facet normal -4.000000e-15 -1.000000e+00 1.000000e-15
      outer loop
         vertex 2.091883e+01 -5.827519e+01 6.963074e+01
         vertex 1.608410e+01 -5.827519e+01 6.105635e+01
         vertex 1.642940e+01 -5.827519e+01 6.055609e+01
      endloop
   endfacet
   facet normal -4.000000e-15 -1.000000e+00 1.000000e-15
      outer loop
         vertex 1.405446e+01 -5.827519e+01 6.055609e+01
         vertex 9.479574e+00 -5.827519e+01 6.697576e+01
         vertex 1.398119e+01 -5.827519e+01 5.995266e+01
      endloop
   endfacet
   facet normal -4.000000e-15 -1.000000e+00 1.000000e-15
      outer loop
         vertex 1.398119e+01 -5.827519e+01 5.995266e+01
         vertex 9.479574e+00 -5.827519e+01 6.697576e+01
         vertex 8.522765e+00 -5.827519e+01 5.431574e+01
      endloop
   endfacet
   facet normal -4.000000e-15 -1.000000e+00 1.000000e-15
      outer loop
         vertex 1.398119e+01 -5.827519e+01 5.995266e+01
         vertex 8.522765e+00 -5.827519e+01 5.431574e+01
         vertex 1.419674e+01 -5.827519e+01 5.938430e+01
      endloop
   endfacet
   facet normal -4.000000e-15 -1.000000e+00 1.000000e-15
      outer loop
         vertex 1.419674e+01 -5.827519e+01 5.938430e+01
         vertex 8.522765e+00 -5.827519e+01 5.431574e+01
         vertex 9.061000e+00 -5.827519e+01 5.403325e+01
      endloop
   endfacet
   facet normal -4.000000e-15 -1.000000e+00 1.000000e-15
      outer loop
         vertex 1.419674e+01 -5.827519e+01 5.938430e+01
         vertex 9.061000e+00 -5.827519e+01 5.403325e+01
         vertex 1.465174e+01 -5.827519e+01 5.898121e+01
      endloop
   endfacet
   facet normal -4.000000e-15 -1.000000e+00 1.000000e-15
      outer loop
         vertex 1.465174e+01 -5.827519e+01 5.898121e+01
         vertex 9.061000e+00 -5.827519e+01 5.403325e+01
         vertex 9.406305e+00 -5.827519e+01 5.353299e+01
      endloop
   endfacet
   facet normal -4.000000e-15 -1.000000e+00 1.000000e-15
      outer loop
         vertex 1.465174e+01 -5.827519e+01 5.898121e+01
         vertex 9.406305e+00 -5.827519e+01 5.353299e+01
         vertex 9.479574e+00 -5.827519e+01 5.292956e+01
      endloop
   endfacet
   facet normal -2.393155e-01 1.928204e-15 9.709419e-01
      outer loop
         vertex 8.218834e+00 -5.192519e+01 5.181264e+01
         vertex 8.218834e+00 -5.827519e+01 5.181264e+01
         vertex 8.809033e+00 -5.192519e+01 5.195811e+01
      endloop
   endfacet
   facet normal -2.393155e-01 1.928204e-15 9.709419e-01
      outer loop
         vertex 8.809033e+00 -5.192519e+01 5.195811e+01
         vertex 8.218834e+00 -5.827519e+01 5.181264e+01
         vertex 8.809033e+00 -5.827519e+01 5.195811e+01
      endloop
   endfacet
   facet normal -6.631224e-01 3.401000e-15 7.485110e-01
      outer loop
         vertex 8.809033e+00 -5.192519e+01 5.195811e+01
         vertex 8.809033e+00 -5.827519e+01 5.195811e+01
         vertex 9.264024e+00 -5.192519e+01 5.236120e+01
      endloop
   endfacet
   facet normal -6.631224e-01 3.401000e-15 7.485110e-01
      outer loop
         vertex 9.264024e+00 -5.192519e+01 5.236120e+01
         vertex 8.809033e+00 -5.827519e+01 5.195811e+01
         vertex 9.264024e+00 -5.827519e+01 5.236120e+01
      endloop
   endfacet
   facet normal -9.350163e-01 4.094670e-15 3.546048e-01
      outer loop
         vertex 9.264024e+00 -5.192519e+01 5.236120e+01
         vertex 9.264024e+00 -5.827519e+01 5.236120e+01
         vertex 9.479574e+00 -5.192519e+01 5.292956e+01
      endloop
   endfacet
   facet normal -9.350163e-01 4.094670e-15 3.546048e-01
      outer loop
         vertex 9.479574e+00 -5.192519e+01 5.292956e+01
         vertex 9.264024e+00 -5.827519e+01 5.236120e+01
         vertex 9.479574e+00 -5.827519e+01 5.292956e+01
      endloop
   endfacet
   facet normal -9.927089e-01 3.850299e-15 -1.205366e-01
      outer loop
         vertex 9.479574e+00 -5.192519e+01 5.292956e+01
         vertex 9.479574e+00 -5.827519e+01 5.292956e+01
         vertex 9.406305e+00 -5.192519e+01 5.353299e+01
      endloop
   endfacet
   facet normal -9.927089e-01 3.850299e-15 -1.205366e-01
      outer loop
         vertex 9.406305e+00 -5.192519e+01 5.353299e+01
         vertex 9.479574e+00 -5.827519e+01 5.292956e+01
         vertex 9.406305e+00 -5.827519e+01 5.353299e+01
      endloop
   endfacet
   facet normal -8.229838e-01 2.723871e-15 -5.680648e-01
      outer loop
         vertex 9.406305e+00 -5.192519e+01 5.353299e+01
         vertex 9.406305e+00 -5.827519e+01 5.353299e+01
         vertex 9.061000e+00 -5.192519e+01 5.403325e+01
      endloop
   endfacet
   facet normal -8.229838e-01 2.723871e-15 -5.680648e-01
      outer loop
         vertex 9.061000e+00 -5.192519e+01 5.403325e+01
         vertex 9.406305e+00 -5.827519e+01 5.353299e+01
         vertex 9.061000e+00 -5.827519e+01 5.403325e+01
      endloop
   endfacet
   facet normal -4.647230e-01 9.734361e-16 -8.854561e-01
      outer loop
         vertex 9.061000e+00 -5.192519e+01 5.403325e+01
         vertex 9.061000e+00 -5.827519e+01 5.403325e+01
         vertex 8.522765e+00 -5.192519e+01 5.431574e+01
      endloop
   endfacet
   facet normal -4.647230e-01 9.734361e-16 -8.854561e-01
      outer loop
         vertex 8.522765e+00 -5.192519e+01 5.431574e+01
         vertex 9.061000e+00 -5.827519e+01 5.403325e+01
         vertex 8.522765e+00 -5.827519e+01 5.431574e+01
      endloop
   endfacet
   facet normal 2.000000e-15 -1.000000e-15 -1.000000e+00
      outer loop
         vertex 8.522765e+00 -5.192519e+01 5.431574e+01
         vertex 8.522765e+00 -5.827519e+01 5.431574e+01
         vertex 7.914903e+00 -5.192519e+01 5.431574e+01
      endloop
   endfacet
   facet normal 2.000000e-15 -1.000000e-15 -1.000000e+00
      outer loop
         vertex 7.914903e+00 -5.192519e+01 5.431574e+01
         vertex 8.522765e+00 -5.827519e+01 5.431574e+01
         vertex 7.914903e+00 -5.827519e+01 5.431574e+01
      endloop
   endfacet
   facet normal 4.647230e-01 -2.744348e-15 -8.854561e-01
      outer loop
         vertex 7.914903e+00 -5.192519e+01 5.431574e+01
         vertex 7.914903e+00 -5.827519e+01 5.431574e+01
         vertex 7.376668e+00 -5.192519e+01 5.403325e+01
      endloop
   endfacet
   facet normal 4.647230e-01 -2.744348e-15 -8.854561e-01
      outer loop
         vertex 7.376668e+00 -5.192519e+01 5.403325e+01
         vertex 7.914903e+00 -5.827519e+01 5.431574e+01
         vertex 7.376668e+00 -5.827519e+01 5.403325e+01
      endloop
   endfacet
   facet normal 8.229838e-01 -3.860000e-15 -5.680648e-01
      outer loop
         vertex 7.376668e+00 -5.192519e+01 5.403325e+01
         vertex 7.376668e+00 -5.827519e+01 5.403325e+01
         vertex 7.031363e+00 -5.192519e+01 5.353299e+01
      endloop
   endfacet
   facet normal 8.229838e-01 -3.860000e-15 -5.680648e-01
      outer loop
         vertex 7.031363e+00 -5.192519e+01 5.353299e+01
         vertex 7.376668e+00 -5.827519e+01 5.403325e+01
         vertex 7.031363e+00 -5.827519e+01 5.353299e+01
      endloop
   endfacet
   facet normal 9.927089e-01 -4.091372e-15 -1.205366e-01
      outer loop
         vertex 7.031363e+00 -5.192519e+01 5.353299e+01
         vertex 7.031363e+00 -5.827519e+01 5.353299e+01
         vertex 6.958094e+00 -5.192519e+01 5.292956e+01
      endloop
   endfacet
   facet normal 9.927089e-01 -4.091372e-15 -1.205366e-01
      outer loop
         vertex 6.958094e+00 -5.192519e+01 5.292956e+01
         vertex 7.031363e+00 -5.827519e+01 5.353299e+01
         vertex 6.958094e+00 -5.827519e+01 5.292956e+01
      endloop
   endfacet
   facet normal 9.350163e-01 -3.385460e-15 3.546048e-01
      outer loop
         vertex 6.958094e+00 -5.192519e+01 5.292956e+01
         vertex 6.958094e+00 -5.827519e+01 5.292956e+01
         vertex 7.173645e+00 -5.192519e+01 5.236120e+01
      endloop
   endfacet
   facet normal 9.350163e-01 -3.385460e-15 3.546048e-01
      outer loop
         vertex 7.173645e+00 -5.192519e+01 5.236120e+01
         vertex 6.958094e+00 -5.827519e+01 5.292956e+01
         vertex 7.173645e+00 -5.827519e+01 5.236120e+01
      endloop
   endfacet
   facet normal 6.631224e-01 -1.903978e-15 7.485110e-01
      outer loop
         vertex 7.173645e+00 -5.192519e+01 5.236120e+01
         vertex 7.173645e+00 -5.827519e+01 5.236120e+01
         vertex 7.628636e+00 -5.192519e+01 5.195811e+01
      endloop
   endfacet
   facet normal 6.631224e-01 -1.903978e-15 7.485110e-01
      outer loop
         vertex 7.628636e+00 -5.192519e+01 5.195811e+01
         vertex 7.173645e+00 -5.827519e+01 5.236120e+01
         vertex 7.628636e+00 -5.827519e+01 5.195811e+01
      endloop
   endfacet
   facet normal 2.393155e-01 1.368000e-17 9.709419e-01
      outer loop
         vertex 7.628636e+00 -5.192519e+01 5.195811e+01
         vertex 7.628636e+00 -5.827519e+01 5.195811e+01
         vertex 8.218834e+00 -5.192519e+01 5.181264e+01
      endloop
   endfacet
   facet normal 2.393155e-01 1.368000e-17 9.709419e-01
      outer loop
         vertex 8.218834e+00 -5.192519e+01 5.181264e+01
         vertex 7.628636e+00 -5.827519e+01 5.195811e+01
         vertex 8.218834e+00 -5.827519e+01 5.181264e+01
      endloop
   endfacet
   facet normal -2.393156e-01 1.928204e-15 9.709418e-01
      outer loop
         vertex 1.524193e+01 -5.192519e+01 5.883574e+01
         vertex 1.524193e+01 -5.827519e+01 5.883574e+01
         vertex 1.583213e+01 -5.192519e+01 5.898121e+01
      endloop
   endfacet
   facet normal -2.393156e-01 1.928204e-15 9.709418e-01
      outer loop
         vertex 1.583213e+01 -5.192519e+01 5.898121e+01
         vertex 1.524193e+01 -5.827519e+01 5.883574e+01
         vertex 1.583213e+01 -5.827519e+01 5.898121e+01
      endloop
   endfacet
   facet normal -6.631226e-01 3.401001e-15 7.485108e-01
      outer loop
         vertex 1.583213e+01 -5.192519e+01 5.898121e+01
         vertex 1.583213e+01 -5.827519e+01 5.898121e+01
         vertex 1.628712e+01 -5.192519e+01 5.938430e+01
      endloop
   endfacet
   facet normal -6.631226e-01 3.401001e-15 7.485108e-01
      outer loop
         vertex 1.628712e+01 -5.192519e+01 5.938430e+01
         vertex 1.583213e+01 -5.827519e+01 5.898121e+01
         vertex 1.628712e+01 -5.827519e+01 5.938430e+01
      endloop
   endfacet
   facet normal -9.350162e-01 4.094670e-15 3.546051e-01
      outer loop
         vertex 1.628712e+01 -5.192519e+01 5.938430e+01
         vertex 1.628712e+01 -5.827519e+01 5.938430e+01
         vertex 1.650267e+01 -5.192519e+01 5.995266e+01
      endloop
   endfacet
   facet normal -9.350162e-01 4.094670e-15 3.546051e-01
      outer loop
         vertex 1.650267e+01 -5.192519e+01 5.995266e+01
         vertex 1.628712e+01 -5.827519e+01 5.938430e+01
         vertex 1.650267e+01 -5.827519e+01 5.995266e+01
      endloop
   endfacet
   facet normal -9.927088e-01 3.850298e-15 -1.205372e-01
      outer loop
         vertex 1.650267e+01 -5.192519e+01 5.995266e+01
         vertex 1.650267e+01 -5.827519e+01 5.995266e+01
         vertex 1.642940e+01 -5.192519e+01 6.055609e+01
      endloop
   endfacet
   facet normal -9.927088e-01 3.850298e-15 -1.205372e-01
      outer loop
         vertex 1.642940e+01 -5.192519e+01 6.055609e+01
         vertex 1.650267e+01 -5.827519e+01 5.995266e+01
         vertex 1.642940e+01 -5.827519e+01 6.055609e+01
      endloop
   endfacet
   facet normal -8.229840e-01 2.723872e-15 -5.680645e-01
      outer loop
         vertex 1.642940e+01 -5.192519e+01 6.055609e+01
         vertex 1.642940e+01 -5.827519e+01 6.055609e+01
         vertex 1.608410e+01 -5.192519e+01 6.105635e+01
      endloop
   endfacet
   facet normal -8.229840e-01 2.723872e-15 -5.680645e-01
      outer loop
         vertex 1.608410e+01 -5.192519e+01 6.105635e+01
         vertex 1.642940e+01 -5.827519e+01 6.055609e+01
         vertex 1.608410e+01 -5.827519e+01 6.105635e+01
      endloop
   endfacet
   facet normal -4.647231e-01 9.734362e-16 -8.854561e-01
      outer loop
         vertex 1.608410e+01 -5.192519e+01 6.105635e+01
         vertex 1.608410e+01 -5.827519e+01 6.105635e+01
         vertex 1.554586e+01 -5.192519e+01 6.133884e+01
      endloop
   endfacet
   facet normal -4.647231e-01 9.734362e-16 -8.854561e-01
      outer loop
         vertex 1.554586e+01 -5.192519e+01 6.133884e+01
         vertex 1.608410e+01 -5.827519e+01 6.105635e+01
         vertex 1.554586e+01 -5.827519e+01 6.133884e+01
      endloop
   endfacet
   facet normal 2.000000e-15 -1.000000e-15 -1.000000e+00
      outer loop
         vertex 1.554586e+01 -5.192519e+01 6.133884e+01
         vertex 1.554586e+01 -5.827519e+01 6.133884e+01
         vertex 1.493800e+01 -5.192519e+01 6.133884e+01
      endloop
   endfacet
   facet normal 2.000000e-15 -1.000000e-15 -1.000000e+00
      outer loop
         vertex 1.493800e+01 -5.192519e+01 6.133884e+01
         vertex 1.554586e+01 -5.827519e+01 6.133884e+01
         vertex 1.493800e+01 -5.827519e+01 6.133884e+01
      endloop
   endfacet
   facet normal 4.647231e-01 -2.744348e-15 -8.854561e-01
      outer loop
         vertex 1.493800e+01 -5.192519e+01 6.133884e+01
         vertex 1.493800e+01 -5.827519e+01 6.133884e+01
         vertex 1.439977e+01 -5.192519e+01 6.105635e+01
      endloop
   endfacet
   facet normal 4.647231e-01 -2.744348e-15 -8.854561e-01
      outer loop
         vertex 1.439977e+01 -5.192519e+01 6.105635e+01
         vertex 1.493800e+01 -5.827519e+01 6.133884e+01
         vertex 1.439977e+01 -5.827519e+01 6.105635e+01
      endloop
   endfacet
   facet normal 8.229840e-01 -3.860001e-15 -5.680645e-01
      outer loop
         vertex 1.439977e+01 -5.192519e+01 6.105635e+01
         vertex 1.439977e+01 -5.827519e+01 6.105635e+01
         vertex 1.405446e+01 -5.192519e+01 6.055609e+01
      endloop
   endfacet
   facet normal 8.229840e-01 -3.860001e-15 -5.680645e-01
      outer loop
         vertex 1.405446e+01 -5.192519e+01 6.055609e+01
         vertex 1.439977e+01 -5.827519e+01 6.105635e+01
         vertex 1.405446e+01 -5.827519e+01 6.055609e+01
      endloop
   endfacet
   facet normal 9.927088e-01 -4.091372e-15 -1.205372e-01
      outer loop
         vertex 1.405446e+01 -5.192519e+01 6.055609e+01
         vertex 1.405446e+01 -5.827519e+01 6.055609e+01
         vertex 1.398119e+01 -5.192519e+01 5.995266e+01
      endloop
   endfacet
   facet normal 9.927088e-01 -4.091372e-15 -1.205372e-01
      outer loop
         vertex 1.398119e+01 -5.192519e+01 5.995266e+01
         vertex 1.405446e+01 -5.827519e+01 6.055609e+01
         vertex 1.398119e+01 -5.827519e+01 5.995266e+01
      endloop
   endfacet
   facet normal 9.350162e-01 -3.385460e-15 3.546051e-01
      outer loop
         vertex 1.398119e+01 -5.192519e+01 5.995266e+01
         vertex 1.398119e+01 -5.827519e+01 5.995266e+01
         vertex 1.419674e+01 -5.192519e+01 5.938430e+01
      endloop
   endfacet
   facet normal 9.350162e-01 -3.385460e-15 3.546051e-01
      outer loop
         vertex 1.419674e+01 -5.192519e+01 5.938430e+01
         vertex 1.398119e+01 -5.827519e+01 5.995266e+01
         vertex 1.419674e+01 -5.827519e+01 5.938430e+01
      endloop
   endfacet
   facet normal 6.631226e-01 -1.903980e-15 7.485108e-01
      outer loop
         vertex 1.419674e+01 -5.192519e+01 5.938430e+01
         vertex 1.419674e+01 -5.827519e+01 5.938430e+01
         vertex 1.465174e+01 -5.192519e+01 5.898121e+01
      endloop
   endfacet
   facet normal 6.631226e-01 -1.903980e-15 7.485108e-01
      outer loop
         vertex 1.465174e+01 -5.192519e+01 5.898121e+01
         vertex 1.419674e+01 -5.827519e+01 5.938430e+01
         vertex 1.465174e+01 -5.827519e+01 5.898121e+01
      endloop
   endfacet
   facet normal 2.393157e-01 1.367885e-17 9.709418e-01
      outer loop
         vertex 1.465174e+01 -5.192519e+01 5.898121e+01
         vertex 1.465174e+01 -5.827519e+01 5.898121e+01
         vertex 1.524193e+01 -5.192519e+01 5.883574e+01
      endloop
   endfacet
   facet normal 2.393157e-01 1.367885e-17 9.709418e-01
      outer loop
         vertex 1.524193e+01 -5.192519e+01 5.883574e+01
         vertex 1.465174e+01 -5.827519e+01 5.898121e+01
         vertex 1.524193e+01 -5.827519e+01 5.883574e+01
      endloop
   endfacet
endsolid